<svg width="45" height="45" viewBox="0 0 45 45" fill="none" xmlns="http://www.w3.org/2000/svg">
<g clip-path="url(#clip0_231_14400)">
<path d="M14.2355 30.163V17.9462H11.4106V14.8154H18.1315V30.163H14.2355Z" fill="#DEDDDD"/>
<path d="M32.7789 18.7776C32.7789 20.1134 32.0566 21.2953 30.8519 21.952C32.5376 22.6528 33.5887 24.1194 33.5887 25.8271C33.5887 28.5858 31.1365 30.3377 27.3056 30.3377C23.4746 30.3377 21.0215 28.608 21.0215 25.8933C21.0215 24.1406 22.1602 22.6527 23.9334 21.9519C22.6418 21.2296 21.8101 20.0035 21.8101 18.6679C21.8101 16.2158 23.9555 14.6611 27.2835 14.6611C30.6548 14.6611 32.7789 16.2592 32.7789 18.7775V18.7776ZM24.7001 25.4992C24.7001 26.7907 25.6201 27.5135 27.306 27.5135C28.9918 27.5135 29.9329 26.8129 29.9329 25.4992C29.9329 24.2297 28.9916 23.5067 27.306 23.5067C25.6204 23.5067 24.7001 24.229 24.7001 25.4992ZM25.0943 18.9962C25.0943 20.0916 25.8827 20.7039 27.306 20.7039C28.7292 20.7039 29.5167 20.0913 29.5167 18.9962C29.5167 17.8583 28.7291 17.2229 27.306 17.2229C25.8829 17.2229 25.0943 17.8583 25.0943 18.9962Z" fill="#DEDDDD"/>
<path d="M40.0736 16.548C40.7228 18.4653 41.0528 20.4762 41.0505 22.5004C41.0505 32.729 32.7287 41.0507 22.4995 41.0507C12.2702 41.0507 3.94919 32.7289 3.94919 22.5004C3.94919 12.272 12.2708 3.94958 22.4993 3.94958C24.5236 3.94721 26.5346 4.27722 28.4519 4.92643V0.79789C26.5123 0.266885 24.5103 -0.00147115 22.4993 6.06544e-06C10.0936 6.06544e-06 -0.000244141 10.0937 -0.000244141 22.5003C-0.000244141 34.9068 10.0936 45.0001 22.4993 45.0001C34.9051 45.0001 44.9998 34.9064 44.9998 22.5004C45.0014 20.4896 44.7332 18.4876 44.2026 16.548H40.0736Z" fill="#FF375B"/>
<path d="M38.9513 6.0359V1.72168H35.8491V6.0359H31.5603V9.13815H35.8491V13.4522H38.9513V9.13815H43.2654V6.0359H38.9513Z" fill="#DEDDDD"/>
</g>
<defs>
<clipPath id="clip0_231_14400">
<rect width="45" height="45" fill="white"/>
</clipPath>
</defs>
</svg>
