<?xml version="1.0" encoding="utf-8"?>
<svg xmlns="http://www.w3.org/2000/svg" fill="none" height="24" viewBox="0 0 25 24" width="25">
<g clip-path="url(#clip0_216_26986)">
<path d="M4.74057 7.0022L3.69046 7.17722C3.01955 7.2939 2.37782 7.64393 1.9111 8.13982C1.2402 8.86906 0.540124 10.1234 0.890161 12.0777C1.09435 13.2154 1.50273 14.0029 1.99861 14.528C2.75703 15.4031 3.92382 15.7823 5.09061 15.6364L6.60743 15.4323L4.74057 7.0022Z" fill="#D9E968"/>
<path d="M5.60156 15.4489C5.60156 15.4489 6.75713 18.3543 8.54001 20.5994C9.76162 22.1182 11.2143 23.1086 12.0067 23.6039C12.3369 23.802 12.7991 23.769 13.0963 23.5048C13.4594 23.1747 13.5255 22.6134 13.2283 22.2502C12.6671 21.5569 11.8416 20.3353 11.1813 18.6845C10.1248 16.0101 10.2238 14.3923 10.2238 14.3923L5.60156 15.4489Z" fill="#1EA578"/>
<path clip-rule="evenodd" d="M12.9873 23.5871C13.1973 23.2592 13.1986 22.8267 12.9542 22.528C12.393 21.8347 11.5675 20.6131 10.9072 18.9623C9.85069 16.288 9.94974 14.6702 9.94974 14.6702L5.68311 15.6454C5.9753 16.3346 7.03381 18.7027 8.54008 20.5994C9.76169 22.1182 11.2144 23.1087 12.0068 23.6039C12.2988 23.7792 12.6942 23.7736 12.9873 23.5871Z" fill="#117252" fill-rule="evenodd"/>
<path d="M4.79867 6.97276C4.79867 6.97276 6.08214 6.91442 8.79493 5.7768C11.5077 4.63918 12.937 2.62646 12.937 2.62646L16.7583 16.6279C16.7583 16.6279 14.483 15.3736 11.4785 15.1695C8.47406 14.9653 6.54886 15.4612 6.54886 15.4612C6.54886 15.4612 5.17788 15.1695 4.33196 11.6399C3.48603 8.11038 4.79867 6.97276 4.79867 6.97276Z" fill="#158A65"/>
<path d="M1.99829 14.5569C2.7567 15.432 3.92349 15.8112 5.09028 15.6653L6.54877 15.4903C6.54877 15.4903 6.57794 15.4903 6.60711 15.4903H6.63628C6.95715 15.4028 8.79484 15.0236 11.5076 15.1986C14.5121 15.4028 16.7874 16.6571 16.7874 16.6571L15.4747 11.0565C15.4747 11.0565 14.2204 10.969 11.0992 11.2607C7.97809 11.5524 1.26904 13.3026 1.26904 13.3026C1.41489 13.7985 1.70659 14.2068 1.99829 14.5569Z" fill="#117252"/>
<path d="M4.57263 12.457C2.68536 12.8994 1.21094 13.2827 1.21094 13.2827C1.26991 13.4007 1.32889 13.5186 1.35838 13.6366C1.35838 13.6661 1.38787 13.6661 1.38787 13.6955C1.44685 13.784 1.47633 13.8725 1.53531 13.9609C1.5648 13.9904 1.5648 14.0199 1.59429 14.0494C1.65327 14.1379 1.68275 14.1969 1.74173 14.2558C1.77122 14.2853 1.77122 14.3148 1.80071 14.3148C1.85969 14.4033 1.91866 14.4917 2.00713 14.5507C2.77383 15.4354 3.95337 15.8187 5.13291 15.6713L6.60734 15.4943C6.45989 15.4649 5.36882 15.0815 4.57263 12.457Z" fill="#B4BC4D"/>
<path d="M18.2831 17.3359C20.0722 16.921 20.6317 12.7424 19.5326 8.00269C18.4336 3.26299 16.0922 -0.242976 14.303 0.171899C12.5139 0.586773 11.9544 4.76538 13.0535 9.50508C14.1525 14.2448 16.4939 17.7507 18.2831 17.3359Z" fill="#1EA578"/>
<path d="M18.1359 15.9176C19.5311 15.5941 19.9157 12.1129 18.9949 8.14224C18.0742 4.17157 16.1968 1.21496 14.8016 1.53848C13.4064 1.862 13.0218 5.34314 13.9425 9.31381C14.8633 13.2845 16.7407 16.2411 18.1359 15.9176Z" fill="#005F39"/>
<path clip-rule="evenodd" d="M18.863 7.48065C19.7838 11.4513 19.3851 14.9357 17.9726 15.2633C16.7575 15.545 15.1878 13.3986 14.1867 10.2652C14.0994 9.95577 14.0177 9.63828 13.9425 9.314C13.0218 5.34332 13.4204 1.85894 14.8329 1.5314C16.0481 1.24963 17.6177 3.39603 18.6188 6.52941C18.7062 6.83888 18.7878 7.15637 18.863 7.48065Z" fill="#117252" fill-rule="evenodd"/>
<path clip-rule="evenodd" d="M19.1747 9.12462C19.0965 8.59126 18.9928 8.04072 18.8629 7.4805C18.8255 7.3192 18.7865 7.15959 18.746 7.00181C18.0713 4.99927 16.9042 3.56456 15.7598 3.5236C14.4236 3.47578 13.565 5.34373 13.6594 7.85942C13.7337 8.33327 13.8278 8.81979 13.9424 9.31384C14.0176 9.63812 14.0993 9.95561 14.1866 10.2651C14.4335 11.0377 14.7149 11.7504 15.0171 12.3814C15.6325 13.3303 16.373 13.9256 17.1044 13.9518C18.5262 14.0027 19.4072 11.8844 19.1747 9.12462Z" fill="#158A65" fill-rule="evenodd"/>
<path d="M16.1169 6.76855C16.1169 6.76855 15.7085 7.29361 14.6001 7.61448C13.4916 7.93535 13.1416 7.73116 13.1416 7.73116L13.9 11.4649C13.9 11.4649 14.6001 11.0565 15.446 10.9982C16.2919 10.9398 17.1962 11.1148 17.1962 11.1148L16.1169 6.76855Z" fill="#1EA578"/>
<path d="M17.3482 11.0951C18.0414 10.9469 18.3903 9.8306 18.1276 8.60179C17.8648 7.37297 17.0899 6.49698 16.3967 6.6452C15.7035 6.79342 15.3546 7.90972 15.6174 9.13853C15.8801 10.3673 16.655 11.2433 17.3482 11.0951Z" fill="#34CD9A"/>
<path clip-rule="evenodd" d="M18.1634 9.94946C18.0543 10.0544 17.9282 10.1257 17.7873 10.1558C17.1155 10.2995 16.3644 9.45042 16.1097 8.25941C15.9981 7.73747 16.0004 7.23647 16.0947 6.8262C16.2038 6.72129 16.3299 6.64996 16.4708 6.61985C17.1426 6.47619 17.8937 7.32524 18.1484 8.51625C18.26 9.0382 18.2577 9.5392 18.1634 9.94946Z" fill="#5EECBD" fill-rule="evenodd"/>
<path d="M7.96182 15.2571C8.72485 15.1691 9.72266 15.1104 10.9846 15.1691C10.1922 14.406 8.93028 12.8213 8.51942 10.5909C8.13791 8.53657 8.31399 6.83443 8.57812 5.86597C7.46292 6.30618 6.61184 6.5703 5.99555 6.74639C5.81947 7.89093 5.79012 9.32895 6.08359 10.9724C6.40641 12.7039 7.16944 14.1713 7.96182 15.2571Z" fill="#1EA578"/>
<path d="M10.8961 15.2063C10.9255 15.2063 10.955 15.2063 10.9845 15.2063C10.3068 14.558 9.30495 13.3205 8.77457 11.582C8.00847 11.7294 7.18343 11.8767 6.3584 12.0535C6.74145 13.35 7.36023 14.4402 7.979 15.2947C8.71564 15.2063 9.688 15.1474 10.8961 15.2063Z" fill="#158A65"/>
<path d="M21.7116 5.49709C21.6537 5.46696 21.5848 5.46696 21.5269 5.49709L20.1953 6.19025C20.0485 6.26667 19.8777 6.14187 19.9059 5.97878L20.1611 4.5025C20.1722 4.43785 20.151 4.37182 20.1042 4.32582L19.0256 3.26554C18.9078 3.14967 18.9734 2.94896 19.1369 2.92502L20.6358 2.70567C20.7012 2.69609 20.7577 2.65476 20.7867 2.59527L21.4419 1.24844C21.5144 1.09934 21.7265 1.09818 21.8006 1.24649L22.476 2.59722C22.5052 2.6556 22.561 2.69606 22.6256 2.70562L24.1026 2.92445C24.266 2.94865 24.3313 3.14916 24.2135 3.26491L23.1344 4.32582C23.0876 4.37182 23.0663 4.43784 23.0775 4.5025L23.3326 5.97878C23.3608 6.14187 23.19 6.26667 23.0432 6.19025L21.7116 5.49709Z" fill="#D8EA4B"/>
<path d="M20.4248 10.9328C20.396 10.9177 20.3617 10.9176 20.3328 10.9324L19.4224 11.3981C19.3491 11.4356 19.2644 11.3735 19.2783 11.2923L19.4471 10.3004C19.4525 10.2684 19.4422 10.2358 19.4192 10.2129L18.6994 9.49305C18.6413 9.43497 18.6742 9.33553 18.7554 9.32343L19.7478 9.17563C19.7797 9.17087 19.8074 9.151 19.8221 9.12227L20.2878 8.21201C20.3253 8.13865 20.4305 8.13963 20.4667 8.21368L20.9097 9.12078C20.9241 9.15037 20.9522 9.17095 20.9848 9.1758L21.976 9.32343C22.0572 9.33553 22.0901 9.43497 22.032 9.49305L21.3122 10.2129C21.2892 10.2358 21.2789 10.2684 21.2843 10.3004L21.4527 11.29C21.4666 11.3715 21.3811 11.4337 21.3078 11.3953L20.4248 10.9328Z" fill="#D8EA4B"/>
</g>
<defs>
<clipPath id="clip0_216_26986">
<rect fill="white" height="24" transform="translate(0.5)" width="24"/>
</clipPath>
</defs>
</svg>