<?xml version="1.0" encoding="utf-8"?>
<svg xmlns="http://www.w3.org/2000/svg" fill="none" viewBox="0 0 40 40">
  <clipPath id="a">
    <path d="m.235352.235291h39v39h-39z"/>
  </clipPath>
  <g clip-path="url(#a)">
    <path d="m1.86987 23.792s2.65833 2.5215 3.4011 6.4504c.31949 1.652.35628 2.9405.285 3.8928l1.8797 2.3259 9.83683.9157 12.1763 1.1201 2.8159-2.6027-.215-3.3453-.215-6.1376-14.9922-1.3097z" fill="#9481ff"/>
    <path d="m7.76309 30.9659c.12662.7734.19897 1.4857.23515 2.0962-.01809.0204 2.09816 2.4421 2.09816 2.4218l15.3085 1.4816 2.3695-1.9121v-6.493l-21.80199-2.0717s1.30232 1.7095 1.79068 4.4772z" fill="#5c59b9"/>
    <path d="m9.16397 30.5498c.12662.6789.19897 1.3041.23514 1.8401-.01808.0178 1.64089 1.8226 1.80879 2.0118l15.5979 1.4146 2.3695-1.8043v-5.5738l-21.80201-1.8186s1.30232 1.5006 1.79068 3.9302z" fill="#eee9ff"/>
    <g fill="#5c59b9">
      <path d="m21.6414 28.6557c.8687.1029 1.4927.8516 1.6684 2.0105.1369.9024-.192 1.2775-.4582 1.5626-.2159.2266-.3942.4493-.3327.8556l.0264.1732-.7684-.0912-.0263-.1732c-.1256-.8047.1381-1.1628.3691-1.4701.1858-.2448.3477-.4701.2862-.8764-.0715-.4714-.29-.7657-.6063-.8034-.3365-.0404-.4922.2995-.4043.8789l-.8901-.1054c-.1921-1.2671.2762-2.064 1.1362-1.9611z"/>
      <path d="m22.2288 33.4892c.2762.0325.5612.4088.6277.8138s-.1193.7175-.3967.685c-.2775-.0326-.5599-.3998-.6277-.8061s.1142-.7266.3967-.6927z"/>
      <path d="m17.7965 28.223c.8688.1029 1.494.8517 1.6685 2.0106.1369.9037-.1921 1.2787-.4582 1.5626-.216.2266-.393.4492-.3315.8555l.0252.1732-.7684-.0911-.0264-.1732c-.1255-.8035.1394-1.1629.3691-1.4689.1858-.2461.3466-.4714.285-.8776-.0715-.4714-.2887-.7657-.6038-.8035-.3378-.0404-.4934.2995-.4056.879l-.8901-.1055c-.192-1.2657.2737-2.0639 1.1362-1.9611z"/>
      <path d="m18.3827 33.0584c.2762.0326.5612.4076.6278.8126.0665.405-.1256.7175-.3955.6849-.2699-.0325-.5612-.3997-.6277-.806-.0666-.4063.113-.7253.3954-.6915z"/>
      <path d="m13.8751 27.8651c.8688.1029 1.4927.8516 1.6685 2.0119.1368.9024-.1921 1.2774-.4583 1.5626-.2159.2265-.3942.4492-.3326.8555l.0263.1745-.7696-.0925-.0251-.1732c-.1255-.8034.1381-1.1628.3691-1.4688.1858-.2448.3478-.4701.2863-.8764-.0716-.4727-.29-.767-.6064-.8047-.3377-.0391-.4921.2995-.4043.8802l-.8913-.1067c-.1934-1.267.2737-2.0653 1.1374-1.9624z"/>
      <path d="m14.4604 32.6998c.2762.0326.5624.4076.6277.8139s-.1193.7175-.3955.6836c-.2762-.0338-.5612-.3984-.6277-.806s.113-.7253.3955-.6915z"/>
    </g>
    <path d="m23.3512 20.3909-14.9726-1.3096-6.48944 4.7107 29.96484 2.6192 6.4894-4.7107z" fill="#503a95"/>
    <path d="m23.0083 20.641-13.46082-1.1774-5.10021 3.6589 26.93913 2.3548 5.1002-3.6589z" fill="#393160"/>
    <path d="m31.8544 26.4113 6.4894-4.7107s-.8405 4.1634-1.0164 7.4667c-.1759 3.3034 0 4.2499 0 4.2499l-7.8904 5.0799c.9301-.8895 2.4174-2.3469 2.4174-2.3469-.1535-1.0329-.2871-1.9802-.2783-3.557.0202-3.615.2783-6.1819.2783-6.1819z" fill="#5c59b9"/>
    <path d="m26.8303 7.56805 6.294 5.33625c1.036.8795 1.9546 1.9155 2.7365 3.0688 1.1533 1.72 2.0133 3.6942 2.4824 5.8444l-6.2549-5.3753c-.4886-2.1501-1.3291-4.1243-2.4824-5.8249-.8014-1.15324-1.7396-2.15011-2.7756-3.04925z" fill="#5c59b9"/>
    <path d="m2.14332 13.7447c1.15324-2.0133 2.61923-3.77245 4.30023-5.23844 3.49883-3.04926 7.93585-4.7498 12.45115-4.33933 4.5152.41048 8.2877 2.83425 10.6919 6.43077 1.1533 1.7006 1.9938 3.6748 2.4824 5.8249 0 .0586-29.94523-2.6583-29.92568-2.6779z" fill="#eee9ff"/>
    <path d="m2.14332 13.7447c1.15324-2.0133 2.61923-3.77245 4.30023-5.23844 3.49883-3.04926 7.93585-4.7498 12.45115-4.33933 4.5152.41048 8.2877 2.83425 10.6919 6.43077 1.1533 1.7006 1.9938 3.6748 2.4824 5.8249 0 .0586-29.94523-2.6583-29.92568-2.6779z" fill="#9481ff"/>
    <path d="m32.0883 16.4423-16.3409-1.4269-13.5848-1.251s5.19937 1.5637 6.25488 5.3557c-.05864-.0195 29.92572 2.6975 29.92572 2.6975z" fill="#503a95"/>
    <path d="m17.1549 3.73682v2.93197c.3713 0 .7623.01955 1.1337.05864 3.6551.33229 6.8412 2.24785 8.9718 5.41437.1759.2541.3714.645.5864 1.0946-6.9781-.6255-15.7154-1.4073-21.18842-1.896.27365-.2736.56685-.5473.86005-.8014 2.83427-2.48241 6.25487-3.85066 9.63647-3.85066zm0 0c-4.2025 0-8.26822 1.70054-11.55203 4.57388-1.73964 1.52463-3.26427 3.362-4.47615 5.4535-.01955 0 31.15708 2.7951 31.15708 2.7951s-1.3878-4.2807-2.5801-6.0594c-2.5215-3.73338-6.4308-6.27442-11.1415-6.70444-.4691-.0391-.9382-.05864-1.4073-.05864z" fill="#9481ff"/>
    <path clip-rule="evenodd" d="m21.5152 15.6181.6903-2.5955-1.8178-2.6583-3.5575-.0782-3.2056 2.541-.5404 2.0318c1.1327.1026 2.2967.2078 3.4637.313l.3605-.6442c-.2736-.215-.4105-.6059-.2932-1.036.1759-.645.821-1.1532 1.4465-1.1337.6254.0196.9968.5473.8209 1.1924-.1173.43-.4496.8014-.8405.9968l.028.7618c1.1674.105 2.3253.2089 3.4451.3091z" fill="#5c59b9" fill-rule="evenodd"/>
    <path d="m16.9188 10.4024.86.8601c-.1564-.1564-.3518-.2346-.6059-.2541-.1369 0-.2737.0195-.4105.0586l-.8601-.86c.1369-.0391.2737-.0587.4105-.0587.2346.0196.4496.0977.606.2541z" fill="#53386f"/>
    <path d="m15.9029 10.2267.8601.8601c-.0391.0195-.0977.0391-.1368.0586l-.8601-.86c.0391-.0391.0782-.0587.1368-.0587z" fill="#563a74"/>
    <path d="m15.7662 10.2654.86.86c-.0391.0195-.0781.0391-.0977.0586l-.86-.86c.0195-.0196.0586-.0391.0977-.0586z" fill="#593c78"/>
    <path d="m15.6683 10.3245.86.86c-.0391.0196-.0586.0391-.0977.0587l-.86-.8601c.039-.0195.0586-.0391.0977-.0586z" fill="#5c3e7c"/>
    <path d="m15.5704 10.3631.86.86c-.0195.0196-.0586.0391-.0782.0587l-.86-.8601c.0195-.0195.0586-.0391.0782-.0586z" fill="#5f4080"/>
    <path d="m15.492 10.4219.8601.8601c-.0196.0195-.0587.039-.0782.0586l-.8601-.8601c.0391-.0195.0587-.039.0782-.0586z" fill="#634285"/>
    <path d="m15.4136 10.4807.8601.8601c-.0196.0195-.0391.0391-.0782.0586l-.8601-.86c.0391-.0196.0587-.0391.0782-.0587z" fill="#664489"/>
    <path d="m15.3548 10.5392.86.8601c-.0195.0195-.0391.0391-.0586.0586l-.8601-.86c.0196-.0196.0391-.0391.0587-.0587z" fill="#69478d"/>
    <path d="m15.2769 10.5977.86.8601c-.0195.0195-.039.0391-.0586.0586l-.86-.86c.0195-.0196.0391-.0391.0586-.0587z" fill="#6c4992"/>
    <path d="m15.2178 10.6563.8601.86c-.0196.0196-.0391.0391-.0587.0782l-.86-.86c.0195-.0196.0391-.0587.0586-.0782z" fill="#6f4b96"/>
    <path d="m15.16 10.7347.86.8601c-.0195.0195-.0391.0586-.0586.0781l-.8601-.86c.0196-.0391.0391-.0586.0587-.0782z" fill="#724d9a"/>
    <path d="m15.1014 10.8131.86.8601c-.0195.0195-.0391.0586-.0586.0782l-.8601-.8601c.0196-.0195.0391-.0586.0587-.0782z" fill="#764f9e"/>
    <path d="m15.0428 10.891.8795.8796c-.0195.039-.039.0586-.0586.0977l-.86-.8601c0-.0391.0195-.0781.0391-.1172z" fill="#7951a3"/>
    <path d="m14.9837 11.0083.86.86c-.0195.0391-.0391.0978-.0586.1369l-.8601-.8601c.0196-.0586.0391-.0977.0587-.1368z" fill="#7c53a7"/>
    <path d="m14.9251 11.1449.8601.8601c-.0196.0586-.0391.0977-.0587.1563-.0391.1369-.0391.2542-.0391.3714l-.86-.86c0-.1173 0-.2346.0391-.3714.0195-.0586.0391-.1173.0586-.1564z" fill="#7f56ab"/>
    <path d="m14.8274 11.6731.86.8601c0 .0391 0 .0977.0196.1368l-.8601-.86c-.0195-.0391-.0195-.0978-.0195-.1369z" fill="#7c53a7"/>
    <path d="m14.8467 11.8098.86.86c0 .0391.0196.0586.0196.0977l-.8601-.86c-.0195-.0391-.0195-.0587-.0195-.0977z" fill="#7951a3"/>
    <path d="m14.8667 11.9075.86.86c0 .0196.0196.0587.0196.0782l-.8601-.86c0-.0196-.0195-.0587-.0195-.0782z" fill="#764f9e"/>
    <path d="m14.886 11.9859.86.8601c.0196.0195.0196.0391.0391.0782l-.86-.8601c0-.0391-.0196-.0586-.0391-.0782z" fill="#724d9a"/>
    <path d="m14.925 12.0638.8601.86c.0195.0195.0195.0391.0391.0586l-.8601-.86c-.0195-.0196-.0195-.0391-.0391-.0586z" fill="#6f4b96"/>
    <path d="m14.9644 12.1223.86.86c.0195.0195.0195.0391.0391.0586l-.8601-.86c-.0195-.0196-.0195-.0391-.039-.0586z" fill="#6c4992"/>
    <path d="m15.0037 12.1811.86.86c.0196.0196.0196.0391.0391.0587l-.86-.8601c0-.0195-.0196-.0391-.0391-.0586z" fill="#69478d"/>
    <path d="m15.0427 12.2203.8601.8601.0195.0195-.86-.86s0 0-.0196-.0196z" fill="#664489"/>
    <path d="m15.1799 12.2982.8796.8601-.0195.0391-.8796-.8601z" fill="#1e0930"/>
    <path d="m15.1597 12.3376.8601.86c-.0391-.0195-.0586-.0586-.0977-.0782l-.8601-.86c.0391.0195.0782.0391.0977.0782z" fill="#13061f"/>
    <path d="m16.9187 10.4026.86.8601.0196.0195-.8601-.86c-.0195 0-.0195-.0196-.0195-.0196z" fill="#180726"/>
    <path d="m16.938 10.4223.86.86c.0196.0196.0391.0391.0391.0587l-.86-.8601c-.0196-.0195-.0196-.0391-.0391-.0586z" fill="#180727"/>
    <path d="m16.9773 10.4811.86.86c.0196.0196.0196.0391.0391.0587l-.86-.8601c-.0196-.0195-.0196-.0391-.0391-.0586z" fill="#190728"/>
    <path d="m17.0164 10.5396.86.8601c.0196.0195.0196.0391.0391.0586l-.86-.86c-.0196-.0196-.0196-.0391-.0391-.0587z" fill="#1a0829"/>
    <path d="m17.0557 10.5981.86.8601c.0196.0195.0196.0391.0391.0781l-.86-.86c-.0196-.0391-.0196-.0586-.0391-.0782z" fill="#1b082a"/>
    <path d="m17.095 10.6566.86.8601c.0196.0195.0196.0586.0196.0781l-.8601-.86c0-.0195-.0195-.0391-.0195-.0782z" fill="#1b082c"/>
    <path d="m17.1143 10.7547.86.86c.0195.0391.0195.0587.0195.0977l-.86-.86c0-.0391 0-.0782-.0195-.0977z" fill="#1c082d"/>
    <path d="m17.134 10.8521.8601.86c0 .0391.0195.0782.0195.1369l-.86-.8601c0-.0586 0-.0977-.0196-.1368z" fill="#1d092e"/>
    <path d="m17.1534 10.9694.86.8601c0 .1172 0 .2345-.0391.3714l-.86-.8601c.0391-.1173.0586-.2541.0391-.3714z" fill="#1e092f"/>
    <path d="m16.2733 12.3178.8601.86-1.0751-.0195-.8796-.8601z" fill="#13061e"/>
    <path d="m15.1608 12.3377.8796.8601-1.5051 2.6387-.86-.8796z" fill="#8258b0"/>
    <path d="m17.1146 11.3605c-.1173.4301-.4496.821-.8405.9969v-.0391l-1.0946-.0195-.0196.0391c-.2932-.215-.4105-.5864-.2932-1.036.1759-.645.821-1.1532 1.4465-1.1337.6059 0 .9773.5473.8014 1.1923z" fill="#1c082d"/>
    <path d="m17.1138 11.3608.8601.8601c-.0196.0586-.0391.1173-.0587.1564l-.86-.8601c.0391-.0586.0391-.1173.0586-.1564z" fill="#1e092f"/>
    <path d="m17.0555 11.5171.86.86c-.0195.0391-.0391.0978-.0586.1369l-.8601-.8601c.0196-.0391.0391-.0977.0587-.1368z" fill="#1d092e"/>
    <path d="m16.9969 11.654.86.8601c-.0195.0391-.0391.0782-.0586.0977l-.8601-.86c.0196-.0196.0391-.0587.0587-.0978z" fill="#1c082d"/>
    <path d="m16.9378 11.7518.86.86c-.0195.0391-.0391.0587-.0586.0782l-.86-.86c.0195-.0196.039-.0391.0586-.0782z" fill="#1b082c"/>
    <path d="m16.8792 11.8495.86.86c-.0195.0196-.0391.0587-.0586.0782l-.86-.86c.0195-.0391.0391-.0587.0586-.0782z" fill="#1b082a"/>
    <path d="m16.8208 11.9276.8601.8601c-.0196.0195-.0391.0391-.0586.0781l-.8601-.86c.0196-.0391.0391-.0586.0586-.0782z" fill="#1a0829"/>
    <path d="m16.7615 11.9865.8601.86c-.0196.0195-.0391.0391-.0587.0586l-.86-.86c.0195-.0196.0391-.0391.0586-.0586z" fill="#190728"/>
    <path d="m16.7032 12.0643.86.86c-.0195.0196-.0391.0391-.0586.0587l-.8601-.8601c.0196-.0195.0391-.0391.0587-.0586z" fill="#180727"/>
    <path d="m16.6255 12.1234.8601.8601c-.0196.0195-.0391.0391-.0782.0586l-.86-.86c.0391-.0196.0586-.0391.0781-.0587z" fill="#180726"/>
    <path d="m16.567 12.1816.86.8601c-.0195.0195-.0391.0391-.0782.0586l-.86-.86c.0195-.0391.0586-.0391.0782-.0587z" fill="#170725"/>
    <path d="m16.4886 12.2208.86.8601c-.0195.0195-.0586.0391-.0782.0586l-.86-.86c.0195-.0196.0586-.0391.0782-.0587z" fill="#160723"/>
    <path d="m16.4102 12.2796.8796.8601c-.0195.0195-.0586.0391-.0977.0586l-.8601-.86c.0196-.0196.0587-.0391.0782-.0587z" fill="#150622"/>
    <path d="m16.3321 12.3382.86.86c-.0195 0-.0391.0196-.0586.0196l-.8601-.8601c.0196 0 .0391-.0195.0587-.0195z" fill="#150621"/>
    <path d="m18.6196 8.17447.8796.86005 1.7983 2.65828-.86-.86z" fill="#c3dbcf"/>
    <path d="m16.2737 12.3576.86.8601.0978 2.6778-.8796-.8796z" fill="#1f0932"/>
    <path d="m16.3532 15.0152-2.6779-.0586 1.4855-2.6193.0196-.0391 1.0946.0196v.0391z" fill="#1c082d"/>
    <path d="m16.3532 15.0154.8796.8796-2.6975-.0587-.86-.8796z" fill="#13061e"/>
    <path d="m16.2259 17.0421.8796.8601-3.5575-.0782-.86-.86z" fill="#596d5f"/>
    <path d="m19.4442 14.4888.86.8796-3.2056 2.5411-.8796-.8601z" fill="#6a8a76"/>
    <path d="m19.4601 14.5077-3.2057 2.5411-3.5574-.0782-1.8178-2.6583.9773-3.6748 3.2056-2.54103 3.5575.07818 1.8178 2.65835zm-5.7858.4496 2.6974.0586-.0977-2.6583c.3909-.1955.7232-.5668.8405-.9969.1759-.645-.1955-1.1728-.821-1.1923s-1.2705.4887-1.4464 1.1337c-.1173.43.0195.8209.2932 1.036z" fill="#32d698"/>
    <path d="m20.4388 10.8323.86.86-.9773 3.6943-.8601-.8796z" fill="#c3dbcf"/>
    <path d="m30.059 15.9636 2.6647-1.3928-.5047 2.9472 2.1398 2.0994-2.9675.4441-1.3323 2.6849-1.3323-2.6849-2.9674-.4441 2.1599-2.0994-.5046-2.9472z" fill="#fff19f"/>
    <path d="m36.7875 6.1142 2.4469 2.63895-3.5939.33368-1.764 3.15647-1.4262-3.31964-3.5376-.69943 2.7093-2.39176-.42-3.57075 3.1012 1.83431 3.2793-1.50797z" fill="#fff19f"/>
    <path clip-rule="evenodd" d="m23.3423 24.7741-.8286-.8192.3909-2.3846-2.1305 1.1336-2.1502-1.1336.4105 2.3846-.4114.4067z" fill="#fff19f" fill-rule="evenodd"/>
  </g>
</svg>