<svg enable-background="new 0 0 176.5 37.8" viewBox="0 0 176.5 37.8" xmlns="http://www.w3.org/2000/svg" fill="#fff"><path d="m29 26.9 3.2 3.5c.4.5.6.8.6 1s-.1.5-.5 1c-1.7 1.6-3.7 2.9-6.2 3.9-2.4 1-4.9 1.5-7.5 1.5-5.1 0-9.5-1.9-13.2-5.6-3.6-3.7-5.4-8.1-5.4-13.3s1.8-9.6 5.5-13.3 8.1-5.6 13.2-5.6c2.5 0 5 .5 7.5 1.5 2.4 1 4.5 2.3 6.2 3.9.3.4.5.7.5 1 0 .2-.2.6-.6 1l-3.3 3.5c-.5.5-.8.7-1 .7-.3 0-.6-.2-.9-.5-2.3-2.5-5-3.7-8.3-3.7-3.1 0-5.6 1.2-7.4 3.5s-2.8 5-2.8 8.1c0 3 .9 5.7 2.8 8.1 1.9 2.3 4.3 3.5 7.4 3.5 3.2 0 6-1.2 8.3-3.7.3-.3.7-.5.9-.5.2-.2.5 0 1 .5z"/><path d="m39.7 35.7v-33.6c0-.6.1-.9.3-1.1s.6-.3 1.1-.3h12.9c1.6 0 3.1.2 4.6.5 1.5.4 2.9.9 4.2 1.7 1.4.8 2.4 1.9 3.2 3.4s1.2 3.2 1.2 5.2c0 5.1-2.5 8.5-7.6 10.1l8.8 13.5c.6 1.2.2 1.8-1.2 1.8h-5.2c-1 0-1.8-.5-2.4-1.4l-8.5-13.2h-2.9v13.2c0 .6-.1.9-.3 1.1s-.6.3-1.1.3h-5.7c-.6 0-.9-.1-1.1-.3-.2 0-.3-.4-.3-.9zm14.1-28h-5.6v7.8h5.6c1.8 0 3.2-.3 4-.9s1.3-1.6 1.3-3-.4-2.3-1.3-3c-.8-.6-2.2-.9-4-.9z"/><path d="m73.6 22.1v-20c0-.6.1-.9.3-1.1s.6-.3 1.1-.3h5.7c.6 0 .9.1 1.1.3s.3.6.3 1.1v19.8c0 5.7 2.4 8.6 7.3 8.6s7.3-2.9 7.3-8.6v-19.8c0-.6.1-.9.3-1.1s.6-.3 1.1-.3h5.7c.6 0 .9.1 1.1.3s.3.6.3 1.1v20c0 4.9-1.5 8.8-4.5 11.5s-6.7 4.1-11.2 4.1-8.3-1.4-11.2-4.1c-3.2-2.7-4.7-6.6-4.7-11.5z"/><path d="m112.4 35.7v-33.6c0-.6.1-.9.3-1.1s.6-.3 1.1-.3h5.7c.6 0 .9.1 1.1.3s.3.6.3 1.1v14.5l12.1-14.5c.5-.6.9-1 1.1-1.2s.5-.2.9-.2h7.1c1.2 0 1.4.5.6 1.4l-13.8 16 14.1 17.6c.8.9.6 1.4-.6 1.4h-7c-.5 0-.8-.1-1-.3s-.6-.6-1-1.1l-12.5-15.9v15.9c0 .6-.1.9-.3 1.1s-.6.3-1.1.3h-5.7c-.6 0-.9-.1-1.1-.3-.3-.2-.3-.6-.3-1.1z"/><path d="m148.3 31.8 2.1-3.5c.3-.7.7-1 1.1-1 .2 0 .5.1.8.3 3 1.8 6.3 2.8 10 2.8 4 0 6-1.2 6-3.5 0-1.4-.6-2.4-1.7-3s-3.2-1-6.2-1.4c-8-.9-12-4.4-12-10.5 0-2.8 1-5.4 3-7.8 1.1-1.2 2.5-2.2 4.4-3 1.9-.7 4-1.1 6.3-1.1 2.5 0 4.7.3 6.6.9 1.8.6 3.9 1.6 6.2 3 .8.5.9 1.1.3 2l-2.1 3.5c-.3.7-.7 1-1.1 1-.2 0-.5-.1-.8-.3-1.6-1.1-3.1-1.8-4.3-2.2s-2.7-.6-4.3-.6c-2.3 0-3.8.3-4.7 1s-1.3 1.8-1.3 3.2c0 1.2.5 2.1 1.5 2.5 1 .5 3 .9 5.9 1.2 3.6.5 6.4 1.3 8.4 2.6 2.7 1.6 4.1 4.4 4.1 8.4 0 3.1-1.2 5.8-3.7 8s-5.8 3.3-10 3.3c-5.7 0-10.5-1.3-14.2-3.9-.8-.4-.9-1.1-.3-1.9z"/></svg>