<?xml version="1.0" encoding="utf-8"?>
<svg xmlns="http://www.w3.org/2000/svg" fill="none" height="20" viewBox="0 0 20 20" width="20">
<g clip-path="url(#clip0_752_982)">
<path d="M7.69533 9.02349H1.94926C1.2007 9.02349 0.594727 8.41752 0.594727 7.66896V1.92289C0.594727 1.17433 1.2007 0.568359 1.94926 0.568359H7.69533C8.44388 0.568359 9.04986 1.17433 9.04986 1.92289V7.66896C9.05342 8.41752 8.44388 9.02349 7.69533 9.02349Z" fill="url(#paint0_linear_752_982)" fill-opacity="0.6" opacity="0.6"/>
<path d="M18.0498 9.02349H12.3038C11.5552 9.02349 10.9492 8.41752 10.9492 7.66896V1.92289C10.9492 1.17433 11.5552 0.568359 12.3038 0.568359H18.0498C18.7984 0.568359 19.4044 1.17433 19.4044 1.92289V7.66896C19.4079 8.41752 18.7984 9.02349 18.0498 9.02349Z" fill="url(#paint1_linear_752_982)" fill-opacity="0.6" opacity="0.6"/>
<path d="M7.69533 19.4317H1.94926C1.2007 19.4317 0.594727 18.8257 0.594727 18.0772V12.3311C0.594727 11.5825 1.2007 10.9766 1.94926 10.9766H7.69533C8.44388 10.9766 9.04986 11.5825 9.04986 12.3311V18.0772C9.05342 18.8257 8.44388 19.4317 7.69533 19.4317Z" fill="url(#paint2_linear_752_982)" fill-opacity="0.6" opacity="0.6"/>
<path d="M18.0498 19.4317H12.3038C11.5552 19.4317 10.9492 18.8257 10.9492 18.0772V12.3311C10.9492 11.5825 11.5552 10.9766 12.3038 10.9766H18.0498C18.7984 10.9766 19.4044 11.5825 19.4044 12.3311V18.0772C19.4079 18.8257 18.7984 19.4317 18.0498 19.4317Z" fill="url(#paint3_linear_752_982)" fill-opacity="0.6" opacity="0.6"/>
<path d="M3.78983 7.97242C4.4814 7.88328 4.96978 7.2504 4.88065 6.55882C4.79151 5.86724 4.15862 5.37887 3.46704 5.468C2.77547 5.55714 2.2871 6.19003 2.37623 6.8816C2.46537 7.57318 3.09825 8.06155 3.78983 7.97242Z" fill="#FB8BA1"/>
<path d="M6.78242 6.57258C7.61439 6.46536 8.20191 5.70398 8.09468 4.87201C7.98745 4.04004 7.22608 3.45252 6.39411 3.55975C5.56214 3.66698 4.97462 4.42835 5.08185 5.26032C5.18908 6.09229 5.95045 6.67981 6.78242 6.57258Z" fill="#FB8BA1"/>
<path clip-rule="evenodd" d="M2.68855 3.30366C2.66661 3.77041 2.71249 4.29172 2.81818 4.8027C2.9682 5.52796 3.23035 6.19208 3.54984 6.6247L2.99871 7.03171C2.60028 6.4922 2.30913 5.72407 2.14726 4.94148C1.98863 4.17461 1.94614 3.35527 2.07031 2.67064L2.06643 2.6212C2.05475 2.47219 2.11558 2.28308 2.29933 2.19289C2.50614 2.09138 2.71625 2.18786 2.818 2.33923L2.81912 2.34091C3.57174 3.47492 4.61255 4.14956 5.66719 4.24433L5.60587 4.92671C4.51164 4.82838 3.48586 4.23501 2.68855 3.30366Z" fill="#FB8BA1" fill-rule="evenodd"/>
<path d="M16.5385 3.76077C16.531 3.76077 16.5197 3.76077 16.5121 3.76077C16.5914 3.58326 16.633 3.38687 16.633 3.17915C16.633 2.37848 15.9834 1.7251 15.1789 1.7251C14.3782 1.7251 13.7249 2.3747 13.7249 3.17915C13.7249 3.38687 13.7702 3.58326 13.8457 3.76077C13.8382 3.76077 13.8268 3.76077 13.8193 3.76077C13.0186 3.76077 12.3652 4.41037 12.3652 5.21481C12.3652 6.01548 13.0148 6.66886 13.8193 6.66886C14.2309 6.66886 14.6011 6.49891 14.8654 6.22321V6.86903C14.8654 7.21271 14.6162 7.50352 14.2876 7.56017C14.2158 7.57528 14.1592 7.63571 14.1592 7.71124C14.1592 7.79433 14.2272 7.86609 14.314 7.86609H15.1638H15.1902H16.04C16.1231 7.86609 16.1949 7.79811 16.1949 7.71124C16.1949 7.63571 16.142 7.57528 16.0664 7.56017C15.7379 7.49975 15.4886 7.21271 15.4886 6.86903V6.21943C15.753 6.49513 16.1231 6.66508 16.5348 6.66508C17.3354 6.66508 17.9888 6.01548 17.9888 5.21104C17.9926 4.41037 17.3392 3.76077 16.5385 3.76077ZM15.2091 4.63319C15.1978 4.65585 15.1902 4.67852 15.1827 4.70118C15.1751 4.67852 15.1676 4.65585 15.1563 4.63319C15.1638 4.63319 15.1751 4.63319 15.1827 4.63319C15.1902 4.63319 15.1978 4.63319 15.2091 4.63319Z" fill="#ABAAFF"/>
<path clip-rule="evenodd" d="M5.67453 16.4083C5.6787 16.671 5.4994 16.8628 5.19501 16.9545C5.19501 16.9545 5.0574 16.9962 4.86976 17.0212C4.68212 17.0379 4.52784 17.0045 4.52784 17.0045C4.28182 16.967 4.11086 16.8628 4.02329 16.6918C3.92739 16.5042 3.72307 16.3916 3.50624 16.3958C3.04756 16.4041 2.78069 16.917 3.03922 17.2923C3.33527 17.7218 3.86067 17.9886 4.54035 18.0345L4.54452 18.2888C4.54869 18.4765 4.6988 18.6224 4.88644 18.6224C5.07408 18.6224 5.22003 18.4682 5.22003 18.2805L5.21586 18.0053C6.21244 17.851 6.84208 17.2047 6.82123 16.2832C6.80872 15.4576 6.36672 15.0197 5.37014 14.8279L5.16165 14.7862L4.48614 14.6611C4.12337 14.5736 3.97325 14.3901 3.96908 14.0773C3.96908 13.7771 4.14839 13.5686 4.46529 13.4936C4.46529 13.4936 4.6154 13.4519 4.80721 13.456C4.99903 13.4602 5.13663 13.5019 5.13663 13.5019C5.29925 13.5561 5.41601 13.652 5.48272 13.7896C5.57863 13.9814 5.78295 14.0899 5.99561 14.0857C6.4251 14.0773 6.69197 13.6103 6.47514 13.235C6.21661 12.793 5.74542 12.5178 5.11578 12.4511L5.11161 12.1801C5.10744 11.9966 4.95733 11.8465 4.76969 11.8507C4.58204 11.8507 4.4361 12.005 4.4361 12.1926L4.44027 12.4595C3.4562 12.5929 2.7932 13.2476 2.80988 14.1357C2.82239 15.003 3.31442 15.5243 4.2985 15.7077L4.49448 15.7411L5.16999 15.8662C5.4994 15.9204 5.67036 16.0955 5.67453 16.4083Z" fill="#80D474" fill-rule="evenodd"/>
<path d="M16.5073 17.8959C17.1089 17.8959 17.5966 17.4082 17.5966 16.8066C17.5966 16.205 17.1089 15.7173 16.5073 15.7173C15.9057 15.7173 15.418 16.205 15.418 16.8066C15.418 17.4082 15.9057 17.8959 16.5073 17.8959Z" fill="#FFD583"/>
<path d="M13.6714 14.6913C14.273 14.6913 14.7607 14.2036 14.7607 13.602C14.7607 13.0004 14.273 12.5127 13.6714 12.5127C13.0697 12.5127 12.582 13.0004 12.582 13.602C12.582 14.2036 13.0697 14.6913 13.6714 14.6913Z" fill="#FFD583"/>
</g>
<defs>
<linearGradient gradientUnits="userSpaceOnUse" id="paint0_linear_752_982" x1="9.05259" x2="3.48809" y1="11.9965" y2="7.42908">
<stop stop-color="#FDE0F1"/>
<stop offset="0.320987" stop-color="#FDE0F1"/>
<stop offset="0.770645" stop-color="#EEB8D6"/>
<stop offset="1" stop-color="#E6A3C8"/>
</linearGradient>
<linearGradient gradientUnits="userSpaceOnUse" id="paint1_linear_752_982" x1="10.9491" x2="19.4066" y1="4.79557" y2="4.79557">
<stop offset="0.0926412" stop-color="#CBC9FF"/>
<stop offset="0.7304" stop-color="#ABAAFF"/>
</linearGradient>
<linearGradient gradientUnits="userSpaceOnUse" id="paint2_linear_752_982" x1="-4.32014" x2="13.7415" y1="6.33387" y2="24.1419">
<stop stop-color="#C9ECC4"/>
<stop offset="0.997776" stop-color="#A6E09E"/>
</linearGradient>
<linearGradient gradientUnits="userSpaceOnUse" id="paint3_linear_752_982" x1="10.9491" x2="19.4066" y1="15.2045" y2="15.2045">
<stop offset="0.0558355" stop-color="#FBE0B6"/>
<stop offset="1" stop-color="#F9CC87"/>
</linearGradient>
<clipPath id="clip0_752_982">
<rect fill="white" height="20" width="20"/>
</clipPath>
</defs>
</svg>