<?xml version="1.0" encoding="UTF-8"?>
<svg xmlns="http://www.w3.org/2000/svg" width="334" height="124" viewBox="0 0 334 124" fill="none">
  <path d="M68.9236 58.5373C65.2466 58.443 62.6068 55.1432 62.8896 51.2777C63.1725 47.4122 66.2837 44.2067 69.8664 44.1124C74.6747 44.0181 76.1832 47.7893 80.5201 47.7893C84.9513 47.7893 87.1197 44.0181 92.3994 44.1124C92.4937 44.1124 92.588 44.1124 92.6823 44.1124C96.8306 44.2067 100.13 47.695 100.036 51.8434C99.8476 56.086 96.2649 59.3859 92.0223 59.2916C91.928 59.2916 91.8338 59.2916 91.7395 59.2916C86.3655 59.103 84.5742 55.0489 80.143 54.9547C75.8061 54.7661 73.7319 58.6316 68.9236 58.5373ZM50.8217 122.648C53.8387 123.025 56.1014 122.365 55.9128 121.045C55.7243 119.443 52.8016 117.84 49.4075 117.463C46.1077 117.086 43.9392 118.123 44.5049 119.631C45.0706 120.857 47.899 122.177 50.8217 122.648ZM35.1711 118.594C37.6224 119.537 39.0366 119.443 38.2824 118.217C37.5281 116.708 34.6054 114.729 31.8713 113.88C29.3257 113.032 28.1001 113.409 29.2314 114.823C30.2685 115.954 32.9084 117.557 35.1711 118.594ZM48.8418 114.257C52.3302 114.54 55.0643 112.749 54.97 110.109C54.7815 107.28 51.5759 104.641 47.8047 104.452C44.1278 104.169 41.4879 106.243 41.865 109.072C42.3364 111.617 45.4477 113.88 48.8418 114.257ZM46.5791 80.4104C50.6331 80.5047 54.0272 77.2049 53.933 73.0565C53.933 68.8139 50.4446 65.4198 46.2962 65.3255C42.2422 65.3255 39.0366 68.6254 39.0366 72.7737C39.2252 76.922 42.525 80.3161 46.5791 80.4104ZM8.30115 59.4801C10.5639 59.4801 12.6381 56.3689 12.8266 52.6919C13.1095 49.1093 11.3181 46.5637 9.14968 46.9408C7.16979 47.3179 5.47274 50.3349 5.1899 53.5405C4.90705 56.9346 6.32126 59.5744 8.30115 59.4801ZM25.4602 39.3984C28.8543 39.0213 31.9656 35.8157 32.2484 32.233C32.6255 28.7447 30.2685 26.4819 27.063 27.0476C24.046 27.6133 21.2176 30.6303 20.6519 33.9301C20.1805 37.2299 22.2547 39.7755 25.4602 39.3984ZM69.9607 19.4109C73.8262 19.5994 76.6546 17.3367 76.3717 14.5083C76.0889 11.8684 72.9776 9.69998 69.4893 9.51142C65.9066 9.41714 62.9839 11.3028 62.9839 13.9426C62.9839 16.8653 66.0952 19.3166 69.9607 19.4109ZM24.4231 65.137C20.2748 65.0427 18.8606 68.7196 15.655 68.5311C12.7323 68.4368 11.4124 64.9484 8.48972 64.8541C8.39544 64.8541 8.39543 64.8541 8.30115 64.8541C6.32126 64.7599 4.90706 67.494 5.09562 70.7938C5.37846 74.0936 7.07551 77.0163 9.0554 77.3934C9.14968 77.3934 9.14968 77.3934 9.24396 77.3934C12.1667 77.8648 13.0152 74.7536 15.9379 75.0364C19.1434 75.3193 20.8405 78.9019 24.8945 79.2791C28.2886 79.5619 31.0228 76.5449 30.9285 72.5851C30.9285 68.5311 27.9115 65.2312 24.4231 65.137ZM30.5514 13.3769C27.1573 14.414 24.9888 16.9596 22.349 17.9024C19.8977 18.9395 19.8977 17.6196 17.5407 19.128C17.5407 19.128 17.4464 19.128 17.4464 19.2223C15.9379 20.448 13.7694 22.8993 12.5438 24.7849C11.4124 26.9533 11.7895 27.9904 13.5809 27.0476C13.6752 27.0476 13.6751 26.9533 13.6751 26.9533C16.315 25.822 18.2006 22.8993 20.7462 21.9565C23.4803 21.1079 24.1403 23.2764 27.9115 22.4279C31.0228 21.8622 34.134 19.0338 34.6997 16.2996C35.3597 13.8483 33.4741 12.6227 30.5514 13.3769ZM28.0058 101.906C24.2346 101.058 23.5746 103.226 20.8405 102.378C18.2949 101.435 16.315 98.5123 13.7694 97.3809C13.7694 97.3809 13.6751 97.3809 13.6751 97.2866C11.9781 96.3438 11.5067 97.3809 12.6381 99.5494C13.8637 101.435 15.9379 103.981 17.5407 105.112C17.6349 105.112 17.6349 105.206 17.6349 105.206C19.9919 106.715 19.9919 105.301 22.4432 106.432C25.0831 107.375 27.2516 109.92 30.6457 110.957C33.4741 111.712 35.454 110.392 34.8883 107.94C34.2283 105.3 31.1171 102.566 28.0058 101.906ZM0.664432 72.7737C0.947274 73.8108 1.2301 74.6593 1.41867 74.8479C2.07863 75.3193 2.55004 73.2451 2.17291 70.2281C1.98435 67.1169 1.04155 64.477 0.381587 64.3827C-0.0898157 64.2885 -0.0898129 66.4569 0.193029 69.191C0.287309 70.3224 0.475871 71.548 0.664432 72.7737ZM49.4075 6.87157C52.8016 6.58873 55.7243 4.89168 55.9128 3.28891C56.1014 1.96898 53.8387 1.30902 50.8217 1.68614C47.899 2.15754 45.0706 3.47747 44.5049 4.70312C43.9392 6.21161 46.1077 7.2487 49.4075 6.87157Z" fill="#EA5504"></path>
  <path d="M68.4521 123.308C65.3409 123.497 62.8896 122.648 62.8896 121.328C62.8896 119.725 65.718 118.217 69.1121 118.123C72.6005 117.934 75.0518 119.065 74.6747 120.668C74.2975 121.894 71.5634 123.025 68.4521 123.308ZM88.911 112.466C91.928 111.806 94.8507 109.355 95.6049 106.998C96.2649 104.358 94.285 102.566 90.9852 103.132C87.5911 103.603 84.3856 106.338 84.0084 109.072C83.4428 111.617 85.7055 113.032 88.911 112.466ZM27.063 97.2866C30.2685 97.8523 32.6255 95.4953 32.2484 92.1012C31.8713 88.5185 28.76 85.313 25.4602 84.9359C22.2547 84.5588 20.1805 87.1043 20.6519 90.4042C21.2176 93.704 24.046 96.721 27.063 97.2866ZM93.9079 65.3255C89.0996 65.3255 87.1197 69.2853 82.7828 69.3796C78.3516 69.4739 76.3717 65.4198 70.9977 65.5141C70.9034 65.5141 70.8092 65.5141 70.7149 65.5141C66.4722 65.5141 62.9839 69.0025 62.9839 73.2451C62.9839 77.3934 66.378 80.7875 70.5263 80.6933C70.6206 80.6933 70.7149 80.6933 70.8092 80.6933C76.0889 80.599 78.163 76.7335 82.5942 76.5449C86.9311 76.4506 88.6282 80.1276 93.3422 79.8447C96.9249 79.6562 99.8476 76.3564 100.036 72.3966C100.319 68.4368 97.4906 65.2312 93.9079 65.3255ZM90.9852 21.2965C94.285 21.8622 96.2649 20.0708 95.6049 17.431C94.8507 14.9797 91.928 12.6227 88.911 11.9627C85.7998 11.397 83.537 12.8112 84.0084 15.3568C84.3856 18.091 87.5911 20.8251 90.9852 21.2965ZM70.0549 24.4077C65.058 24.3135 63.0781 27.6133 58.7412 27.6133C54.4043 27.7076 52.613 24.502 47.6161 24.6906H47.5219C43.7506 24.9734 40.4508 27.9904 40.168 31.4788C39.8851 35.1557 42.9021 38.0784 46.8619 37.8899H46.9562C52.1416 37.7013 54.1215 34.0244 58.647 33.9301C63.1724 33.9301 65.1523 37.607 70.432 37.607C70.5263 37.607 70.5263 37.607 70.6206 37.607C74.6747 37.7013 77.8802 34.6843 77.6916 30.9131C77.5031 27.3304 74.2033 24.4077 70.2435 24.2192C70.1492 24.4077 70.0549 24.4077 70.0549 24.4077ZM46.579 43.9238C41.4879 44.1124 39.4137 47.9779 35.2654 48.1664C31.2113 48.355 29.7028 44.6781 25.2716 45.0552C25.1774 45.0552 25.0831 45.0552 24.9888 45.0552C21.7833 45.338 19.0491 48.6378 18.7663 52.3148C18.5777 56.1803 21.1233 59.1973 24.4231 59.1973C24.5174 59.1973 24.6117 59.1973 24.6117 59.1973C29.0429 59.103 30.9285 55.2375 34.9825 55.2375C39.2252 55.1432 41.1108 59.103 46.2962 59.0087C50.4445 59.0087 53.8386 55.5204 53.9329 51.2777C54.0272 47.1294 50.7274 43.8295 46.579 43.9238ZM70.5263 86.6329C65.2466 86.7272 63.2667 90.4042 58.7412 90.3099C54.2158 90.2156 52.2359 86.5386 47.0505 86.3501C46.9562 86.3501 46.8619 86.3501 46.7676 86.3501C42.8078 86.1615 39.7908 89.0842 40.0737 92.7612C40.3565 96.2496 43.6563 99.2665 47.4276 99.5494C47.5218 99.5494 47.6161 99.5494 47.7104 99.5494C52.613 99.7379 54.4043 96.5324 58.8355 96.6267C63.2667 96.6267 65.1523 99.9265 70.1492 99.8322C74.0147 99.7379 77.4088 96.721 77.5974 93.1383C77.7859 89.5556 74.5804 86.5387 70.5263 86.6329ZM2.07862 45.0552C1.98434 45.5266 1.98434 45.5266 2.26718 45.338C2.26718 45.338 2.26718 45.338 2.26718 45.2437C3.20998 44.4895 4.24707 41.4725 5.567 40.7183C7.16977 39.964 7.35833 42.6039 9.80962 41.8497C11.9781 41.3782 14.3351 38.267 14.9008 35.0615C15.5607 31.9502 14.3351 30.1589 12.2609 31.0074C9.99818 32.0445 8.39541 35.0615 6.88692 36.0043C5.66127 36.9471 6.13268 35.0615 5.28415 36.2871C4.05851 39.1155 2.92715 42.0382 2.07862 45.0552ZM5.28415 88.0472C6.13268 89.3671 5.66127 87.3872 6.88692 88.33C8.39541 89.2728 9.99818 92.1955 12.2609 93.3268C14.3351 94.1754 15.5607 92.2898 14.9008 89.2728C14.3351 86.0673 11.9781 82.956 9.80962 82.4846C7.35833 81.8246 7.16977 84.3702 5.567 83.616C4.24707 82.8617 3.20998 79.8447 2.26718 79.0905C2.26718 78.9962 2.26718 78.9962 2.26718 78.9962C2.07862 78.7134 1.98434 78.8076 2.07862 79.279C2.92715 82.296 4.05851 85.2187 5.28415 88.0472ZM69.1121 6.30587C72.5062 6.49443 75.0518 5.36307 74.6747 3.7603C74.2975 2.44037 71.5634 1.309 68.4521 1.02615C65.3409 0.837593 62.8896 1.68612 62.8896 3.00605C62.8896 4.7031 65.718 6.21159 69.1121 6.30587ZM31.8713 10.4542C34.6054 9.60569 37.6224 7.6258 38.2824 6.11731C39.0366 4.89167 37.6224 4.79738 35.1711 5.74018C32.9084 6.77727 30.2685 8.38005 29.1371 9.41714C28.1001 10.8313 29.2314 11.3027 31.8713 10.4542Z" fill="#95D600"></path>
  <path d="M109 116L109 0" stroke="#EA5504" stroke-width="0.9867"></path>
  <path d="M120 101.966H121.616V104.069H120V101.966ZM120 105.808H121.616V115.754H120V105.808ZM133.711 109.325C133.711 107.344 132.326 106.657 130.295 106.657C127.109 106.657 125.678 108.072 125.678 110.336V115.714H124.062V105.767H125.678V107.708H125.724C126.186 106.657 127.894 105.444 130.433 105.444C134.218 105.444 135.373 107.182 135.373 109.528V115.674H133.757V109.325H133.711ZM138.927 102.654H140.543V105.808H143.774V106.899H140.543V113.49C140.543 114.339 140.866 114.744 142.159 114.744C142.943 114.744 143.451 114.703 143.774 114.622V115.795C143.174 115.876 142.528 115.916 142.02 115.916C139.527 115.916 138.973 115.067 138.973 113.45V106.899H136.48V105.808H138.973V102.654H138.927ZM157.439 112.56C156.793 114.339 155.085 116.037 151.299 116.037C146.637 116.037 145.113 113.167 145.113 110.741C145.113 107.951 147.052 105.444 151.299 105.444C154.207 105.444 157.716 106.535 157.716 111.064H146.775C146.775 113.126 148.437 114.824 151.345 114.824C154.069 114.824 155.269 114.056 155.869 112.52H157.439V112.56ZM156.1 110.053C155.638 107.587 153.607 106.697 151.438 106.697C149.36 106.697 147.144 107.627 146.775 110.053H156.1ZM170.226 105.808H171.842V115.391C171.842 119.07 168.472 120 165.471 120C160.301 120 159.793 117.857 159.655 116.765H161.132C161.363 117.857 161.686 118.949 165.518 118.949C168.472 118.949 170.226 117.736 170.226 115.35V113.571H170.18C169.58 114.582 168.103 115.835 165.148 115.835C162.286 115.835 159.101 114.541 159.101 110.66C159.101 108.032 161.04 105.606 165.287 105.606C167.503 105.606 169.395 106.333 170.134 107.829H170.18V105.808H170.226ZM165.425 106.657C162.563 106.657 160.763 108.072 160.763 110.538C160.763 113.45 162.84 114.541 165.564 114.541C168.241 114.541 170.272 113.086 170.272 110.538C170.272 108.476 168.611 106.657 165.425 106.657ZM174.289 105.808H175.904V108.072H175.951C176.551 106.899 177.612 105.484 180.29 105.484C180.752 105.484 181.029 105.525 181.259 105.565V107.021C180.752 106.94 180.29 106.899 179.782 106.899C178.028 106.899 175.904 107.829 175.904 110.66V115.714H174.289V105.808ZM182.321 101.966H183.937V104.069H182.321V101.966ZM182.321 105.808H183.937V115.754H182.321V105.808ZM187.492 102.654H189.107V105.808H192.339V106.899H189.107V113.49C189.107 114.339 189.43 114.744 190.723 114.744C191.508 114.744 192.016 114.703 192.339 114.622V115.795C191.739 115.876 191.092 115.916 190.585 115.916C188.092 115.916 187.538 115.067 187.538 113.45V106.899H185.091V105.808H187.538V102.654H187.492ZM203.372 105.808H205.126L198.94 117.614C198.109 119.191 197.417 119.636 195.616 119.636C195.109 119.636 194.555 119.636 194.047 119.596V118.383C194.416 118.383 194.785 118.423 195.201 118.423C196.355 118.423 196.909 118.18 197.463 117.21L198.202 115.835L192.662 105.808H194.416L199.033 114.097L203.372 105.808ZM212.235 108.84C212.466 106.738 213.759 105.484 217.637 105.484C221.422 105.484 222.853 106.535 222.853 108.436V113.652C222.853 114.461 223.13 114.744 223.73 114.744C224.007 114.744 224.284 114.744 224.561 114.703V115.674C224.238 115.714 223.73 115.835 223.222 115.835C221.56 115.835 221.514 114.865 221.468 114.056H221.422C220.914 114.703 219.806 116.037 216.113 116.037C214.174 116.037 211.681 115.31 211.681 113.045C211.681 110.336 214.867 110.053 217.36 109.932C220.914 109.77 221.33 109.568 221.33 108.598C221.33 107.142 220.222 106.657 217.59 106.657C215.051 106.657 213.805 107.263 213.713 108.84H212.235ZM221.376 110.377C220.637 110.781 219.575 110.862 216.344 111.105C214.451 111.266 213.389 111.751 213.389 112.924C213.389 114.461 214.913 114.946 216.667 114.946C218.837 114.946 221.422 113.894 221.422 111.873V110.377H221.376ZM234.163 108.719C233.748 107.102 232.594 106.657 230.239 106.657C228.531 106.657 226.962 106.98 226.962 108.355C226.962 109.406 227.746 109.608 231.163 110.013C234.625 110.417 236.102 110.943 236.102 112.884C236.102 114.865 234.256 116.037 230.701 116.037C227.1 116.037 224.93 114.986 224.93 112.601H226.408C226.685 114.258 227.746 114.824 230.655 114.824C232.917 114.824 234.44 114.42 234.44 112.924C234.44 111.913 233.609 111.468 230.101 111.185C226.546 110.862 225.3 110.134 225.3 108.395C225.3 106.657 226.915 105.444 230.193 105.444C233.886 105.444 235.41 106.616 235.594 108.678H234.163V108.719ZM246.304 108.719C245.889 107.102 244.735 106.657 242.38 106.657C240.672 106.657 239.103 106.98 239.103 108.355C239.103 109.406 239.888 109.608 243.304 110.013C246.766 110.417 248.243 110.943 248.243 112.884C248.243 114.865 246.397 116.037 242.842 116.037C239.241 116.037 237.072 114.986 237.072 112.601H238.549C238.826 114.258 239.888 114.824 242.796 114.824C245.058 114.824 246.581 114.42 246.581 112.924C246.581 111.913 245.75 111.468 242.242 111.185C238.687 110.862 237.441 110.134 237.441 108.395C237.441 106.657 239.057 105.444 242.334 105.444C246.027 105.444 247.551 106.616 247.735 108.678H246.304V108.719ZM256.045 105.484C260.43 105.484 262.508 107.991 262.508 110.781C262.508 113.571 260.43 116.078 256.045 116.078C251.659 116.078 249.582 113.571 249.582 110.781C249.582 107.991 251.659 105.484 256.045 105.484ZM256.045 114.865C259.092 114.865 260.892 113.167 260.892 110.781C260.892 108.395 259.138 106.697 256.045 106.697C252.952 106.697 251.198 108.395 251.198 110.781C251.244 113.167 252.998 114.865 256.045 114.865ZM276.172 112.196C275.849 113.49 274.557 116.078 270.402 116.078C266.293 116.078 263.985 113.935 263.985 110.781C263.985 107.789 266.062 105.484 270.402 105.484C274.28 105.484 275.803 107.627 276.08 109.042H274.464C273.956 107.344 272.433 106.657 270.402 106.657C267.124 106.657 265.601 108.436 265.601 110.741C265.601 113.207 267.309 114.824 270.402 114.824C272.802 114.824 274.095 113.692 274.51 112.156H276.172V112.196ZM277.927 101.966H279.542V104.069H277.927V101.966ZM277.927 105.808H279.542V115.754H277.927V105.808ZM281.897 108.84C282.127 106.738 283.42 105.484 287.298 105.484C291.083 105.484 292.514 106.535 292.514 108.436V113.652C292.514 114.461 292.791 114.744 293.391 114.744C293.668 114.744 293.945 114.744 294.222 114.703V115.674C293.899 115.714 293.391 115.835 292.884 115.835C291.222 115.835 291.176 114.865 291.129 114.056H291.083C290.575 114.703 289.468 116.037 285.774 116.037C283.836 116.037 281.343 115.31 281.343 113.045C281.343 110.336 284.528 110.053 287.021 109.932C290.575 109.77 290.991 109.568 290.991 108.598C290.991 107.142 289.883 106.657 287.252 106.657C284.713 106.657 283.466 107.263 283.374 108.84H281.897ZM291.037 110.377C290.298 110.781 289.237 110.862 286.005 111.105C284.113 111.266 283.051 111.751 283.051 112.924C283.051 114.461 284.574 114.946 286.328 114.946C288.498 114.946 291.083 113.894 291.083 111.873V110.377H291.037ZM296.438 102.654H298.054V105.808H301.285V106.899H298.054V113.49C298.054 114.339 298.377 114.744 299.67 114.744C300.454 114.744 300.962 114.703 301.285 114.622V115.795C300.685 115.876 300.039 115.916 299.531 115.916C297.038 115.916 296.484 115.067 296.484 113.45V106.899H294.038V105.808H296.484V102.654H296.438ZM302.993 101.966H304.609V104.069H302.993V101.966ZM302.993 105.808H304.609V115.754H302.993V105.808ZM313.103 105.484C317.489 105.484 319.566 107.991 319.566 110.781C319.566 113.571 317.489 116.078 313.103 116.078C308.718 116.078 306.64 113.571 306.64 110.781C306.687 107.991 308.764 105.484 313.103 105.484ZM313.103 114.865C316.15 114.865 317.951 113.167 317.951 110.781C317.951 108.395 316.196 106.697 313.103 106.697C310.01 106.697 308.256 108.395 308.256 110.781C308.302 113.167 310.057 114.865 313.103 114.865ZM331.338 109.325C331.338 107.344 329.953 106.657 327.922 106.657C324.737 106.657 323.306 108.072 323.306 110.336V115.714H321.69V105.767H323.306V107.708H323.352C323.813 106.657 325.521 105.444 328.06 105.444C331.846 105.444 333 107.182 333 109.528V115.674H331.384V109.325H331.338Z" fill="#3E3A39"></path>
  <path d="M120 84H121.616V86.1026H120V84ZM120 87.8008H121.616V97.7475H120V87.8008ZM133.711 91.359C133.711 89.3777 132.326 88.6903 130.295 88.6903C127.109 88.6903 125.678 90.1055 125.678 92.3698V97.7475H124.062V87.8008H125.678V89.7416H125.724C126.186 88.6903 127.894 87.4773 130.433 87.4773C134.218 87.4773 135.373 89.216 135.373 91.5611V97.7071H133.757V91.359H133.711ZM138.927 84.6874H140.543V87.8412H143.774V88.9329H140.543V95.4832C140.543 96.3323 140.866 96.7367 142.159 96.7367C142.943 96.7367 143.451 96.6962 143.774 96.6154V97.788C143.174 97.8688 142.528 97.9093 142.02 97.9093C139.527 97.9093 138.973 97.0602 138.973 95.4428V88.8925H136.48V87.8008H138.973V84.6874H138.927ZM157.439 94.5937C156.793 96.3728 155.085 98.071 151.299 98.071C146.637 98.071 145.113 95.2002 145.113 92.7742C145.113 89.9842 147.052 87.4773 151.299 87.4773C154.207 87.4773 157.716 88.569 157.716 93.0976H146.775C146.775 95.1598 148.437 96.858 151.345 96.858C154.069 96.858 155.269 96.0897 155.869 94.5533H157.439V94.5937ZM156.1 92.0463C155.638 89.5799 153.607 88.6903 151.438 88.6903C149.36 88.6903 147.144 89.6203 146.775 92.0463H156.1ZM159.701 87.8008H161.317V90.0651H161.363C161.963 88.8925 163.025 87.4773 165.702 87.4773C166.164 87.4773 166.441 87.5177 166.672 87.5582V89.0138C166.164 88.9329 165.702 88.8925 165.194 88.8925C163.44 88.8925 161.317 89.8225 161.317 92.6529V97.7071H159.701V87.8008ZM177.474 91.359C177.474 89.3777 176.089 88.6903 174.058 88.6903C170.873 88.6903 169.441 90.1055 169.441 92.3698V97.7475H167.826V87.8008H169.441V89.7416H169.488C169.949 88.6903 171.657 87.4773 174.196 87.4773C177.982 87.4773 179.136 89.216 179.136 91.5611V97.7071H177.52V91.359H177.474ZM181.49 90.8738C181.721 88.7712 183.014 87.5178 186.891 87.5178C190.677 87.5178 192.108 88.569 192.108 90.4694V95.6854C192.108 96.4941 192.385 96.7771 192.985 96.7771C193.262 96.7771 193.539 96.7771 193.816 96.7367V97.7071C193.493 97.7475 192.985 97.8688 192.477 97.8688C190.815 97.8688 190.769 96.8984 190.723 96.0897H190.677C190.169 96.7367 189.061 98.071 185.368 98.071C183.429 98.071 180.936 97.3432 180.936 95.0789C180.936 92.3698 184.122 92.0868 186.614 91.9655C190.169 91.8037 190.585 91.6016 190.585 90.6312C190.585 89.1755 189.477 88.6903 186.845 88.6903C184.306 88.6903 183.06 89.2968 182.967 90.8738H181.49ZM190.631 92.4103C189.892 92.8146 188.83 92.8955 185.599 93.1381C183.706 93.2998 182.644 93.785 182.644 94.9576C182.644 96.4941 184.168 96.9793 185.922 96.9793C188.092 96.9793 190.677 95.928 190.677 93.9063V92.4103H190.631ZM196.032 84.6874H197.648V87.8412H200.879V88.9329H197.648V95.4832C197.648 96.3323 197.971 96.7367 199.263 96.7367C200.048 96.7367 200.556 96.6962 200.879 96.6154V97.788C200.279 97.8688 199.633 97.9093 199.125 97.9093C196.632 97.9093 196.078 97.0602 196.078 95.4428V88.8925H193.631V87.8008H196.078V84.6874H196.032ZM202.587 84H204.203V86.1026H202.587V84ZM202.587 87.8008H204.203V97.7475H202.587V87.8008ZM212.697 87.5178C217.083 87.5178 219.16 90.0247 219.16 92.8146C219.16 95.6045 217.083 98.1114 212.697 98.1114C208.311 98.1114 206.234 95.6045 206.234 92.8146C206.234 90.0247 208.311 87.5178 212.697 87.5178ZM212.697 96.8984C215.744 96.8984 217.544 95.2002 217.544 92.8146C217.544 90.429 215.79 88.7308 212.697 88.7308C209.604 88.7308 207.85 90.429 207.85 92.8146C207.85 95.1598 209.65 96.8984 212.697 96.8984ZM230.886 91.359C230.886 89.3777 229.501 88.6903 227.469 88.6903C224.284 88.6903 222.853 90.1055 222.853 92.3698V97.7475H221.237V87.8008H222.853V89.7416H222.899C223.361 88.6903 225.069 87.4773 227.608 87.4773C231.393 87.4773 232.547 89.216 232.547 91.5611V97.7071H230.932V91.359H230.886ZM234.948 90.8738C235.179 88.7712 236.471 87.5178 240.349 87.5178C244.135 87.5178 245.566 88.569 245.566 90.4694V95.6854C245.566 96.4941 245.843 96.7771 246.443 96.7771C246.72 96.7771 246.997 96.7771 247.274 96.7367V97.7071C246.951 97.7475 246.443 97.8688 245.935 97.8688C244.273 97.8688 244.227 96.8984 244.181 96.0897H244.135C243.627 96.7367 242.519 98.071 238.826 98.071C236.887 98.071 234.394 97.3432 234.394 95.0789C234.394 92.3698 237.579 92.0868 240.072 91.9655C243.627 91.8037 244.042 91.6016 244.042 90.6312C244.042 89.1755 242.934 88.6903 240.303 88.6903C237.764 88.6903 236.518 89.2968 236.425 90.8738H234.948ZM244.088 92.4103C243.35 92.8146 242.288 92.8955 239.057 93.1381C237.164 93.2998 236.102 93.785 236.102 94.9576C236.102 96.4941 237.625 96.9793 239.38 96.9793C241.549 96.9793 244.135 95.928 244.135 93.9063V92.4103H244.088ZM248.336 84H249.951V97.788H248.336V84ZM258.492 84H260.107V89.8225H260.153C260.892 88.569 262.6 87.5178 264.77 87.5178C269.017 87.5178 270.956 90.0247 270.956 92.8146C270.956 95.2406 269.432 98.1114 264.77 98.1114C262 98.1114 260.569 96.6558 260.153 95.8067H260.107V97.788H258.492V84ZM264.77 96.8984C268.047 96.8984 269.34 94.7959 269.34 92.8146C269.34 90.3077 267.309 88.7308 264.77 88.7308C261.492 88.7308 260.015 90.7929 260.015 92.8146C260.015 95.4024 262.092 96.8984 264.77 96.8984ZM284.99 94.5937C284.343 96.3728 282.635 98.071 278.85 98.071C274.187 98.071 272.664 95.2002 272.664 92.7742C272.664 89.9842 274.603 87.4773 278.85 87.4773C281.758 87.4773 285.267 88.569 285.267 93.0976H274.28C274.28 95.1598 275.941 96.858 278.85 96.858C281.573 96.858 282.774 96.0897 283.374 94.5533H284.99V94.5937ZM283.651 92.0463C283.189 89.5799 281.158 88.6903 278.988 88.6903C276.911 88.6903 274.695 89.6203 274.326 92.0463H283.651ZM288.313 84.6874H289.929V87.8412H293.161V88.9329H289.929V95.4832C289.929 96.3323 290.252 96.7367 291.545 96.7367C292.33 96.7367 292.837 96.6962 293.161 96.6154V97.788C292.56 97.8688 291.914 97.9093 291.406 97.9093C288.914 97.9093 288.36 97.0602 288.36 95.4428V88.8925H285.913V87.8008H288.36V84.6874H288.313ZM296.023 84.6874H297.638V87.8412H300.87V88.9329H297.638V95.4832C297.638 96.3323 297.962 96.7367 299.254 96.7367C300.039 96.7367 300.547 96.6962 300.87 96.6154V97.788C300.27 97.8688 299.624 97.9093 299.116 97.9093C296.623 97.9093 296.069 97.0602 296.069 95.4428V88.8925H293.622V87.8008H296.069V84.6874H296.023ZM302.578 84H304.194V86.1026H302.578V84ZM302.578 87.8008H304.194V97.7475H302.578V87.8008ZM316.289 91.359C316.289 89.3777 314.904 88.6903 312.873 88.6903C309.687 88.6903 308.256 90.1055 308.256 92.3698V97.7475H306.64V87.8008H308.256V89.7416H308.302C308.764 88.6903 310.472 87.4773 313.011 87.4773C316.796 87.4773 317.951 89.216 317.951 91.5611V97.7071H316.335V91.359H316.289ZM330.923 87.8008H332.538V97.3836C332.538 101.063 329.168 101.993 326.168 101.993C320.997 101.993 320.49 99.8501 320.351 98.7584H321.828C322.059 99.8501 322.382 100.942 326.214 100.942C329.168 100.942 330.923 99.7288 330.923 97.3432V95.5641H330.876C330.276 96.575 328.799 97.8284 325.845 97.8284C322.982 97.8284 319.797 96.5345 319.797 92.6529C319.797 90.0247 321.736 87.5986 325.983 87.5986C328.199 87.5986 330.092 88.3264 330.83 89.8225H330.876V87.8008H330.923ZM326.122 88.6903C323.259 88.6903 321.459 90.1055 321.459 92.572C321.459 95.4832 323.536 96.575 326.26 96.575C328.938 96.575 330.969 95.1193 330.969 92.572C330.969 90.4694 329.353 88.6903 326.122 88.6903Z" fill="#3E3A39"></path>
  <path d="M119.231 73.8401C119.004 73.6926 118.99 71.601 119.004 38.7109C119.004 15.9975 119.044 3.66204 119.124 3.50115C119.204 3.36707 119.458 3.21958 119.685 3.16594C119.912 3.12572 122.036 3.08549 124.414 3.08549C128.716 3.08549 128.716 3.08549 128.997 3.39388C129.291 3.70227 129.291 3.70227 129.291 38.6572C129.291 73.5988 129.291 73.5988 128.997 73.7999C128.743 73.9876 128.048 74.0144 124.08 74.0144C120.58 74.0144 119.404 73.9742 119.231 73.8401Z" fill="#EA5504"></path>
  <path d="M146.538 73.7194C146.257 73.4244 146.257 73.4245 146.257 38.6304C146.271 10.2856 146.298 3.78269 146.444 3.59498C146.538 3.4609 146.778 3.3 146.979 3.21955C147.473 3.03184 193.938 3.03184 194.847 3.21955C195.194 3.3 196.904 3.40726 198.628 3.47431C201.286 3.56816 201.887 3.6352 202.555 3.87655C202.996 4.03745 203.744 4.22516 204.212 4.2922C204.68 4.37265 205.294 4.54695 205.561 4.69444C205.829 4.82853 206.283 4.98942 206.563 5.02965C207.592 5.23077 210.999 7.16154 212.321 8.31464C213.163 9.03867 214.726 10.8354 215.341 11.7739C216.329 13.2756 217.104 15.0187 217.331 16.1584C217.411 16.6009 217.585 17.2981 217.705 17.7003C217.879 18.2903 217.919 19.0545 217.919 21.5887C217.919 24.7128 217.919 24.753 217.478 26.4022C217.224 27.3676 216.783 28.6011 216.436 29.3386C215.407 31.4436 213.11 33.9375 211.453 34.742C211.119 34.9029 210.758 35.1175 210.651 35.1979C210.545 35.2918 210.277 35.399 210.05 35.4527C209.836 35.5063 209.516 35.6404 209.342 35.7476C209.062 35.9354 209.062 35.9622 209.262 36.2706C209.369 36.4449 209.756 36.6862 210.09 36.8203C212.214 37.5846 214.793 39.2069 216.396 40.7891C218.761 43.1355 220.511 46.2998 220.938 49.0083C221.019 49.5312 221.192 50.282 221.312 50.6843C221.486 51.2742 221.526 51.9715 221.526 54.1034C221.526 56.4364 221.486 56.9191 221.246 57.7906C221.085 58.3403 220.912 59.0912 220.858 59.4666C220.685 60.6733 219.656 63.2477 218.974 64.1729C218.801 64.4008 218.667 64.6287 218.667 64.6689C218.667 64.8433 217.077 66.8545 216.343 67.6053C215.594 68.3696 213.524 69.9652 212.682 70.4344C211.466 71.0914 209.81 71.8691 209.609 71.8691C209.516 71.8691 209.262 71.963 209.048 72.0702C208.821 72.1909 208.18 72.3786 207.619 72.4859C207.044 72.6066 206.403 72.7943 206.189 72.9015C205.989 73.0088 205.201 73.1563 204.452 73.2367C203.718 73.3038 202.569 73.4915 201.901 73.6524C200.698 73.934 200.685 73.934 173.752 73.9742C146.805 74.0144 146.805 74.0144 146.538 73.7194ZM197.252 65.5539C198.2 65.4734 199.015 65.3528 199.082 65.2857C199.162 65.2187 199.683 65.165 200.244 65.165C202.622 65.165 205.975 63.5829 208.02 61.5046C209.609 59.8688 210.504 57.9247 210.772 55.4442C211.119 52.253 210.718 49.5714 209.569 47.3993C208.955 46.273 206.537 43.8059 205.695 43.4573C205.521 43.3903 205.201 43.2026 204.973 43.0551C204.76 42.8942 204.479 42.7735 204.372 42.7735C204.265 42.7735 203.878 42.626 203.504 42.4383C203.143 42.264 202.636 42.1031 202.382 42.1031C202.128 42.1031 201.527 41.9824 201.032 41.8349C200.551 41.6874 199.576 41.5131 198.881 41.4327C197.185 41.2584 157.359 41.245 156.892 41.4327C156.544 41.5668 156.544 41.5668 156.544 53.3793C156.544 64.1997 156.558 65.2321 156.772 65.46C156.972 65.688 157.76 65.7014 176.263 65.7014C189.262 65.7014 196.103 65.6477 197.252 65.5539ZM198.294 32.7844C200.458 32.4492 201.259 32.2213 202.368 31.5777C202.555 31.4705 202.916 31.2693 203.17 31.1218C203.958 30.6794 206.376 27.9843 206.376 27.5553C206.376 27.4614 206.523 27.0592 206.697 26.6703C206.897 26.2279 207.138 25.2357 207.325 24.1228C207.605 22.2859 207.605 22.2859 207.325 20.5831C207.151 19.5775 206.897 18.5853 206.71 18.1696C206.523 17.7808 206.376 17.4053 206.376 17.3249C206.376 17.097 205.094 15.5818 204.118 14.6567C203.01 13.6108 200.712 12.4041 199.549 12.2834C199.149 12.2432 198.454 12.0689 198.013 11.908C197.225 11.5996 197.225 11.5996 177.065 11.5594C162.089 11.5326 156.865 11.5594 156.731 11.6801C156.571 11.8142 156.544 13.5572 156.544 22.2054C156.544 32.409 156.544 32.5833 156.812 32.8515C157.079 33.1197 157.253 33.1197 176.557 33.1197C196.022 33.1197 196.022 33.1197 198.294 32.7844Z" fill="#EA5504"></path>
  <path d="M235.995 73.7731C235.781 73.5452 235.768 70.9172 235.768 38.6572C235.768 3.79612 235.768 3.79612 236.048 3.43411C236.315 3.08549 236.315 3.08549 240.991 3.08549C245.48 3.08549 245.667 3.0989 245.921 3.35366C246.188 3.62182 246.188 3.79612 246.188 38.6036C246.188 70.2333 246.162 73.6122 245.975 73.7999C245.801 73.9876 245.16 74.0144 240.991 74.0144C236.529 74.0144 236.195 74.001 235.995 73.7731Z" fill="#EA5504"></path>
  <path d="M250.904 73.8803C250.731 73.8133 250.597 73.6792 250.61 73.5854C250.61 73.4915 250.998 72.687 251.465 71.8021C251.92 70.9171 252.922 68.9596 253.683 67.4444C254.445 65.9293 255.273 64.3337 255.527 63.8913C256.262 62.5773 257.638 59.8823 257.744 59.5336C257.798 59.3459 257.985 58.9839 258.159 58.7292C258.332 58.4744 258.479 58.1794 258.479 58.0856C258.479 57.9783 258.599 57.737 258.733 57.5358C259.107 57.0129 261.418 52.548 261.418 52.3603C261.418 52.3335 261.819 51.5558 262.327 50.6575C262.821 49.7457 263.85 47.7747 264.611 46.2596C266.629 42.264 268.806 37.9868 269.274 37.1421C269.501 36.7398 270.289 35.1979 271.037 33.723C271.772 32.2481 272.587 30.6794 272.841 30.2369C273.095 29.7944 273.402 29.2179 273.522 28.9631C274.03 27.8637 275.486 24.9541 275.834 24.3373C276.047 23.9753 276.862 22.4066 277.637 20.8512C278.906 18.3707 279.387 17.4456 279.948 16.4266C280.028 16.2791 280.536 15.26 281.071 14.174C281.618 13.0745 282.099 12.1494 282.153 12.1225C282.219 12.0823 282.26 11.9616 282.26 11.8544C282.26 11.7337 282.513 11.2108 282.834 10.6879C283.155 10.1516 284.01 8.51576 284.731 7.04087C286.334 3.80951 286.775 3.13911 287.376 3.04525C287.603 3.00503 289.915 2.99162 292.506 3.00503C297.209 3.01844 297.209 3.01844 297.503 3.34023C297.663 3.51454 298.291 4.62741 298.892 5.82073C300.041 8.05989 301.631 11.1974 304.731 17.2981C305.719 19.2557 306.721 21.2132 306.962 21.6557C307.416 22.4736 307.563 22.782 309.019 25.7452C309.473 26.6704 309.941 27.5687 310.061 27.7564C310.288 28.0916 310.849 29.2045 312.239 32.047C312.653 32.8917 313.174 33.8973 313.374 34.2593C313.588 34.6348 314.016 35.4393 314.323 36.0694C315.539 38.5365 316.648 40.7221 316.995 41.3656C317.422 42.1567 319.266 45.8574 319.266 45.9378C319.266 45.978 319.52 46.4339 319.814 46.9702C320.321 47.8552 321.47 50.0943 322.673 52.5614C322.94 53.1112 323.367 53.9291 323.608 54.3715C324.089 55.2296 325.518 58.0856 325.866 58.8632C325.986 59.118 326.4 59.9359 326.814 60.6733C327.215 61.4108 328.177 63.2879 328.965 64.8298C329.74 66.3852 330.542 67.9539 330.755 68.316C330.969 68.6914 331.21 69.1339 331.303 69.3216C332.278 71.3596 333.2 73.1831 333.334 73.3842C333.467 73.5853 333.454 73.6658 333.24 73.8267C333.013 73.9876 332.078 74.0144 327.669 74.0144C321.47 74.0144 322.005 74.1485 321.136 72.2982C320.829 71.6546 320.509 70.9842 320.402 70.7965C320.175 70.3674 317.97 65.9427 317.342 64.6287C317.075 64.079 316.861 63.5561 316.861 63.4756C316.861 63.3952 316.741 63.2209 316.607 63.1002C316.461 62.9661 316.314 62.7114 316.26 62.5237C316.22 62.3359 316.086 62.041 315.966 61.8532C315.672 61.4108 314.056 57.9247 314.056 57.737C314.056 57.6565 313.869 57.3615 313.642 57.08C313.227 56.5839 313.227 56.5839 291.772 56.6107L270.303 56.6509L269.608 57.9917C269.22 58.7292 268.806 59.5471 268.699 59.8018C268.579 60.0566 268.432 60.3784 268.365 60.5124C268.112 60.9549 267.991 61.2097 267.497 62.2823C267.217 62.8723 266.789 63.784 266.522 64.2935C266.268 64.8164 265.774 65.7818 265.44 66.4388C264.798 67.6992 263.663 70.0724 263.422 70.6624C263.342 70.8501 263.075 71.3596 262.835 71.8021C262.581 72.2445 262.247 72.8613 262.1 73.1831C261.939 73.5317 261.699 73.7999 261.485 73.8803C261.044 74.0546 251.318 74.0412 250.904 73.8803ZM308.284 48.2574C308.485 48.177 308.578 48.0295 308.578 47.8015C308.578 47.4529 307.737 45.5088 306.922 43.9802C306.668 43.4975 306.027 42.2372 305.506 41.1645C304.971 40.0919 304.21 38.5634 303.795 37.7455C303.381 36.941 302.633 35.4259 302.125 34.3934C300.295 30.666 299.026 28.1721 298.465 27.153C298.371 27.0056 298.091 26.4022 297.824 25.8122C297.556 25.2223 297.263 24.6189 297.182 24.4714C297.102 24.3239 296.742 23.6267 296.381 22.9295C296.02 22.2323 295.646 21.5082 295.553 21.3205C295.446 21.1328 295.178 20.5697 294.938 20.0467C294.711 19.5372 294.377 18.8132 294.203 18.4378C294.03 18.0757 293.856 17.6199 293.802 17.4322C293.749 17.2444 293.602 16.9361 293.468 16.7349C293.321 16.5472 293.215 16.3327 293.215 16.2657C293.215 16.212 293.041 15.7964 292.827 15.3539C292.613 14.9114 292.386 14.3081 292.319 14.0131C292.253 13.6779 292.132 13.4768 292.012 13.4768C291.772 13.4768 291.264 14.3617 291.077 15.0857C290.957 15.5684 290.596 16.3997 290.035 17.4992C289.928 17.7271 289.754 18.0892 289.648 18.3037C289.541 18.5316 289.38 18.8534 289.287 19.0411C289.006 19.5506 288.378 20.8244 287.617 22.3932C287.243 23.1708 286.642 24.3642 286.267 25.048C285.907 25.7184 285.546 26.3888 285.479 26.5229C285.412 26.6435 284.771 27.9307 284.063 29.3654C283.342 30.8001 282.487 32.5297 282.139 33.1867C281.805 33.8571 281.298 34.8761 281.017 35.4661C280.75 36.056 280.189 37.1421 279.788 37.8795C279.387 38.617 278.839 39.6762 278.572 40.226C277.731 41.969 276.288 44.8249 275.86 45.5892C274.818 47.4529 274.711 47.9356 275.299 48.2306C275.553 48.3513 279.414 48.3915 291.798 48.3781C300.696 48.3781 308.111 48.3245 308.284 48.2574Z" fill="#EA5504"></path>
</svg>
