<svg width="131" height="40" viewBox="0 0 131 40" fill="none" xmlns="http://www.w3.org/2000/svg">
<g clip-path="url(#clip0_20901_50322)">
<path d="M6.04259 17.3866L1.98926 7.19995H3.24259L6.54481 15.6044L9.77148 7.24439L10.9893 7.19995H11.1004L7.09592 17.3866H6.04259Z" fill="white"/>
<path d="M14.9674 17.5289C14.0164 17.509 13.1122 17.1127 12.4531 16.427C11.7941 15.7413 11.4339 14.822 11.4518 13.8711C11.4518 11.8844 13.0296 10.2089 14.8963 10.2089C15.3517 10.2091 15.8024 10.3013 16.2212 10.4802C16.6401 10.659 17.0184 10.9207 17.3335 11.2495C17.6486 11.5784 17.894 11.9675 18.0549 12.3936C18.2157 12.8196 18.2888 13.2738 18.2696 13.7289C18.2671 13.9106 18.2417 14.0913 18.194 14.2666V14.3155H12.6251C12.6971 14.8916 12.9728 15.4229 13.4023 15.8134C13.8319 16.2038 14.3871 16.4277 14.9674 16.4444C15.388 16.4346 15.8009 16.3295 16.175 16.137C16.5492 15.9446 16.8748 15.6698 17.1274 15.3333L17.1807 15.2578L17.9318 16L17.8963 16.0533C17.5488 16.5019 17.1055 16.8672 16.5988 17.1225C16.092 17.3778 15.5346 17.5166 14.9674 17.5289ZM17.1051 13.2933C17.0424 12.7459 16.782 12.2402 16.3728 11.8711C15.9637 11.5021 15.4339 11.295 14.8829 11.2889C14.328 11.3038 13.7959 11.5124 13.3787 11.8785C12.9614 12.2446 12.6854 12.7451 12.5985 13.2933H17.1051Z" fill="white"/>
<path d="M20.2783 17.3866V10.3555H21.4294V11.1511C21.712 10.8456 22.0562 10.6036 22.4393 10.4412C22.8224 10.2788 23.2356 10.1996 23.6517 10.2089H24.0117V11.3644H23.5183C23.2389 11.3624 22.962 11.4171 22.7044 11.5251C22.4467 11.6331 22.2136 11.7923 22.0192 11.9929C21.8248 12.1936 21.6731 12.4315 21.5732 12.6925C21.4734 12.9534 21.4275 13.2319 21.4383 13.5111V17.3866H20.2783Z" fill="white"/>
<path d="M28.3537 20.4C27.7843 20.4007 27.2227 20.2685 26.7134 20.0139C26.2042 19.7593 25.7614 19.3893 25.4203 18.9334L25.3892 18.88L26.1403 18.1289L26.1892 18.2045C26.4445 18.5395 26.7712 18.8135 27.1456 19.0064C27.52 19.1994 27.9327 19.3065 28.3537 19.32C28.6647 19.3138 28.9714 19.2456 29.2559 19.1195C29.5403 18.9934 29.7968 18.8118 30.0103 18.5855C30.2238 18.3592 30.39 18.0926 30.4993 17.8013C30.6087 17.51 30.6589 17.1998 30.647 16.8889V16.24C30.3714 16.5584 30.03 16.8132 29.6463 16.9866C29.2626 17.16 28.8458 17.248 28.4248 17.2445C27.5213 17.2143 26.6666 16.8275 26.0477 16.1686C25.4289 15.5097 25.0962 14.6325 25.1225 13.7289C25.0986 12.8269 25.4323 11.952 26.0509 11.295C26.6696 10.6381 27.5229 10.2525 28.4248 10.2223C28.8458 10.2187 29.2626 10.3067 29.6463 10.4802C30.03 10.6536 30.3714 10.9083 30.647 11.2267V10.3556H31.7981V16.8889C31.807 17.3468 31.7244 17.8019 31.5553 18.2276C31.3862 18.6532 31.1339 19.0408 30.8131 19.3677C30.4924 19.6947 30.1097 19.9544 29.6874 20.1316C29.2651 20.3089 28.8117 20.4001 28.3537 20.4ZM28.4248 11.2889C27.2603 11.2889 26.2737 12.4045 26.2737 13.7289C26.2737 15.0534 27.2603 16.1645 28.4248 16.1645C29.0418 16.1345 29.6219 15.8615 30.0383 15.4052C30.4547 14.9488 30.6736 14.3462 30.647 13.7289C30.6748 13.111 30.4565 12.5072 30.04 12.0498C29.6234 11.5925 29.0426 11.3189 28.4248 11.2889Z" fill="white"/>
<path d="M37.207 17.5289C35.5404 17.5289 34.3359 16.2311 34.3359 14.4445V10.3556H35.4871V14.4445C35.4726 14.6993 35.5099 14.9545 35.5966 15.1946C35.6834 15.4347 35.8177 15.6547 35.9917 15.8416C36.1657 16.0284 36.3756 16.1781 36.6089 16.2817C36.8422 16.3853 37.094 16.4407 37.3493 16.4445C38.4915 16.4445 39.3537 15.4934 39.3537 14.2223V10.3556H40.5093V17.3867H39.3537V16.5911C39.0835 16.8916 38.7522 17.1307 38.3819 17.2925C38.0117 17.4542 37.6111 17.5349 37.207 17.5289Z" fill="white"/>
<path d="M48.1359 17.3866V13.2266C48.1359 12.0666 47.4159 11.2888 46.3582 11.2888C46.0732 11.2894 45.7914 11.3484 45.5301 11.4622C45.2688 11.576 45.0337 11.7422 44.8392 11.9505C44.6446 12.1587 44.4949 12.4047 44.3992 12.6731C44.3034 12.9415 44.2638 13.2267 44.2826 13.5111V17.3866H43.1182V10.3555H44.2782V11.2133C44.5417 10.9033 44.8692 10.6542 45.2383 10.4831C45.6074 10.312 46.0091 10.223 46.4159 10.2222C48.1359 10.2222 49.2871 11.4355 49.2871 13.2399V17.3999L48.1359 17.3866Z" fill="white"/>
<path d="M56.8473 17.3866V13.2266C56.8473 12.0666 56.1273 11.2888 55.0695 11.2888C54.7842 11.2888 54.5019 11.3474 54.2401 11.4609C53.9783 11.5745 53.7426 11.7405 53.5476 11.9489C53.3526 12.1572 53.2025 12.4033 53.1065 12.672C53.0105 12.9408 52.9707 13.2263 52.9895 13.5111V17.3866H51.834V10.3555H52.9851V11.2133C53.2493 10.903 53.5776 10.6537 53.9474 10.4826C54.3173 10.3115 54.7198 10.2226 55.1273 10.2222C56.8429 10.2222 57.9984 11.4355 57.9984 13.2399V17.3999L56.8473 17.3866Z" fill="white"/>
<path d="M60.5363 17.3867V10.3556H61.6874V17.3867H60.5363ZM61.1096 8.85333C60.9672 8.85333 60.828 8.8111 60.7096 8.73199C60.5912 8.65287 60.499 8.54043 60.4445 8.40886C60.39 8.2773 60.3757 8.13253 60.4035 7.99287C60.4313 7.8532 60.4998 7.72491 60.6005 7.62421C60.7012 7.52352 60.8295 7.45495 60.9692 7.42717C61.1089 7.39938 61.2536 7.41364 61.3852 7.46814C61.5167 7.52263 61.6292 7.61492 61.7083 7.73332C61.7874 7.85172 61.8297 7.99093 61.8297 8.13333C61.8285 8.32393 61.7523 8.50638 61.6175 8.64116C61.4827 8.77593 61.3002 8.85216 61.1096 8.85333Z" fill="white"/>
<path d="M69.2428 17.3866V13.2266C69.2428 12.0666 68.5228 11.2888 67.465 11.2888C67.1797 11.2888 66.8973 11.3474 66.6355 11.4609C66.3738 11.5745 66.1381 11.7405 65.9431 11.9489C65.7481 12.1572 65.5979 12.4033 65.5019 12.672C65.4059 12.9408 65.3661 13.2263 65.385 13.5111V17.3866H64.2339V10.3555H65.385V11.2133C65.6487 10.9036 65.9763 10.6546 66.3453 10.4835C66.7143 10.3124 67.116 10.2233 67.5228 10.2222C69.2428 10.2222 70.3939 11.4355 70.3939 13.2399V17.3999L69.2428 17.3866Z" fill="white"/>
<path d="M75.6604 20.4C75.0909 20.4014 74.529 20.2695 74.0196 20.0148C73.5103 19.7601 73.0676 19.3898 72.727 18.9333L72.6959 18.88L73.447 18.1289L73.4959 18.2045C73.7512 18.5395 74.0779 18.8134 74.4523 19.0064C74.8267 19.1994 75.2394 19.3065 75.6604 19.32C75.971 19.3132 76.2773 19.2445 76.5612 19.1182C76.8451 18.9918 77.101 18.8102 77.3141 18.5839C77.5271 18.3577 77.693 18.0913 77.802 17.8002C77.9111 17.5092 77.9611 17.1994 77.9492 16.8889V16.24C77.6745 16.5593 77.3332 16.8147 76.9493 16.9882C76.5654 17.1617 76.1483 17.2492 75.727 17.2444C74.8236 17.2143 73.9689 16.8274 73.35 16.1685C72.7311 15.5097 72.3984 14.6325 72.4248 13.7289C72.4008 12.8261 72.7352 11.9505 73.3548 11.2935C73.9744 10.6364 74.8288 10.2513 75.7315 10.2222C76.1527 10.2175 76.5699 10.305 76.9538 10.4785C77.3376 10.652 77.6789 10.9073 77.9537 11.2267V10.3556H79.1092V16.8889C79.1181 17.3472 79.0354 17.8026 78.866 18.2285C78.6966 18.6545 78.4439 19.0423 78.1227 19.3693C77.8015 19.6963 77.4183 19.9559 76.9954 20.1329C76.5726 20.3099 76.1187 20.4007 75.6604 20.4ZM75.7315 11.2889C74.567 11.2889 73.5803 12.4044 73.5803 13.7289C73.5803 15.0533 74.567 16.1644 75.7315 16.1644C76.3485 16.1345 76.9286 15.8615 77.345 15.4051C77.7614 14.9487 77.9803 14.3461 77.9537 13.7289C77.9815 13.1109 77.7632 12.5071 77.3467 12.0498C76.9301 11.5925 76.3493 11.3188 75.7315 11.2889Z" fill="white"/>
<path d="M86.7315 17.3866V13.2266C86.7315 12.0666 86.0115 11.2888 84.9537 11.2888C84.6687 11.2894 84.3869 11.3485 84.1257 11.4623C83.8644 11.5761 83.6292 11.7422 83.4347 11.9505C83.2402 12.1587 83.0904 12.4047 82.9947 12.6731C82.899 12.9415 82.8593 13.2267 82.8782 13.5111V17.3866H81.7271V7.19995H82.8782V11.2C83.1424 10.893 83.4698 10.6468 83.838 10.478C84.2062 10.3093 84.6065 10.222 85.0115 10.2222C86.7315 10.2222 87.8826 11.4355 87.8826 13.24V17.4L86.7315 17.3866Z" fill="white"/>
<path d="M93.5093 17.5289C92.7817 17.5439 92.0662 17.3418 91.454 16.9484C90.8418 16.5551 90.3607 15.9882 90.072 15.3202C89.7833 14.6523 89.7002 13.9134 89.8332 13.198C89.9662 12.4826 90.3094 11.823 90.8188 11.3034C91.3283 10.7838 91.981 10.4278 92.6937 10.2807C93.4064 10.1337 94.1467 10.2023 94.8203 10.4778C95.4938 10.7533 96.07 11.2233 96.4753 11.8276C96.8806 12.432 97.0967 13.1434 97.0959 13.8711C97.1042 14.8314 96.7313 15.7558 96.0589 16.4416C95.3865 17.1273 94.4696 17.5183 93.5093 17.5289ZM93.5093 11.3066C92.9933 11.2773 92.4804 11.4034 92.0369 11.6687C91.5934 11.9341 91.2398 12.3263 91.0216 12.7948C90.8035 13.2633 90.731 13.7865 90.8135 14.2967C90.8959 14.8068 91.1295 15.2805 91.4841 15.6565C91.8387 16.0324 92.298 16.2933 92.8024 16.4054C93.3069 16.5175 93.8334 16.4757 94.3139 16.2853C94.7943 16.0949 95.2066 15.7648 95.4973 15.3375C95.7881 14.9103 95.944 14.4057 95.9448 13.8889C95.9561 13.5581 95.902 13.2284 95.7856 12.9186C95.6692 12.6088 95.4928 12.325 95.2666 12.0834C95.0403 11.8419 94.7687 11.6474 94.4671 11.511C94.1655 11.3747 93.8401 11.2992 93.5093 11.2889V11.3066Z" fill="white"/>
<path d="M102.003 17.5289C100.336 17.5289 99.1318 16.2311 99.1318 14.4445V10.3556H100.279V14.4445C100.264 14.6997 100.301 14.9552 100.388 15.1956C100.475 15.436 100.61 15.6563 100.785 15.8431C100.959 16.03 101.17 16.1797 101.403 16.283C101.637 16.3864 101.89 16.4413 102.145 16.4445C103.287 16.4445 104.15 15.4934 104.15 14.2223V10.3556H105.305V17.3867H104.15V16.5911C103.879 16.8916 103.548 17.1307 103.178 17.2925C102.808 17.4542 102.407 17.5349 102.003 17.5289Z" fill="white"/>
<path d="M110.785 17.5288C108.954 17.5288 107.412 15.8533 107.412 13.8711C107.412 11.8888 108.954 10.2222 110.785 10.2222C111.235 10.2267 111.679 10.3247 112.089 10.5098C112.499 10.695 112.866 10.9633 113.167 11.2977V7.19995H114.318V17.3866H113.167V16.4444C112.868 16.7813 112.501 17.0519 112.091 17.2386C111.681 17.4254 111.236 17.5243 110.785 17.5288ZM110.785 11.3066C109.732 11.3066 108.563 12.3688 108.563 13.8888C108.563 15.4088 109.732 16.4666 110.785 16.4666C112.021 16.4666 113.149 15.24 113.149 13.8888C113.149 12.5377 112.021 11.2888 110.785 11.2888V11.3066Z" fill="white"/>
<path d="M119.923 17.5289C118.972 17.509 118.068 17.1127 117.409 16.427C116.75 15.7413 116.39 14.822 116.407 13.8711C116.407 11.8844 117.985 10.2089 119.852 10.2089C120.307 10.2091 120.758 10.3013 121.177 10.4802C121.596 10.659 121.974 10.9207 122.289 11.2495C122.604 11.5784 122.85 11.9675 123.01 12.3936C123.171 12.8196 123.244 13.2738 123.225 13.7289C123.225 13.9108 123.2 14.0918 123.15 14.2666V14.3155H117.581C117.653 14.8916 117.928 15.4229 118.358 15.8134C118.787 16.2038 119.343 16.4277 119.923 16.4444C120.344 16.4346 120.756 16.3295 121.131 16.137C121.505 15.9446 121.83 15.6698 122.083 15.3333L122.136 15.2578L122.887 16L122.852 16.0533C122.504 16.5019 122.061 16.8672 121.554 17.1225C121.048 17.3778 120.49 17.5166 119.923 17.5289ZM122.056 13.2933C121.994 12.7455 121.734 12.2393 121.325 11.87C120.916 11.5008 120.385 11.2941 119.834 11.2889C119.28 11.3055 118.748 11.5147 118.332 11.8805C117.915 12.2463 117.638 12.7458 117.55 13.2933H122.056Z" fill="white"/>
<path d="M125.243 17.3866V10.3555H126.394V11.1511C126.676 10.8456 127.021 10.6036 127.404 10.4412C127.787 10.2788 128.2 10.1996 128.616 10.2089H128.98V11.3644H128.474C128.194 11.3624 127.918 11.4171 127.66 11.5251C127.402 11.6331 127.169 11.7923 126.975 11.9929C126.78 12.1936 126.629 12.4315 126.529 12.6925C126.429 12.9534 126.383 13.2319 126.394 13.5111V17.3866H125.243Z" fill="white"/>
<path d="M4.78051 26.1156L8.72273 21.7378H11.2338L7.50495 25.8978L11.505 31.7778H9.01162L6.05606 27.4756L4.76717 28.9111V31.7778H2.62939V21.7378H4.78051V26.1156Z" fill="white"/>
<path d="M16.2783 31.0623C16.032 31.3303 15.7334 31.5451 15.4009 31.6934C15.0684 31.8417 14.709 31.9203 14.345 31.9245C12.9094 31.9245 11.9761 30.9911 11.9761 29.9156C11.9761 28.7689 12.7672 27.9645 14.0561 27.7334L16.2783 27.3334C16.2783 26.76 15.8339 26.3289 15.0605 26.3289C14.7603 26.3197 14.462 26.3793 14.1885 26.5034C13.915 26.6274 13.6735 26.8125 13.4827 27.0445L12.4072 25.9689C12.7379 25.5433 13.162 25.1994 13.6467 24.9636C14.1314 24.7278 14.6637 24.6064 15.2027 24.6089C16.9805 24.6089 18.2161 25.8267 18.2161 27.4045V31.7778H16.2783V31.0623ZM16.2783 28.7689V28.5511L14.7005 28.84C14.1983 28.9245 13.9139 29.2 13.9139 29.6267C13.9139 30.0534 14.1983 30.3467 14.8472 30.3467C15.6827 30.3467 16.2783 29.7778 16.2783 28.7689Z" fill="white"/>
<path d="M22.2829 25.6133C22.5213 25.3095 22.8237 25.062 23.1686 24.8884C23.5135 24.7148 23.8925 24.6193 24.2785 24.6089C25.8563 24.6089 27.0029 25.7556 27.0029 27.6933V31.7778H25.0829V27.9067C25.0973 27.7205 25.0724 27.5334 25.0099 27.3575C24.9474 27.1816 24.8486 27.0207 24.72 26.8854C24.5914 26.7501 24.4358 26.6433 24.2632 26.5719C24.0907 26.5005 23.9051 26.4662 23.7185 26.4711C22.8563 26.4711 22.2829 27.0444 22.2829 28.1244V31.7778H20.3496V24.7511H22.2829V25.6133Z" fill="white"/>
<path d="M33.0426 26.8311C32.904 26.6587 32.7297 26.5182 32.5319 26.4192C32.334 26.3203 32.117 26.2652 31.8959 26.2578C31.3226 26.2578 31.0381 26.5467 31.0381 26.8311C31.0381 27.8355 34.2648 27.3333 34.2648 29.7022C34.2648 30.92 33.2604 31.9244 31.4648 31.9244C30.9188 31.9505 30.3744 31.8468 29.8762 31.622C29.3779 31.3972 28.94 31.0577 28.5981 30.6311L29.6737 29.5555C29.8529 29.7883 30.0803 29.9795 30.3404 30.1161C30.6005 30.2527 30.887 30.3313 31.1804 30.3467C31.8248 30.3467 32.1137 30.0578 32.1137 29.7022C32.1137 28.6222 28.887 29.1555 28.887 26.8311C28.887 25.7555 30.0337 24.6089 31.6115 24.6089C32.0735 24.5935 32.533 24.6822 32.9561 24.8684C33.3793 25.0546 33.7551 25.3334 34.0559 25.6844L33.0426 26.8311Z" fill="white"/>
<path d="M39.8605 26.8311C39.7213 26.6593 39.5469 26.5193 39.3492 26.4204C39.1514 26.3215 38.9348 26.2661 38.7138 26.2578C38.1405 26.2578 37.8516 26.5466 37.8516 26.8311C37.8516 27.8355 41.0783 27.3333 41.0783 29.7022C41.0783 30.92 40.0738 31.9244 38.2827 31.9244C37.736 31.9508 37.1909 31.8473 36.6919 31.6226C36.1928 31.3978 35.7541 31.058 35.4116 30.6311L36.4872 29.5555C36.6668 29.7879 36.8943 29.9788 37.1543 30.1153C37.4143 30.2518 37.7006 30.3307 37.9938 30.3466C38.6427 30.3466 38.9272 30.0578 38.9272 29.7022C38.9272 28.6222 35.7005 29.1555 35.7005 26.8311C35.7005 25.7555 36.8472 24.6089 38.425 24.6089C38.886 24.5961 39.344 24.686 39.766 24.872C40.188 25.058 40.5634 25.3355 40.865 25.6844L39.8605 26.8311Z" fill="white"/>
<path d="M44.7227 30.92V34.7911H42.8027V24.7511H44.7227V25.6133C44.972 25.3007 45.2883 25.0481 45.6483 24.8742C46.0084 24.7004 46.4029 24.6097 46.8027 24.6089C48.5805 24.6089 50.1716 26.1867 50.1716 28.2667C50.1716 30.3467 48.5938 31.9244 46.8027 31.9244C46.4029 31.9237 46.0084 31.833 45.6483 31.6591C45.2883 31.4852 44.972 31.2326 44.7227 30.92ZM44.7227 28.2533C44.7621 28.5852 44.8966 28.8985 45.11 29.1557C45.3234 29.4128 45.6065 29.6028 45.9254 29.7028C46.2442 29.8028 46.5851 29.8085 46.9071 29.7192C47.2291 29.6299 47.5185 29.4494 47.7403 29.1995C47.9621 28.9496 48.107 28.6409 48.1574 28.3106C48.2079 27.9803 48.1618 27.6424 48.0247 27.3377C47.8876 27.033 47.6653 26.7744 47.3846 26.593C47.104 26.4117 46.7769 26.3153 46.4427 26.3156C46.1988 26.3223 45.9589 26.3792 45.738 26.4827C45.517 26.5862 45.3197 26.734 45.1584 26.917C44.9971 27.1001 44.8751 27.3143 44.8002 27.5465C44.7252 27.7787 44.6989 28.0238 44.7227 28.2667V28.2533Z" fill="white"/>
<path d="M53.4916 28.9111C53.5888 29.3229 53.8297 29.6866 54.1711 29.9367C54.5124 30.1868 54.9318 30.3069 55.3538 30.2755C55.709 30.2769 56.0603 30.2004 56.3828 30.0515C56.7053 29.9025 56.9912 29.6847 57.2205 29.4133L58.2249 30.7022C57.8291 31.096 57.3587 31.4069 56.8413 31.6168C56.3239 31.8266 55.7699 31.9312 55.2116 31.9244C54.7312 31.9291 54.2547 31.8391 53.8091 31.6596C53.3635 31.4801 52.9577 31.2146 52.6147 30.8782C52.2718 30.5419 51.9984 30.1412 51.8103 29.6993C51.6221 29.2573 51.5229 28.7825 51.5182 28.3022C51.5136 27.8218 51.6036 27.3453 51.7831 26.8997C51.9626 26.4541 52.2281 26.0483 52.5644 25.7053C52.9008 25.3624 53.3014 25.089 53.7434 24.9009C54.1854 24.7128 54.6601 24.6135 55.1405 24.6089C55.6053 24.5973 56.0676 24.6803 56.4994 24.8529C56.9312 25.0254 57.3233 25.284 57.6521 25.6127C57.9809 25.9415 58.2395 26.3337 58.412 26.7655C58.5846 27.1972 58.6676 27.6596 58.656 28.1244C58.661 28.3884 58.6372 28.6522 58.5849 28.9111H53.4916ZM53.4916 27.5466H56.7227C56.6578 27.1784 56.4628 26.8456 56.1732 26.6091C55.8837 26.3725 55.5187 26.2478 55.1449 26.2577C54.7634 26.2562 54.3926 26.3835 54.0925 26.6191C53.7924 26.8546 53.5807 27.1846 53.4916 27.5555V27.5466Z" fill="white"/>
<path d="M62.385 31.7778H60.4517V21.7378H62.385V31.7778Z" fill="white"/>
<path d="M68.4829 31.0622C68.2366 31.3303 67.9379 31.5451 67.6054 31.6934C67.2729 31.8417 66.9136 31.9203 66.5496 31.9244C65.114 31.9244 64.1807 30.9911 64.1807 29.9156C64.1807 28.7689 64.9718 27.9644 66.2607 27.7333L68.4829 27.3333C68.4829 26.76 68.0384 26.3289 67.2651 26.3289C66.9649 26.3196 66.6666 26.3793 66.3931 26.5033C66.1196 26.6274 65.8781 26.8125 65.6873 27.0444L64.6118 25.9689C64.9407 25.5457 65.3619 25.2032 65.8433 24.9675C66.3247 24.7318 66.8536 24.6091 67.3896 24.6089C69.1673 24.6089 70.4029 25.8267 70.4029 27.4044V31.7778H68.4651L68.4829 31.0622ZM68.4829 28.7689V28.5511L66.9051 28.84C66.4029 28.9244 66.1184 29.2 66.1184 29.6267C66.1184 30.0533 66.4029 30.3467 67.0518 30.3467C67.9096 30.3467 68.4829 29.7778 68.4829 28.7689Z" fill="white"/>
<path d="M77.3095 31.0622C77.0515 31.3358 76.7401 31.5535 76.3945 31.7018C76.049 31.8501 75.6767 31.9259 75.3006 31.9244C73.7228 31.9244 72.5762 30.7778 72.5762 28.9555V24.7511H74.5006V28.7511C74.497 28.9311 74.5298 29.1099 74.5971 29.2769C74.6645 29.4438 74.7649 29.5954 74.8924 29.7225C75.0199 29.8496 75.1718 29.9495 75.339 30.0163C75.5061 30.0831 75.6851 30.1153 75.8651 30.1111C76.7228 30.1111 77.3006 29.5378 77.3006 28.4622V24.7511H79.2339V31.7778H77.3006L77.3095 31.0622Z" fill="white"/>
<path d="M82.3315 22.6666H84.0515V24.8888H85.4871V26.6133H84.0515V29.4088C84.0513 29.5199 84.0738 29.6298 84.1177 29.7318C84.1616 29.8338 84.226 29.9258 84.3067 30.002C84.3875 30.0782 84.4831 30.137 84.5874 30.1749C84.6918 30.2128 84.8029 30.2289 84.9137 30.2222C85.1596 30.2261 85.4036 30.1776 85.6293 30.08V31.7288C85.2144 31.8712 84.779 31.9447 84.3404 31.9466C82.9048 31.9466 82.1182 31.1555 82.1182 29.5066V26.6177H80.9004V24.8888H81.5448C81.6591 24.8835 81.771 24.8547 81.8737 24.8044C81.9764 24.754 82.0677 24.6831 82.1418 24.596C82.216 24.5089 82.2715 24.4075 82.3049 24.2981C82.3383 24.1887 82.3489 24.0736 82.336 23.96L82.3315 22.6666Z" fill="white"/>
<path d="M90.5803 31.9245C89.8601 31.9105 89.16 31.6841 88.5679 31.2738C87.9758 30.8634 87.5181 30.2874 87.2521 29.6179C86.9861 28.9484 86.9238 28.2153 87.0728 27.5105C87.2219 26.8057 87.5757 26.1606 88.09 25.6562C88.6043 25.1517 89.2561 24.8103 89.9636 24.6749C90.6711 24.5394 91.4029 24.6159 92.0671 24.8947C92.7314 25.1735 93.2985 25.6423 93.6974 26.2421C94.0962 26.842 94.3091 27.5463 94.3092 28.2667C94.2762 29.2386 93.8706 30.1605 93.1764 30.8415C92.4822 31.5224 91.5526 31.9102 90.5803 31.9245ZM90.5803 30.1467C90.9557 30.1771 91.3316 30.0935 91.6587 29.9069C91.9858 29.7202 92.249 29.4392 92.4138 29.1006C92.5787 28.7619 92.6375 28.3814 92.5825 28.0088C92.5276 27.6362 92.3615 27.2888 92.106 27.0122C91.8504 26.7355 91.5173 26.5424 91.1502 26.4581C90.7832 26.3738 90.3992 26.4022 90.0485 26.5397C89.6979 26.6771 89.3969 26.9172 89.1849 27.2285C88.9729 27.5398 88.8598 27.9079 88.8603 28.2845C88.8514 28.5187 88.8889 28.7524 88.9707 28.9721C89.0524 29.1917 89.1768 29.3931 89.3366 29.5645C89.4965 29.7359 89.6887 29.874 89.9021 29.9709C90.1156 30.0678 90.346 30.1215 90.5803 30.1289V30.1467Z" fill="white"/>
<path d="M100.278 26.6178C100.068 26.5631 99.8512 26.5392 99.634 26.5467C98.6296 26.5467 97.9851 27.1912 97.9851 28.4089V31.7778H96.0474V24.7512H97.9851V25.6134C98.2336 25.3229 98.5415 25.0893 98.8881 24.9283C99.2347 24.7672 99.6119 24.6826 99.994 24.6801H100.278V26.6178Z" fill="white"/>
<path d="M102.634 23.8177C102.348 23.8177 102.075 23.7044 101.873 23.5027C101.671 23.301 101.558 23.0274 101.558 22.7422C101.558 22.4569 101.671 22.1834 101.873 21.9816C102.075 21.7799 102.348 21.6666 102.634 21.6666C102.919 21.6666 103.192 21.7799 103.394 21.9816C103.596 22.1834 103.709 22.4569 103.709 22.7422C103.709 23.0274 103.596 23.301 103.394 23.5027C103.192 23.7044 102.919 23.8177 102.634 23.8177ZM103.638 31.7777H101.7V24.7511H103.638V31.7777Z" fill="white"/>
<path d="M106.723 22.6666H108.443V24.8888H109.878V26.6133H108.443V29.4088C108.442 29.5199 108.465 29.6298 108.509 29.7318C108.553 29.8338 108.617 29.9258 108.698 30.002C108.779 30.0782 108.874 30.137 108.979 30.1749C109.083 30.2128 109.194 30.2289 109.305 30.2222C109.551 30.2261 109.795 30.1776 110.02 30.08V31.7288C109.606 31.8712 109.17 31.9447 108.732 31.9466C107.296 31.9466 106.509 31.1555 106.509 29.5066V26.6177H105.287V24.8888H105.936C106.05 24.8829 106.161 24.8537 106.263 24.8031C106.366 24.7525 106.456 24.6814 106.53 24.5944C106.604 24.5074 106.659 24.4062 106.692 24.2971C106.725 24.188 106.736 24.0733 106.723 23.96V22.6666Z" fill="white"/>
<path d="M113.252 28.9111C113.349 29.3237 113.591 29.688 113.933 29.9382C114.275 30.1884 114.696 30.308 115.118 30.2755C115.473 30.2766 115.824 30.1999 116.145 30.0509C116.467 29.902 116.752 29.6843 116.981 29.4133L117.985 30.7022C117.589 31.096 117.119 31.4069 116.602 31.6168C116.084 31.8266 115.53 31.9312 114.972 31.9244C114.491 31.9291 114.015 31.8391 113.569 31.6596C113.124 31.4801 112.718 31.2146 112.375 30.8782C112.032 30.5419 111.759 30.1412 111.571 29.6993C111.382 29.2573 111.283 28.7825 111.278 28.3022C111.274 27.8218 111.364 27.3453 111.543 26.8997C111.723 26.4541 111.988 26.0483 112.325 25.7053C112.661 25.3624 113.062 25.089 113.504 24.9009C113.946 24.7128 114.42 24.6135 114.901 24.6089C115.366 24.5973 115.828 24.6803 116.26 24.8529C116.691 25.0254 117.084 25.284 117.412 25.6127C117.741 25.9415 118 26.3337 118.172 26.7655C118.345 27.1972 118.428 27.6596 118.416 28.1244C118.421 28.3884 118.397 28.6522 118.345 28.9111H113.252ZM113.252 27.5466H116.478C116.414 27.1784 116.219 26.8456 115.929 26.6091C115.639 26.3725 115.275 26.2478 114.901 26.2577C114.52 26.2572 114.15 26.385 113.851 26.6204C113.552 26.8559 113.341 27.1853 113.252 27.5555V27.5466Z" fill="white"/>
<path d="M121.167 23.8177C120.882 23.8177 120.609 23.7044 120.407 23.5027C120.205 23.301 120.092 23.0274 120.092 22.7422C120.092 22.4569 120.205 22.1834 120.407 21.9816C120.609 21.7799 120.882 21.6666 121.167 21.6666C121.453 21.6666 121.726 21.7799 121.928 21.9816C122.13 22.1834 122.243 22.4569 122.243 22.7422C122.243 23.0274 122.13 23.301 121.928 23.5027C121.726 23.7044 121.453 23.8177 121.167 23.8177ZM122.145 31.7777H120.212V24.7511H122.145V31.7777Z" fill="white"/>
<path d="M125.234 22.6666H126.945V24.8888H128.38V26.6133H126.945V29.4088C126.944 29.5223 126.968 29.6346 127.013 29.7386C127.059 29.8425 127.125 29.9358 127.209 30.0124C127.293 30.089 127.392 30.1473 127.499 30.1834C127.607 30.2195 127.721 30.2327 127.834 30.2222C128.081 30.2254 128.326 30.1769 128.554 30.08V31.7288C128.137 31.8715 127.7 31.945 127.26 31.9466C125.829 31.9466 125.038 31.1555 125.038 29.5066V26.6177H123.82V24.8888H124.465C124.579 24.8835 124.691 24.8547 124.794 24.8044C124.896 24.754 124.988 24.6831 125.062 24.596C125.136 24.5089 125.191 24.4075 125.225 24.2981C125.258 24.1887 125.269 24.0736 125.256 23.96L125.234 22.6666Z" fill="white"/>
<path d="M130.945 37.8356H0.27832V39.9867H130.945V37.8356Z" fill="white"/>
<path d="M130.945 0.0133057H0.27832V2.16442H130.945V0.0133057Z" fill="white"/>
</g>
<defs>
<clipPath id="clip0_20901_50322">
<rect width="130.667" height="40" fill="white" transform="translate(0.27832)"/>
</clipPath>
</defs>
</svg>
