<?xml version="1.0" encoding="utf-8"?>
<svg xmlns="http://www.w3.org/2000/svg" fill="none" height="20" viewBox="0 0 20 20" width="20">
<g clip-path="url(#clip0_752_1022)">
<path d="M16.1075 3.29994C15.9488 3.03533 15.7794 2.79188 15.5995 2.55902C15.5995 2.54844 15.5889 2.53785 15.5783 2.53785C15.3984 2.30499 15.1973 2.0933 14.9856 1.8922C14.9326 1.84986 14.8903 1.80752 14.8797 1.73343C14.8586 1.64875 14.795 1.59583 14.721 1.60641C14.6786 1.60641 14.668 1.59583 14.6469 1.57466C14.541 1.4794 14.4246 1.38414 14.2976 1.29946C14.287 1.28888 14.2764 1.28888 14.2658 1.27829C14.1706 1.2042 14.0647 1.14069 13.9589 1.0666C13.9377 1.05602 13.9059 1.03485 13.8848 1.02426C13.6413 0.876077 13.3979 0.738478 13.1439 0.622048C13.1121 0.611463 13.0909 0.590294 13.0592 0.590294C12.9427 0.537372 12.8263 0.484449 12.6993 0.44211C12.6887 0.44211 12.6781 0.431526 12.6676 0.431526C12.53 0.378603 12.4029 0.336265 12.2653 0.293927C12.2336 0.283342 12.2018 0.272757 12.1701 0.262173C12.0642 0.230419 11.9478 0.20925 11.842 0.177496C11.8102 0.166912 11.7784 0.166912 11.7467 0.156327C11.6091 0.124573 11.4715 0.103405 11.3339 0.0822354C11.3021 0.0822354 11.281 0.0822352 11.2492 0.0716506C11.1328 0.0504815 11.0164 0.0398972 10.8999 0.0293126C10.8576 0.0293126 10.8258 0.0293124 10.7835 0.0187278C10.6459 0.00814324 10.4977 -0.00244141 10.3495 -0.00244141H9.78855C9.58744 -0.00244141 9.38634 0.00814348 9.19581 0.0293126C9.17464 0.0293126 9.16406 0.0293126 9.14289 0.0293126C8.95237 0.0504817 8.77243 0.0716508 8.59249 0.113989C8.56074 0.113989 8.53957 0.124573 8.5184 0.124573C8.33846 0.156327 8.16911 0.198665 7.99976 0.251588C7.968 0.262173 7.94684 0.262173 7.91508 0.272758C7.74573 0.32568 7.57638 0.378603 7.40702 0.44211C7.38585 0.452695 7.3541 0.463279 7.33293 0.473864C7.16358 0.537371 7.00481 0.611463 6.84604 0.685555C6.82487 0.69614 6.81429 0.706725 6.79312 0.717309C6.63435 0.801986 6.465 0.886662 6.30623 0.992508C6.30623 0.992508 6.29564 1.00309 6.28506 1.00309C5.95694 1.2042 5.6394 1.43706 5.35362 1.70167C5.35362 1.70167 5.35362 1.70167 5.34303 1.71226C5.20543 1.83927 5.06783 1.97687 4.94082 2.11447C4.93023 2.12506 4.93024 2.12506 4.91965 2.13564C4.79264 2.27324 4.66562 2.41084 4.54919 2.56961C4.54919 2.58019 4.53861 2.59078 4.52802 2.59078C4.41159 2.73896 4.30575 2.89773 4.1999 3.0565C4.1999 3.0565 4.18932 3.06708 4.18932 3.07767C3.5119 4.11495 3.13086 5.35335 3.13086 6.687V8.86742C3.13086 10.4339 4.40101 11.7041 5.96752 11.7041H7.10007C5.89343 10.6033 5.12076 8.84625 5.12076 6.86694C5.12076 6.83519 5.12076 6.80343 5.12076 6.77168C6.42266 7.38558 8.0421 7.35383 9.42867 6.5494C10.2013 6.10485 10.7941 5.48036 11.2069 4.7712C11.5138 4.99347 11.8631 5.16283 12.2548 5.26867C13.1227 5.50153 14.0118 5.35335 14.6998 4.92997C14.8691 5.54387 14.9644 6.20011 14.9644 6.87752C14.9644 8.85684 14.1811 10.6139 12.9851 11.7147H14.1706C15.7371 11.7147 17.0072 10.4445 17.0072 8.87801V6.65525C17.0178 5.43802 16.6791 4.28431 16.1075 3.29994Z" fill="#ABAAFF"/>
<path clip-rule="evenodd" d="M16.0966 14.8265H15.9166L15.906 14.8053C15.8002 14.8159 15.6943 14.8371 15.5779 14.8371C14.149 14.8371 12.9847 13.6728 12.9847 12.2439C12.9847 12.2227 12.9847 12.2121 12.9847 12.2015V11.6829C14.1913 10.5821 14.964 8.83564 14.964 6.85633C14.964 6.17892 14.8687 5.52267 14.6994 4.90877C14.0008 5.33215 13.1329 5.48033 12.2544 5.24747C11.8627 5.14163 11.5134 4.97228 11.2065 4.75C10.8043 5.45917 10.2115 6.09424 9.42828 6.52821C8.03111 7.33263 6.42226 7.36439 5.12036 6.75048V6.84574C5.12036 8.81447 5.89303 10.5609 7.08909 11.6617H6.9409V12.1274C6.9409 12.1698 6.95149 12.2015 6.95149 12.2439C6.95149 12.2862 6.9409 12.318 6.9409 12.3603V12.4344H6.93032C6.83506 13.7786 5.72368 14.8371 4.35827 14.8371C4.27359 14.8371 4.18892 14.8159 4.10424 14.8159L4.09366 14.8265H3.91372C2.45305 14.8265 1.26758 16.012 1.26758 17.4726V18.8063C1.26758 19.4625 1.80739 20.0024 2.46363 20.0024H17.5361C18.1923 20.0024 18.7321 19.4625 18.7321 18.8063V17.4726C18.7427 16.012 17.5572 14.8265 16.0966 14.8265Z" fill="url(#paint0_linear_752_1022)" fill-opacity="0.6" fill-rule="evenodd" opacity="0.6"/>
<path d="M7.88252 14.0435L10.6232 15.6096L7.88252 17.1652C7.50158 17.3768 7.02539 17.1123 7.02539 16.6678V14.5409C7.02539 14.107 7.50158 13.8319 7.88252 14.0435Z" fill="#ABAAFF"/>
<path d="M12.2641 14.0439L9.52344 15.61L12.2641 17.1761C12.6451 17.3878 13.1213 17.1232 13.1213 16.6788V14.5518C13.1213 14.1074 12.6451 13.8322 12.2641 14.0439Z" fill="#ABAAFF"/>
</g>
<defs>
<linearGradient gradientUnits="userSpaceOnUse" id="paint0_linear_752_1022" x1="0.242548" x2="20.1119" y1="12.375" y2="12.375">
<stop offset="0.0926412" stop-color="#CBC9FF"/>
<stop offset="0.7304" stop-color="#ABAAFF"/>
</linearGradient>
<clipPath id="clip0_752_1022">
<rect fill="white" height="20" width="20"/>
</clipPath>
</defs>
</svg>