<?xml version="1.0" encoding="utf-8"?>
<svg xmlns="http://www.w3.org/2000/svg" fill="none" height="25" viewBox="0 0 24 25" width="24">
<g clip-path="url(#clip0_327_138114)">
<path d="M19.9992 18.4338C19.9992 18.4338 19.9942 18.4332 19.9856 18.4352C19.9091 18.4478 19.7961 18.4421 19.6526 18.4201C19.6452 18.4187 19.6387 18.4188 19.6302 18.417C18.9984 18.3219 17.8098 17.9443 16.5858 17.485C16.5601 17.4768 16.5347 17.4676 16.5098 17.4572C15.2912 16.9973 14.0491 16.4589 13.2982 16.0355C13.297 16.035 13.297 16.035 13.297 16.035C12.9228 15.8218 12.6707 15.6393 12.6056 15.5099C12.5903 15.4802 12.5815 15.4363 12.5773 15.3801C12.4661 14.1048 14.9111 6.6112 15.551 6.35198C16.1406 6.11248 18.0679 6.46796 19.8671 7.10208L20.0089 7.15396C21.8873 7.68229 23.9776 8.67467 23.9776 8.67467C23.9776 8.67467 22.69 14.809 19.9992 18.4338Z" fill="#0663A6"/>
<path d="M19.7553 18.1509C19.2162 18.0668 17.5904 17.8446 16.5858 17.4859C16.56 17.4777 16.5347 17.4685 16.5097 17.4581C14.8322 16.8558 12.9546 16.0429 12.2858 15.5452C12.2851 15.5436 12.2851 15.5436 12.2851 15.5436C12.1638 15.4535 12.0818 15.3739 12.0488 15.3071C11.7934 14.7941 13.0635 10.5402 14.0689 7.97091C14.0689 7.97091 14.0693 7.96979 14.0701 7.96755C14.4919 6.88978 15.0144 5.97981 15.0144 5.97981C15.0144 5.97981 17.9077 6.37084 19.8659 7.10257L20.0077 7.15445C21.6995 7.79632 23.2999 8.83073 23.2999 8.83073C23.2999 8.83073 22.6531 11.2096 21.7901 13.5398C20.9234 15.8764 19.8413 18.1659 19.7553 18.1509Z" fill="#31A0DF"/>
<path d="M18.3104 8.65987C18.3104 8.65987 15.2858 11.1033 15.2841 11.0938C15.2841 11.0938 16.2084 14.4442 16.1925 14.4485C16.1925 14.4485 19.1785 12.464 19.2003 12.4402C19.2003 12.4402 18.2382 8.76441 18.3104 8.65987Z" fill="#ED0049"/>
<path d="M22.2362 8.98949L21.4472 9.62395L21.6839 10.4989L22.4679 9.9745L22.2362 8.98949Z" fill="#ED0049"/>
<path d="M13.9503 13.6824L13.148 14.3285L13.3882 15.2187L14.1871 14.6858L13.9503 13.6824Z" fill="#ED0049"/>
<path d="M9.90922 15.4733C9.90922 15.4733 9.90542 15.4755 9.90047 15.4813C9.85371 15.5298 9.77202 15.5844 9.66052 15.6436C9.65468 15.6464 9.65016 15.6499 9.6433 15.653C9.15353 15.9146 8.1291 16.2681 7.03757 16.583C7.01538 16.5907 6.99288 16.5974 6.97009 16.6031C5.88206 16.9149 4.73686 17.1841 3.99372 17.2785C3.9927 17.2788 3.9927 17.2788 3.9927 17.2788C3.62119 17.3244 3.35071 17.328 3.23823 17.2716C3.21216 17.2588 3.18327 17.2327 3.15112 17.1957C2.41192 16.3644 0.227928 9.87223 0.539472 9.3595C0.826153 8.88665 2.35406 8.1344 3.93726 7.64284L4.06302 7.60543C5.64655 6.99902 7.61857 6.60615 7.61857 6.60615C7.61857 6.60615 9.90406 11.5504 9.90922 15.4733Z" fill="#CBBCCC"/>
<path d="M9.59255 15.4025C9.17312 15.6236 7.92454 16.3123 7.03814 16.5836C7.01594 16.5912 6.99345 16.5979 6.97066 16.6036C5.48879 17.0542 3.75821 17.4619 3.03374 17.462C3.03242 17.4613 3.03242 17.4613 3.03242 17.4613C2.90113 17.4613 2.80268 17.4484 2.74497 17.419C2.30074 17.1939 0.978831 13.5696 0.346475 11.257C0.346475 11.257 0.346179 11.256 0.345588 11.254C0.0803534 10.2838 -0.0276269 9.37843 -0.0276269 9.37843C-0.0276269 9.37843 2.19209 8.14972 3.93681 7.64368L4.06256 7.60627C5.57492 7.17584 7.22729 7.06644 7.22729 7.06644C7.22729 7.06644 8.01074 9.06028 8.61828 11.1324C9.22657 13.2109 9.66028 15.3683 9.59255 15.4025Z" fill="#EFE4EF"/>
<path d="M7.45965 6.9964C7.33491 7.03351 8.16848 9.1023 8.83962 11.6351C9.51075 14.168 9.54055 14.7058 9.69675 14.7633C9.85296 14.8207 9.54882 12.0813 8.9318 10.1419C8.31448 8.20144 7.81926 7.01933 7.74419 7.00269C7.66913 6.98605 7.45965 6.9964 7.45965 6.9964Z" fill="#CBBCCC"/>
<path d="M3.65987 9.53646C3.65987 9.53646 2.81944 12.8091 2.81328 12.8034C2.81328 12.8034 5.19607 14.6592 5.18719 14.6705C5.18719 14.6705 6.23891 11.7377 6.24174 11.7098C6.24174 11.7098 3.66377 9.64681 3.65987 9.53646Z" fill="#ED0049"/>
<path d="M6.56738 7.72932L6.34664 8.58095L6.96563 9.06802L7.24001 8.2957L6.56738 7.72932Z" fill="#ED0049"/>
<path d="M3.22688 15.2997L3.00283 16.1664L3.63223 16.6623L3.91256 15.8763L3.22688 15.2997Z" fill="#ED0049"/>
<path d="M15.4338 14.9191C15.4338 14.9191 15.4289 14.9203 15.4215 14.9251C15.354 14.9633 15.246 14.9967 15.1036 15.0254C15.0962 15.0266 15.0901 15.029 15.0815 15.0302C14.4554 15.1579 13.2095 15.2117 11.9022 15.2009C11.8752 15.2021 11.8482 15.2021 11.8212 15.2009C10.5188 15.1878 9.16735 15.109 8.31669 14.9693C8.31547 14.9693 8.31547 14.9693 8.31547 14.9693C7.89075 14.8976 7.59124 14.8128 7.48567 14.7137C7.46112 14.691 7.4378 14.6528 7.41448 14.6015C6.87192 13.442 6.59328 5.56458 7.10515 5.10127C7.57651 4.67378 9.5086 4.34541 11.4161 4.32272H11.5671C13.5127 4.17346 15.8167 4.3872 15.8167 4.3872C15.8167 4.3872 16.7153 10.5905 15.4338 14.9191Z" fill="#EA7A00"/>
<path d="M15.1075 14.7369C14.5723 14.8432 12.9692 15.1931 11.9025 15.2014C11.8755 15.2026 11.8485 15.2026 11.8215 15.2014C10.0391 15.2122 7.99655 15.094 7.19744 14.8563C7.19622 14.8551 7.19622 14.8551 7.19622 14.8551C7.05137 14.8122 6.94703 14.7656 6.89302 14.7142C6.4769 14.3202 6.20808 9.88891 6.26945 7.13055C6.26945 7.13055 6.26945 7.12936 6.26945 7.12697C6.29523 5.9699 6.47322 4.93581 6.47322 4.93581C6.47322 4.93581 9.32471 4.30891 11.4151 4.32324H11.5661C13.3755 4.34473 15.2339 4.76625 15.2339 4.76625C15.2339 4.76625 15.4438 7.2225 15.434 9.70741C15.4229 12.1995 15.1934 14.7214 15.1075 14.7369Z" fill="#FEC002"/>
<path d="M10.4891 6.32056C10.4891 6.32056 8.48831 9.65447 8.4834 9.64611C8.4834 9.64611 10.5026 12.4749 10.4891 12.4845C10.4891 12.4845 12.6115 9.59476 12.6238 9.56491C12.6238 9.56491 10.4572 6.44355 10.4891 6.32056Z" fill="white"/>
<path d="M7.8902 21.5135C9.95456 21.5135 11.628 19.8401 11.628 17.7757C11.628 15.7113 9.95456 14.0378 7.8902 14.0378C5.82584 14.0378 4.15234 15.7113 4.15234 17.7757C4.15234 19.8401 5.82584 21.5135 7.8902 21.5135Z" fill="#F65B7D"/>
<path d="M7.8902 17.8572C6.48737 17.8572 5.26555 17.0879 4.63202 15.9475C4.3243 16.4905 4.15234 17.115 4.15234 17.7757C4.15234 19.8392 5.82668 21.5136 7.8902 21.5136C9.95371 21.5136 11.628 19.8392 11.628 17.7757C11.628 17.115 11.4561 16.4905 11.1484 15.9475C10.5148 17.0879 9.29302 17.8572 7.8902 17.8572Z" fill="#704760"/>
<path d="M7.86263 20.1923C9.15723 20.1923 10.2067 19.1428 10.2067 17.8482C10.2067 16.5536 9.15723 15.5042 7.86263 15.5042C6.56803 15.5042 5.51855 16.5536 5.51855 17.8482C5.51855 19.1428 6.56803 20.1923 7.86263 20.1923Z" fill="white"/>
<path d="M7.86336 20.319C9.22794 20.319 10.3341 19.2128 10.3341 17.8482C10.3341 16.4836 9.22794 15.3774 7.86336 15.3774C6.49879 15.3774 5.39258 16.4836 5.39258 17.8482C5.39258 19.2128 6.49879 20.319 7.86336 20.319Z" fill="white"/>
<path d="M6.95852 18.7415H17.0941V21.5108L12.3863 32.4033H9.28472L14.0848 21.5108H6.95852V18.7415Z" fill="#224461"/>
<path d="M15.2108 23.9287C17.6212 24.8093 20.2891 23.5691 21.1696 21.1587C22.0502 18.7483 20.81 16.0804 18.3996 15.1999C15.9892 14.3193 13.3213 15.5595 12.4408 17.9699C11.5602 20.3803 12.8004 23.0482 15.2108 23.9287Z" fill="#F65B7D"/>
<path d="M16.7706 19.6594C15.1326 19.061 14.0341 17.6416 13.7808 16.0398C13.1899 16.5426 12.7227 17.1984 12.4409 17.9699C11.5607 20.3793 12.8015 23.0485 15.2109 23.9287C17.6203 24.8089 20.2895 23.5681 21.1697 21.1586C21.4516 20.3872 21.5171 19.5847 21.3895 18.8194C20.1633 19.8807 18.4085 20.2577 16.7706 19.6594Z" fill="#704760"/>
<path d="M15.7422 22.3743C17.2538 22.9265 18.9268 22.1488 19.479 20.6371C20.0313 19.1255 19.2535 17.4525 17.7419 16.9003C16.2303 16.348 14.5572 17.1258 14.005 18.6374C13.4528 20.149 14.2305 21.8221 15.7422 22.3743Z" fill="white"/>
<path d="M15.6883 22.5223C17.2816 23.1044 19.0451 22.2846 19.6271 20.6913C20.2092 19.098 19.3894 17.3345 17.7961 16.7524C16.2028 16.1703 14.4393 16.9901 13.8572 18.5834C13.2752 20.1768 14.0949 21.9403 15.6883 22.5223Z" fill="white"/>
<path d="M15.2669 20.3981L27.1015 24.7214L25.9202 27.9549L15.7771 38.6652L12.1556 37.3422L22.4065 26.6713L14.0856 23.6316L15.2669 20.3981Z" fill="#224461"/>
<path d="M9.99063 2.74347L9.71442 2.53553L8.74452 2.91009C8.42894 2.97459 8.10733 3.10326 7.82302 3.30523C7.53382 3.51067 7.31134 3.76852 7.14655 4.04528L6.44585 4.97288L6.53639 5.11748C6.55524 5.14401 6.57409 5.17054 6.60236 5.21034C7.20551 6.05937 8.46023 6.20598 9.40628 5.53392C10.3523 4.86185 10.6269 3.6288 10.0238 2.77978C10.0095 2.76999 10.0001 2.75673 9.99063 2.74347Z" fill="#FF9A22"/>
<path clip-rule="evenodd" d="M10.3472 3.8745L9.86887 3.20118L9.7474 3.74657L10.2406 4.44083C10.3038 4.25554 10.3398 4.06462 10.3472 3.8745ZM9.57738 5.40762L9.09487 4.72841L8.7419 4.97915L9.22375 5.65744C9.28741 5.62072 9.35002 5.5806 9.41135 5.53704C9.46922 5.49592 9.52458 5.45271 9.57738 5.40762ZM8.00534 5.95622L7.50864 5.25702L6.93066 5.12866L7.43668 5.84096C7.61688 5.9069 7.80869 5.94559 8.00534 5.95622Z" fill="#EA7A00" fill-rule="evenodd"/>
<path d="M9.22817 5.28969C10.1742 4.61762 10.4488 3.38458 9.84569 2.53555C9.24255 1.68652 7.98782 1.5399 7.04177 2.21196C6.09573 2.88402 5.82111 4.11708 6.42425 4.96611C7.02739 5.81514 8.28212 5.96175 9.22817 5.28969Z" fill="#FFE25D"/>
<path d="M9.02124 4.99781C9.78591 4.45459 10.0126 3.45519 9.52257 2.76535C9.03252 2.07552 8.01419 1.96058 7.24951 2.5038C6.48483 3.04702 6.25812 4.04643 6.74817 4.73627C7.23822 5.4261 8.25656 5.54103 9.02124 4.99781Z" fill="#FFB902"/>
<path d="M8.70985 4.56017C9.23434 4.18758 9.37316 3.49013 9.02447 2.99929C8.67578 2.50844 7.96661 2.41342 7.44702 2.78253C6.92253 3.15512 6.78369 3.85256 7.13239 4.34341C7.48108 4.83425 8.18536 4.93276 8.70985 4.56017Z" fill="#FFE25D"/>
<path d="M8.63423 4.45405C9.0852 4.13369 9.22175 3.55762 8.93902 3.15964C8.6563 2.76166 8.0674 2.70096 7.61643 3.02132C7.16547 3.34168 7.02891 3.91775 7.31163 4.31573C7.58493 4.70044 8.18327 4.77441 8.63423 4.45405Z" fill="#FFE25D"/>
<path d="M3.68373 5.94676L4.27559 5.63603L3.57158 4.29507C3.51663 3.87085 3.38573 3.42179 3.16501 3.00138C2.94049 2.57372 2.64899 2.21821 2.33101 1.93209L1.62319 0.583883L1.09711 0.860087C1.06423 0.877349 1.03135 0.894613 0.982025 0.920506C-0.0701449 1.4729 -0.331379 3.05247 0.403071 4.45141C1.13752 5.85036 2.58605 6.5323 3.63822 5.9799C3.65086 5.96402 3.66729 5.95539 3.68373 5.94676Z" fill="#FF9A22"/>
<path clip-rule="evenodd" d="M2.31751 6.10054L3.1523 5.66227L2.5116 5.36064L1.65088 5.81252C1.86703 5.9433 2.09175 6.04047 2.31751 6.10054ZM0.546245 4.70028L1.38805 4.25833L1.11405 3.73644L0.273367 4.17781C0.312633 4.26959 0.356021 4.36094 0.403583 4.45154C0.448546 4.53718 0.496185 4.62013 0.546245 4.70028ZM0.00187939 2.52669L0.8688 2.07155L1.06152 1.36011L0.178273 1.82382C0.0873809 2.03874 0.0281044 2.27586 0.00187939 2.52669Z" fill="#EA7A00" fill-rule="evenodd"/>
<path d="M0.958317 4.15078C1.69277 5.54972 3.1413 6.23165 4.19347 5.67925C5.24564 5.12686 5.50689 3.54729 4.77244 2.14835C4.03799 0.749407 2.58944 0.0674746 1.53727 0.619867C0.485101 1.17226 0.223867 2.75183 0.958317 4.15078Z" fill="#FFE25D"/>
<path d="M1.32018 3.96107C1.91383 5.09182 3.0876 5.64986 3.94249 5.20104C4.79737 4.75222 5.00458 3.46917 4.41093 2.33841C3.81728 1.20766 2.64349 0.649619 1.78861 1.09844C0.933718 1.54726 0.72653 2.83031 1.32018 3.96107Z" fill="#FFB902"/>
<path d="M1.86253 3.67612C2.26971 4.4517 3.09019 4.81613 3.69847 4.49677C4.30676 4.17742 4.46888 3.28788 4.06551 2.51955C3.65832 1.74397 2.83786 1.37954 2.22957 1.69889C1.62129 2.01824 1.45535 2.90054 1.86253 3.67612Z" fill="#FFE25D"/>
<path d="M1.99387 3.60708C2.34397 4.27394 3.02014 4.60317 3.51334 4.34424C4.00655 4.0853 4.1195 3.34178 3.7694 2.67492C3.4193 2.00807 2.74314 1.67882 2.24993 1.93776C1.77317 2.18806 1.64377 2.94023 1.99387 3.60708Z" fill="#FFE25D"/>
<path d="M12.5002 5.89169L12.1184 5.21844L14.1276 4.07922C14.6065 3.68367 15.1814 3.2802 15.8113 2.92304C16.4521 2.55972 17.0827 2.27967 17.668 2.07175L19.688 0.926376L20.0431 1.55272C20.0564 1.57617 20.0697 1.59963 20.0897 1.63481C20.5153 2.38534 19.1668 3.95578 17.0708 5.14426C14.9748 6.33273 12.9348 6.68356 12.5092 5.93303C12.5134 5.91515 12.5068 5.90341 12.5002 5.89169Z" fill="#FF9A22"/>
<path d="M16.7134 4.48845C14.6173 5.67692 12.5774 6.02775 12.1518 5.27721C11.7263 4.52668 13.0747 2.95624 15.1707 1.76776C17.2667 0.579288 19.3067 0.228464 19.7323 0.978997C20.1578 1.72953 18.8094 3.29997 16.7134 4.48845Z" fill="#FFE25D"/>
<path d="M16.5673 4.23034C14.8731 5.19097 13.2145 5.48049 12.8688 4.87068C12.523 4.26087 13.623 2.98628 15.3172 2.02565C17.0114 1.06502 18.6699 0.775499 19.0157 1.38531C19.3614 1.99511 18.2615 3.2697 16.5673 4.23034Z" fill="#FFB902"/>
<path d="M16.3477 3.84364C15.1857 4.50254 14.0522 4.6803 13.8062 4.2464C13.5602 3.8125 14.3055 2.92496 15.4567 2.27222C16.6187 1.61332 17.7522 1.43555 17.9982 1.86945C18.2443 2.30335 17.5098 3.18475 16.3477 3.84364Z" fill="#FFE25D"/>
<path d="M16.2942 3.74968C15.2951 4.31621 14.3318 4.49044 14.1324 4.13863C13.9329 3.78681 14.5769 3.04968 15.5761 2.48316C16.5752 1.91663 17.5385 1.74238 17.738 2.09419C17.9308 2.43428 17.2934 3.18315 16.2942 3.74968Z" fill="#FFE25D"/>
<path d="M19.4106 3.36777L19.0663 2.68986L19.6035 1.9668L19.9545 2.65644C19.8146 2.89071 19.6289 3.12 19.4106 3.36777Z" fill="#EA7A00"/>
<path d="M14.5888 6.17744C14.2598 6.25546 13.9569 6.30328 13.6798 6.3209L13.3229 5.67905L14.2252 5.52387L14.5888 6.17744Z" fill="#EA7A00"/>
<path d="M17.5071 4.8897C17.3659 4.96976 17.2205 5.06769 17.0793 5.14775C16.9707 5.20932 16.8513 5.27706 16.7427 5.33864L16.3763 4.67946L17.1582 4.23608L17.518 4.88354L17.5071 4.8897Z" fill="#EA7A00"/>
</g>
<defs>
<clipPath id="clip0_327_138114">
<rect fill="white" height="24" transform="translate(0 0.305908)" width="24"/>
</clipPath>
</defs>
</svg>