<svg width="200" height="30" viewBox="0 0 200 30" fill="none" xmlns="http://www.w3.org/2000/svg">
<mask id="mask0_1_24" style="mask-type:luminance" maskUnits="userSpaceOnUse" x="0" y="0" width="200" height="30">
<path d="M200 0H0V30H200V0Z" fill="white"/>
</mask>
<g mask="url(#mask0_1_24)">
<path d="M37.0951 7.72501V21.714H43.9927V23.214H35.6361V7.72501H37.0951Z" fill="white"/>
<path d="M58.5657 15.4537C58.5757 16.5661 58.4382 17.6738 58.1576 18.7402C57.9124 19.6808 57.5058 20.5579 56.9611 21.3217C56.4386 22.0414 55.7772 22.6168 55.0275 23.004C54.1977 23.3998 53.306 23.6037 52.4052 23.6037C51.5044 23.6037 50.6127 23.3998 49.783 23.004C49.0345 22.6176 48.3749 22.042 47.8553 21.3217C47.3137 20.5567 46.9093 19.6798 46.6648 18.7402C46.1201 16.5979 46.1201 14.326 46.6648 12.1837C46.9095 11.2477 47.3139 10.3745 47.8553 9.6135C48.3762 8.8962 49.0355 8.32282 49.783 7.93725C50.6128 7.5417 51.5044 7.33789 52.4052 7.33789C53.306 7.33789 54.1977 7.5417 55.0275 7.93725C55.7762 8.32365 56.4373 8.8968 56.9611 9.6135C57.5057 10.3732 57.9122 11.2466 58.1576 12.1837C58.4379 13.2445 58.5755 14.3468 58.5657 15.4537ZM57.0994 15.4537C57.1117 14.5033 56.9888 13.5567 56.7351 12.6502C56.5224 11.8859 56.1841 11.1735 55.738 10.5502C55.3354 9.99375 54.8269 9.54667 54.2504 9.2421C53.6738 8.93752 53.0438 8.78325 52.4072 8.79075C51.7687 8.78482 51.137 8.9385 50.5574 9.24075C49.9811 9.54547 49.4732 9.99307 49.0717 10.5502C48.6282 11.1739 48.293 11.8864 48.0833 12.6502C47.6043 14.482 47.6043 16.4308 48.0833 18.2625C48.2922 19.0278 48.6276 19.7416 49.0717 20.3662C49.6853 21.1987 50.5254 21.779 51.4616 22.017C52.3977 22.2549 53.3772 22.137 54.2478 21.6817C54.8248 21.373 55.334 20.9236 55.7387 20.3662C56.1855 19.7421 56.5238 19.0283 56.7358 18.2625C56.989 17.3541 57.1117 16.4059 57.0994 15.4537Z" fill="white"/>
<path d="M63.1708 7.72501V15.6525L70.1701 7.72501H72.0884L66.6664 13.8203L72.4228 23.2133H70.5689L65.6501 15L63.1701 17.7533V23.2163H61.7137V7.72501H63.1708Z" fill="white"/>
<path d="M84.553 7.72501V9.22501H76.8583V14.4653H84.1036V15.9653H76.8583V21.7163H84.8973V23.2163H75.402V7.72501H84.553Z" fill="white"/>
<path d="M97.9547 7.72501V9.22501H93.4088V23.2148H91.9524V9.22501H87.4165V7.72501H97.9547Z" fill="white"/>
<path d="M100.551 7.83224H102.778V15.7642H102.823L108.88 7.83224H111.526L106.811 13.9072L112.021 23.2327H109.374L105.365 15.7027L102.779 18.5437V23.2327H100.552L100.551 7.83224Z" fill="white"/>
<path d="M121.532 19.7865H115.952L114.822 23.2305H112.46L117.808 7.83224H119.675L125.023 23.2305H122.675L121.532 19.7865ZM120.896 17.7187L118.769 10.9822H118.729L116.602 17.7187H120.896Z" fill="white"/>
<path d="M127.005 7.83224H129.105L135.768 18.7822H135.809V7.83224H138.036V23.2305H135.927L129.273 12.2842H129.232V23.2305H127.005V7.83224Z" fill="white"/>
<path d="M141.783 19.5C142.987 20.5216 144.458 21.0617 145.964 21.0353C147.877 21.0068 148.846 20.2915 148.873 18.8895C148.887 17.7395 148.247 17.049 146.955 16.818C146.362 16.7335 145.713 16.6382 145.006 16.5323C143.928 16.4117 142.914 15.8956 142.12 15.063C141.788 14.6894 141.527 14.244 141.351 13.7537C141.176 13.2632 141.091 12.7379 141.1 12.2093C141.081 11.5928 141.187 10.9796 141.409 10.4159C141.631 9.85223 141.963 9.35273 142.381 8.955C143.382 8.07203 144.632 7.62878 145.9 7.70775C147.593 7.70445 149.251 8.25713 150.67 9.2985L149.428 11.2155C148.331 10.4558 147.07 10.0462 145.783 10.0305C145.175 10.005 144.575 10.1935 144.067 10.5698C143.83 10.7564 143.638 11.0072 143.509 11.2989C143.381 11.5907 143.319 11.9143 143.329 12.24C143.333 12.4685 143.379 12.6938 143.464 12.9011C143.549 13.1085 143.672 13.2936 143.824 13.4445C144.273 13.871 144.824 14.1358 145.408 14.205C145.811 14.2755 146.364 14.3565 147.064 14.448C148.217 14.5266 149.305 15.0794 150.121 16.002C150.76 16.7849 151.11 17.8129 151.1 18.8768C151.027 21.8228 149.305 23.3168 145.937 23.3588C143.906 23.4145 141.92 22.6721 140.32 21.2588L141.783 19.5Z" fill="white"/>
<path d="M154.025 19.5C155.229 20.5217 156.701 21.062 158.207 21.0353C160.119 21.0068 161.088 20.2915 161.116 18.8895C161.129 17.7395 160.49 17.049 159.197 16.818C158.605 16.7335 157.956 16.6382 157.249 16.5323C156.17 16.4117 155.156 15.8957 154.362 15.063C154.03 14.6894 153.769 14.244 153.594 13.7537C153.419 13.2632 153.333 12.7379 153.342 12.2093C153.324 11.5928 153.43 10.9797 153.652 10.416C153.874 9.8523 154.206 9.3528 154.623 8.955C155.624 8.07195 156.874 7.62878 158.142 7.70776C159.835 7.70446 161.492 8.25721 162.912 9.29851L161.67 11.2155C160.572 10.4557 159.312 10.0462 158.025 10.0305C157.416 10.0049 156.817 10.1934 156.308 10.5698C156.071 10.7564 155.88 11.0072 155.751 11.2989C155.622 11.5907 155.56 11.9143 155.571 12.24C155.574 12.4685 155.62 12.6938 155.705 12.9011C155.791 13.1086 155.913 13.2936 156.065 13.4445C156.514 13.8712 157.066 14.1361 157.65 14.205C158.054 14.2755 158.606 14.3565 159.306 14.448C160.459 14.5266 161.547 15.0794 162.363 16.002C163.002 16.7849 163.352 17.8129 163.342 18.8768C163.268 21.8228 161.547 23.3168 158.179 23.3588C156.148 23.4145 154.162 22.6721 152.562 21.2588L154.025 19.5Z" fill="white"/>
<path d="M166.086 7.83225H171.419C171.981 7.8306 172.543 7.88707 173.096 8.001C173.69 8.17882 174.245 8.48752 174.733 8.90925C175.218 9.28147 175.607 9.79132 175.863 10.3875C176.255 11.2436 176.398 12.2171 176.273 13.1702C176.148 14.1235 175.76 15.0081 175.165 15.699C174.717 16.214 174.177 16.6159 173.581 16.8781C172.985 17.1403 172.347 17.2568 171.708 17.22H168.314V23.2297H166.086L166.086 7.83225ZM168.313 15.0255H171.62C171.964 15.0477 172.309 14.9874 172.632 14.8484C172.954 14.7094 173.246 14.495 173.49 14.2192C173.872 13.7583 174.085 13.152 174.089 12.5212C174.101 12.0706 174.018 11.6231 173.846 11.2162C173.676 10.8976 173.43 10.6381 173.138 10.4662C172.653 10.155 172.1 10.0042 171.543 10.0312H168.317L168.313 15.0255Z" fill="white"/>
<path d="M178.734 7.83224H188.134V10.0282H180.962V14.4345H187.083V16.5022H180.962V21.0345H188.133V23.2305H178.734V7.83224Z" fill="white"/>
<path d="M190.601 7.83224H192.828V21.0322H199.999V23.2282H190.601V7.83224Z" fill="white"/>
<path d="M30.2919 25.8337H2.23207C1.64013 25.8329 1.07263 25.5673 0.65406 25.095C0.235493 24.6227 3.22613e-05 23.9824 -0.000671387 23.3145V2.51925C3.22613e-05 1.85134 0.235493 1.21102 0.65406 0.738748C1.07263 0.266469 1.64013 0.000793943 2.23207 0H30.2912C30.8831 0.000793943 31.4506 0.266469 31.8692 0.738748C32.2878 1.21102 32.5232 1.85134 32.5239 2.51925V23.3145C32.5232 23.9823 32.2878 24.6225 31.8695 25.0947C31.451 25.567 30.8837 25.8328 30.2919 25.8337ZM2.23207 1.90275C2.08763 1.90275 1.94909 1.96744 1.84689 2.08261C1.74469 2.19778 1.68719 2.35402 1.68701 2.517V23.3123C1.68719 23.4753 1.74467 23.6316 1.84685 23.7469C1.94903 23.8622 2.08757 23.927 2.23207 23.9272H30.2912C30.4358 23.9272 30.5744 23.8624 30.6766 23.7471C30.7788 23.6317 30.8363 23.4754 30.8363 23.3123V2.51925C30.8361 2.35627 30.7786 2.20003 30.6764 2.08486C30.5742 1.96969 30.4356 1.905 30.2912 1.905L2.23207 1.90275Z" fill="white"/>
<path d="M30.1516 30H2.367C2.02711 30 1.70114 29.8477 1.4608 29.5765C1.22046 29.3053 1.08545 28.9375 1.08545 28.554V27.5347H31.4332V28.5502C31.4336 28.7404 31.4008 28.9289 31.3366 29.1047C31.2724 29.2806 31.178 29.4405 31.059 29.5751C30.9399 29.7098 30.7985 29.8167 30.6428 29.8896C30.4871 29.9625 30.3202 30 30.1516 30Z" fill="white"/>
<path d="M2.16492 0.951752H30.3577C30.7085 0.951752 31.0449 1.109 31.293 1.38889C31.541 1.66879 31.6804 2.04842 31.6804 2.44425V3.53025H0.842163V2.442C0.842688 2.04656 0.982283 1.66751 1.2303 1.38809C1.4783 1.10868 1.81445 0.951752 2.16492 0.951752Z" fill="white"/>
<path d="M22.5567 22.5052H9.96191L11.2853 16.9237C11.3488 16.4761 11.5408 16.0644 11.8319 15.752C12.1231 15.4396 12.4972 15.2439 12.8966 15.195H19.6214C20.0209 15.2437 20.3952 15.4394 20.6864 15.7518C20.9777 16.0642 21.1699 16.476 21.2333 16.9237L22.5567 22.5052Z" fill="white"/>
<path d="M16.2593 14.109C18.2185 14.109 19.8068 12.3169 19.8068 10.1063C19.8068 7.89563 18.2185 6.1035 16.2593 6.1035C14.3 6.1035 12.7118 7.89563 12.7118 10.1063C12.7118 12.3169 14.3 14.109 16.2593 14.109Z" fill="white"/>
</g>
</svg>
