<?xml version="1.0" encoding="utf-8"?>
<svg xmlns="http://www.w3.org/2000/svg" fill="none" height="25" viewBox="0 0 24 25" width="24">
<g clip-path="url(#clip0_327_138122)">
<path d="M0.660022 13.2353C0.665953 13.2852 0.714907 14.9749 1.44253 15.7742C2.17312 16.5983 3.04006 16.0145 3.06205 15.9866C3.06205 15.9866 3.80248 15.19 3.06893 14.3409C2.36329 13.5137 0.709929 13.2294 0.660022 13.2353Z" fill="#F4C151"/>
<path d="M3.08735 15.9838C3.08735 15.9838 3.82778 15.1873 3.09423 14.3381C2.38859 13.511 0.735228 13.2267 0.685321 13.2326C0.685321 13.2326 1.14439 14.1143 1.84706 14.9166C2.52774 15.7467 3.08735 15.9838 3.08735 15.9838Z" fill="#FCBF1B"/>
<path d="M2.59204 13.9421C1.79722 13.4292 0.685673 13.2323 0.660719 13.2353C0.663685 13.2603 0.707436 14.2673 1.06076 15.111C1.19146 15.1461 1.35007 15.2032 1.45285 15.2163C1.68336 15.2395 2.08558 15.217 2.08558 15.217C2.08558 15.217 2.24247 15.0465 2.46358 14.5647C2.51768 14.3812 2.56586 14.1477 2.59204 13.9421Z" fill="#FFF5D2"/>
<path d="M2.43866 14.568C2.51772 14.3815 2.56589 14.148 2.59208 13.9424C1.79726 13.4295 0.685709 13.2326 0.660755 13.2356C0.660755 13.2356 1.11982 14.1174 1.82249 14.9196C1.91218 15.0354 1.9989 15.1264 2.08266 15.1923C2.08266 15.1923 2.2425 15.0468 2.43866 14.568Z" fill="#FFDE3E"/>
<path d="M2.87134 15.6553C2.67887 15.5263 2.57016 15.4633 2.23513 15.1995C1.81339 14.8447 1.44155 14.484 1.44155 14.484C1.44155 14.484 1.71654 14.8815 2.07529 15.345C2.34138 15.6677 2.60748 15.9903 2.753 16.1502C2.8249 16.1163 2.92175 16.0795 2.99364 16.0457C3.08752 15.9839 3.12854 15.9031 3.12854 15.9031C3.17548 15.8722 3.00796 15.7403 2.87134 15.6553Z" fill="#FC9A2C"/>
<path d="M0.374191 16.1544C0.40804 16.2263 1.50851 18.2465 2.89209 18.816C4.30062 19.3825 5.01263 18.1338 5.03462 18.1059C5.03462 18.1059 5.47337 16.6872 4.03396 16.0738C2.64742 15.4794 0.449052 16.1455 0.374191 16.1544Z" fill="#FCBF1B"/>
<path d="M5.03437 18.1061C5.03437 18.1061 5.47312 16.6874 4.03371 16.074C2.64717 15.4796 0.423847 16.1487 0.37394 16.1546C0.37394 16.1546 1.4818 16.9593 2.84042 17.5317C4.19904 18.1041 5.03437 18.1061 5.03437 18.1061Z" fill="#FFDE3E"/>
<path d="M3.25047 15.8344C1.96721 15.6832 0.4747 16.1136 0.427759 16.1445C0.458643 16.1915 1.10894 17.4048 2.04212 18.2302C2.24175 18.2065 2.46337 18.1549 2.58517 18.1151C2.87868 18.0296 3.35106 17.7457 3.35106 17.7457C3.35106 17.7457 3.46817 17.4534 3.40713 16.7268C3.42145 16.4214 3.33299 16.103 3.25047 15.8344Z" fill="#FCBF1B"/>
<path d="M3.47068 16.7311C3.46284 16.4474 3.37237 16.1216 3.26244 15.85C1.94994 15.6954 0.42343 16.1356 0.375419 16.1672C0.375419 16.1672 1.50852 16.9902 2.89809 17.5756C3.06336 17.6595 3.25111 17.7149 3.41334 17.7732C3.41031 17.7477 3.53008 17.4488 3.47068 16.7311Z" fill="#FFDE3E"/>
<path d="M3.4351 15.5121C3.44103 15.562 3.60043 17.5422 4.49557 18.4734C5.41565 19.4016 6.39253 18.6781 6.41452 18.6502C6.41452 18.6502 7.23698 17.6921 6.33591 16.711C5.46276 15.7519 3.50996 15.5032 3.4351 15.5121Z" fill="#EFAE00"/>
<path d="M6.43693 18.6224C6.43693 18.6224 7.25938 17.6642 6.35832 16.6832C5.48813 15.749 3.51037 15.5032 3.4575 15.4842C3.4575 15.4842 4.05616 16.4759 4.90139 17.413C5.74959 18.3751 6.43693 18.6224 6.43693 18.6224Z" fill="#EEC603"/>
<path d="M5.74699 16.2246C4.79356 15.6547 3.48534 15.5065 3.43247 15.4874C3.4384 15.5373 3.52787 16.7161 3.99583 17.6727C4.15148 17.7048 4.33505 17.7589 4.46278 17.7691C4.71825 17.7893 5.19236 17.733 5.19236 17.733C5.19236 17.733 5.37123 17.5346 5.60544 16.95C5.6845 16.7635 5.72674 16.4801 5.74699 16.2246Z" fill="#EFAE00"/>
<path d="M5.60813 16.9746C5.68422 16.7631 5.72647 16.4797 5.74672 16.2243C4.79328 15.6543 3.48507 15.5061 3.4322 15.4871C3.4322 15.4871 4.03086 16.4788 4.87609 17.4159C4.99073 17.5288 5.08042 17.6447 5.19209 17.7326C5.22001 17.7546 5.39888 17.5562 5.60813 16.9746Z" fill="#EEC603"/>
<path d="M5.14009 17.0807C5.11513 17.0837 5.11513 17.0837 5.14009 17.0807C5.14898 17.1556 5.66836 19.3967 6.84095 20.3202C8.04146 21.2657 9.05762 20.2339 9.10456 20.203C9.10456 20.203 9.89143 18.9454 8.68796 17.975C7.51537 17.0515 5.18999 17.0748 5.14009 17.0807Z" fill="#EFAE00"/>
<path d="M9.105 20.2032C9.105 20.2032 9.91683 18.9426 8.68841 17.9751C7.51285 17.0267 5.19044 17.0749 5.14053 17.0808C5.14053 17.0808 5.97564 18.1457 7.12327 19.0721C8.27091 19.9986 9.105 20.2032 9.105 20.2032Z" fill="#FFDE3E"/>
<path d="M7.93039 17.559C6.73335 17.0686 5.19043 17.0749 5.14052 17.0808C5.14645 17.1307 5.45926 18.4853 6.13872 19.5181C6.34427 19.5442 6.54687 19.5455 6.69955 19.5526C7.00196 19.542 7.54204 19.4019 7.54204 19.4019C7.54204 19.4019 7.73994 19.1506 7.88149 18.4253C7.92669 18.1668 7.94102 17.8615 7.93039 17.559Z" fill="#EFAE00"/>
<path d="M7.88513 18.4503C7.95529 18.1889 7.94169 17.8615 7.93106 17.5591C6.73402 17.0687 5.1911 17.0749 5.1412 17.0809C5.1412 17.0809 5.9763 18.1457 7.12394 19.0722C7.26353 19.1821 7.40312 19.292 7.54272 19.402C7.54272 19.402 7.73765 19.1258 7.88513 18.4503Z" fill="#FFDE3E"/>
<path d="M3.97633 22.8369C3.99535 22.784 4.90599 20.6513 6.24111 19.9612C7.60119 19.2682 8.4232 20.4358 8.42913 20.4857C8.42913 20.4857 8.99741 21.8606 7.61831 22.6065C6.3111 23.3186 4.0292 22.8559 3.97633 22.8369Z" fill="#FFDE3E"/>
<path d="M8.45452 20.4828C8.45452 20.4828 9.0228 21.8577 7.6437 22.6036C6.31154 23.3186 4.05459 22.853 3.97677 22.8369C3.97677 22.8369 5.01071 21.9548 6.29297 21.2457C7.57522 20.5366 8.45452 20.4828 8.45452 20.4828Z" fill="#FFDE3E"/>
<path d="M6.81639 22.8787C5.53363 23.1577 4.02999 22.8556 3.97712 22.8366C3.99614 22.7837 4.5525 21.5029 5.40881 20.6167C5.61437 20.6428 5.81993 20.669 5.97558 20.7011C6.28688 20.7654 6.79658 21.0085 6.79658 21.0085C6.79658 21.0085 6.93198 21.296 6.94311 22.0286C6.92286 22.2841 6.88358 22.5924 6.81639 22.8787Z" fill="#FCBF1B"/>
<path d="M6.91524 22.007C6.9229 22.2845 6.85867 22.5958 6.79148 22.8821C5.50872 23.1611 4.00508 22.8589 3.95221 22.8399C3.95221 22.8399 4.98615 21.9579 6.2684 21.2488C6.43418 21.1532 6.60293 21.0825 6.74672 21.0148C6.77167 21.0118 6.90707 21.2994 6.91524 22.007Z" fill="#FFF5D2"/>
<path d="M8.49712 20.6295C8.20361 20.715 7.54173 20.8949 6.98262 21.0879C6.27676 21.3236 5.60475 21.6312 5.60475 21.6312C5.60475 21.6312 6.14013 21.2386 6.85315 20.8502C7.37544 20.5604 7.84783 20.2765 8.13541 20.1411C8.33084 20.295 8.42646 20.4608 8.42646 20.4608C8.45437 20.4828 8.46031 20.5327 8.49712 20.6295Z" fill="#FCBF1B"/>
<path d="M2.21378 18.6434C2.24467 18.6903 3.14624 20.1015 4.1728 20.435C5.22432 20.7656 5.6695 19.827 5.69149 19.7991C5.69149 19.7991 5.92223 18.7594 4.86478 18.3789C3.83822 18.0454 2.26369 18.6374 2.21378 18.6434Z" fill="#F4C151"/>
<path d="M5.69467 19.8242C5.69467 19.8242 5.92541 18.7845 4.86796 18.4041C3.83844 18.0456 2.26391 18.6376 2.21696 18.6685C2.21696 18.6685 3.06169 19.1754 4.06626 19.5369C5.09579 19.8953 5.69467 19.8242 5.69467 19.8242Z" fill="#FCBF1B"/>
<path d="M4.24829 18.3007C3.30721 18.2607 2.26387 18.6377 2.21693 18.6686C2.24485 18.6906 2.77877 19.5634 3.49873 20.0852C3.64549 20.0425 3.79224 19.9997 3.88909 19.9629C4.10774 19.8863 4.43337 19.6452 4.43337 19.6452C4.43337 19.6452 4.50946 19.4337 4.42223 18.9126C4.39851 18.713 4.32192 18.4944 4.24829 18.3007Z" fill="#FFF5D2"/>
<path d="M4.4227 18.9128C4.39897 18.7132 4.32238 18.4945 4.24875 18.3008C3.30768 18.2608 2.26433 18.6379 2.21739 18.6688C2.21739 18.6688 3.06212 19.1757 4.06669 19.5372C4.19739 19.5722 4.32808 19.6073 4.43383 19.6454C4.43383 19.6454 4.50696 19.4089 4.4227 18.9128Z" fill="#FFDE3E"/>
<path d="M5.3657 19.6102C6.03696 19.9353 6.82113 20.1458 7.58157 20.1566C8.34202 20.1675 9.10665 20.0007 9.74776 19.6462C10.0823 19.4799 10.3829 19.2417 10.6557 18.9816C10.7935 18.864 10.9284 18.7214 11.0633 18.5789L11.2392 18.3555C11.2612 18.3276 11.3052 18.2718 11.3492 18.2159C11.3931 18.1601 11.4401 18.1292 11.487 18.0983C11.8287 17.7794 12.26 17.5763 12.7033 17.473C13.1465 17.3697 13.6295 17.3882 14.0715 17.4875L13.88 18.2188C13.5408 18.1326 13.1826 18.0993 12.8611 18.1628C12.5397 18.2263 12.2052 18.3925 11.9515 18.5998C11.9295 18.6277 11.8826 18.6586 11.8606 18.6866C11.8386 18.7145 11.8166 18.7424 11.7697 18.7733L11.5439 19.0025C11.384 19.1481 11.2491 19.2906 11.0893 19.4361C10.7666 19.7022 10.4161 19.9463 10.0346 20.1435C9.26873 20.5129 8.40428 20.6915 7.56009 20.6147C6.71886 20.5628 5.90677 20.3304 5.17374 19.9114L5.3657 19.6102Z" fill="#FCBF1B"/>
<path d="M22.8912 10.2855C22.8971 10.3354 23.2455 11.9895 22.7255 12.937C22.2084 13.9094 21.2288 13.545 21.2008 13.523C21.2008 13.523 20.2943 12.9222 20.8085 11.9248C21.3006 10.9553 22.8413 10.2914 22.8912 10.2855Z" fill="#F4C151"/>
<path d="M21.1754 13.5259C21.1754 13.5259 20.2689 12.9251 20.783 11.9277C21.2751 10.9582 22.8158 10.2943 22.8657 10.2883C22.8657 10.2883 22.6261 11.2531 22.131 12.1977C21.6638 13.1642 21.1754 13.5259 21.1754 13.5259Z" fill="#FCBF1B"/>
<path d="M21.179 11.425C21.8314 10.7402 22.8659 10.2883 22.8908 10.2853C22.8938 10.3102 23.0873 11.2995 22.9415 12.2025C22.8227 12.2672 22.6819 12.3599 22.585 12.3967C22.3664 12.4733 21.9701 12.5457 21.9701 12.5457C21.9701 12.5457 21.7776 12.4167 21.4497 12.0002C21.3541 11.8344 21.2526 11.6187 21.179 11.425Z" fill="#FFF5D2"/>
<path d="M21.4738 11.9973C21.3532 11.8345 21.2516 11.6188 21.178 11.4251C21.8305 10.7402 22.8649 10.2883 22.8899 10.2853C22.8899 10.2853 22.6503 11.2501 22.1552 12.1947C22.0951 12.3283 22.0321 12.437 21.9662 12.5208C21.9662 12.5208 21.7767 12.4168 21.4738 11.9973Z" fill="#FFDE3E"/>
<path d="M21.309 13.156C21.4658 12.9855 21.5568 12.8988 21.8206 12.5638C22.1475 12.12 22.4244 11.6822 22.4244 11.6822C22.4244 11.6822 22.2502 12.1331 22.0101 12.6678C21.827 13.0438 21.644 13.4198 21.54 13.6093C21.4621 13.5933 21.3594 13.5802 21.2815 13.5641C21.1758 13.5261 21.117 13.4572 21.117 13.4572C21.0641 13.4381 21.196 13.2706 21.309 13.156Z" fill="#FC9A2C"/>
<path d="M23.8517 13.056C23.8356 13.1338 23.2393 15.3557 22.0277 16.2335C20.7911 17.1143 19.8063 16.0673 19.7784 16.0453C19.7784 16.0453 19.0194 14.769 20.2749 13.8353C21.4836 12.9325 23.7768 13.0649 23.8517 13.056Z" fill="#FCBF1B"/>
<path d="M19.7781 16.0453C19.7781 16.0453 19.0191 14.769 20.2747 13.8353C21.4833 12.9325 23.8015 13.0619 23.8514 13.0559C23.8514 13.0559 22.963 14.0978 21.7764 14.9727C20.5897 15.8476 19.7781 16.0453 19.7781 16.0453Z" fill="#FFDE3E"/>
<path d="M20.9805 13.4189C22.1926 12.9712 23.7444 13.0399 23.7973 13.0589C23.7783 13.1118 23.4304 14.4437 22.7167 15.4649C22.517 15.4886 22.2895 15.4903 22.1618 15.4802C21.8564 15.4659 21.3306 15.3006 21.3306 15.3006C21.3306 15.3006 21.1483 15.0439 21.0373 14.3232C20.9518 14.0297 20.9632 13.6994 20.9805 13.4189Z" fill="#FCBF1B"/>
<path d="M20.9761 14.3426C20.9173 14.0649 20.9289 13.727 20.9721 13.4372C22.2118 12.9793 23.799 13.0495 23.853 13.0689C23.853 13.0689 22.9444 14.1346 21.7307 15.0294C21.5897 15.1497 21.4201 15.2475 21.2761 15.3422C21.2731 15.3167 21.0866 15.0542 20.9761 14.3426Z" fill="#FFDE3E"/>
<path d="M20.7261 13.1492C20.732 13.1991 21.0411 15.1615 20.3892 16.2765C19.7122 17.3945 18.593 16.9202 18.5651 16.8982C18.5651 16.8982 17.541 16.1595 18.187 14.9945C18.8111 13.8575 20.6512 13.1581 20.7261 13.1492Z" fill="#EFAE00"/>
<path d="M18.5367 16.8759C18.5367 16.8759 17.5126 16.1372 18.1587 14.9723C18.7857 13.8602 20.6508 13.1578 20.6977 13.1269C20.6977 13.1269 20.3481 14.2313 19.7461 15.3404C19.1469 16.4744 18.5367 16.8759 18.5367 16.8759Z" fill="#EEC603"/>
<path d="M18.6454 14.3833C19.4387 13.6058 20.6758 13.1551 20.7227 13.1242C20.7287 13.1741 20.9179 14.341 20.6872 15.3807C20.5434 15.4484 20.3776 15.544 20.2558 15.5838C20.0122 15.6633 19.5381 15.7197 19.5381 15.7197C19.5381 15.7197 19.3177 15.5687 18.953 15.0553C18.8325 14.8925 18.725 14.6269 18.6454 14.3833Z" fill="#EFAE00"/>
<path d="M18.9557 15.0802C18.8322 14.8924 18.7247 14.6268 18.6452 14.3832C19.4385 13.6057 20.6755 13.155 20.7225 13.1241C20.7225 13.1241 20.3729 14.2285 19.7708 15.3376C19.6858 15.4742 19.6258 15.6079 19.5378 15.7196C19.5158 15.7475 19.2955 15.5965 18.9557 15.0802Z" fill="#EEC603"/>
<path d="M19.4353 15.0739C19.4602 15.0709 19.4602 15.0709 19.4353 15.0739C19.4442 15.1487 19.4645 17.4491 18.541 18.6217C17.5955 19.8222 16.3658 19.0574 16.313 19.0383C16.313 19.0383 15.2533 18.0002 16.1958 16.7747C17.1193 15.6021 19.3854 15.0798 19.4353 15.0739Z" fill="#EFAE00"/>
<path d="M16.313 19.0385C16.313 19.0385 15.2283 18.0034 16.1958 16.7749C17.1163 15.5774 19.3854 15.08 19.4353 15.0741C19.4353 15.0741 18.873 16.305 17.9744 17.4746C17.0759 18.6442 16.313 19.0385 16.313 19.0385Z" fill="#FFDE3E"/>
<path d="M16.8357 16.1926C17.8844 15.4353 19.3858 15.0798 19.4357 15.0738C19.4417 15.1237 19.455 16.514 19.0365 17.6772C18.8428 17.7508 18.6462 17.7995 18.4994 17.8422C18.203 17.9027 17.6451 17.8931 17.6451 17.8931C17.6451 17.8931 17.3938 17.6952 17.0862 17.0232C16.9817 16.7826 16.8962 16.4891 16.8357 16.1926Z" fill="#EFAE00"/>
<path d="M17.0889 17.0482C16.9594 16.8106 16.8959 16.4891 16.8354 16.1927C17.8841 15.4354 19.3855 15.0798 19.4354 15.0739C19.4354 15.0739 18.8732 16.3048 17.9746 17.4744C17.8647 17.614 17.7547 17.7536 17.6448 17.8932C17.6448 17.8932 17.3905 17.6703 17.0889 17.0482Z" fill="#FFDE3E"/>
<path d="M21.9157 20.3967C21.8849 20.3498 20.4998 18.4899 19.0401 18.132C17.5555 17.777 17.03 19.1047 17.0359 19.1546C17.0359 19.1546 16.8057 20.6244 18.3212 21.0263C19.7589 21.4122 21.8688 20.4276 21.9157 20.3967Z" fill="#FFDE3E"/>
<path d="M17.0105 19.1573C17.0105 19.1573 16.7803 20.6271 18.2958 21.029C19.7584 21.4119 21.8434 20.4303 21.9153 20.3965C21.9153 20.3965 20.7034 19.7813 19.2907 19.3924C17.878 19.0036 17.0105 19.1573 17.0105 19.1573Z" fill="#FFDE3E"/>
<path d="M19.165 21.1027C20.4774 21.0733 21.8683 20.4272 21.9153 20.3963C21.8844 20.3493 21.0434 19.2346 20.0032 18.5737C19.8095 18.6473 19.6158 18.721 19.472 18.7887C19.1845 18.9241 18.7459 19.2799 18.7459 19.2799C18.7459 19.2799 18.6817 19.5912 18.8425 20.3059C18.9221 20.5495 19.0325 20.8401 19.165 21.1027Z" fill="#FCBF1B"/>
<path d="M18.8645 20.2781C18.9221 20.5496 19.0575 20.8372 19.1899 21.0998C20.5023 21.0704 21.8933 20.4243 21.9402 20.3934C21.9402 20.3934 20.7283 19.7782 19.3156 19.3894C19.132 19.3353 18.9514 19.3061 18.7958 19.274C18.7708 19.277 18.7066 19.5883 18.8645 20.2781Z" fill="#FFF5D2"/>
<path d="M17.003 19.3102C17.3084 19.3245 17.994 19.3443 18.5827 19.4008C19.3242 19.4646 20.0495 19.6061 20.0495 19.6061C20.0495 19.6061 19.4371 19.3499 18.6529 19.1394C18.0772 18.9801 17.5515 18.8148 17.2402 18.7506C17.0862 18.946 17.0321 19.1296 17.0321 19.1296C17.0101 19.1575 17.0161 19.2074 17.003 19.3102Z" fill="#FCBF1B"/>
<path d="M22.6475 15.9067C22.6285 15.9596 22.0828 17.5428 21.1629 18.1076C20.2182 18.6754 19.5654 17.8673 19.5375 17.8453C19.5375 17.8453 19.0695 16.8887 20.0084 16.271C20.9282 15.7062 22.5976 15.9127 22.6475 15.9067Z" fill="#F4C151"/>
<path d="M19.5407 17.8704C19.5407 17.8704 19.0727 16.9138 20.0115 16.2961C20.9284 15.7063 22.5978 15.9128 22.6507 15.9319C22.6507 15.9319 21.9483 16.6227 21.0564 17.2095C20.1396 17.7992 19.5407 17.8704 19.5407 17.8704Z" fill="#FCBF1B"/>
<path d="M20.5897 16.0502C21.4952 15.7907 22.5979 15.9127 22.6507 15.9318C22.6287 15.9597 22.3142 16.9334 21.7366 17.6094C21.5839 17.6022 21.4312 17.595 21.3285 17.5819C21.098 17.5587 20.7249 17.4006 20.7249 17.4006C20.7249 17.4006 20.6014 17.2128 20.564 16.6859C20.5403 16.4862 20.5635 16.2557 20.5897 16.0502Z" fill="#FFF5D2"/>
<path d="M20.5635 16.6858C20.5398 16.4862 20.563 16.2556 20.5892 16.0501C21.4947 15.7906 22.5973 15.9127 22.6502 15.9317C22.6502 15.9317 21.9478 16.6225 21.0559 17.2093C20.9371 17.274 20.8183 17.3388 20.7244 17.4005C20.7244 17.4005 20.5979 17.1878 20.5635 16.6858Z" fill="#FFDE3E"/>
<path d="M19.8106 17.5853C19.2342 18.0586 18.5212 18.447 17.7845 18.6358C17.0477 18.8246 16.2653 18.8416 15.559 18.6472C15.1948 18.564 14.8467 18.4029 14.5206 18.2139C14.359 18.1319 14.1945 18.0249 14.0299 17.9179L13.8066 17.742C13.7787 17.72 13.7228 17.6761 13.667 17.6321C13.6111 17.5881 13.5583 17.5691 13.5054 17.5501C13.0985 17.3201 12.6316 17.2237 12.1765 17.2272C11.7214 17.2307 11.2562 17.3619 10.8498 17.562L11.2073 18.2281C11.5169 18.0647 11.8573 17.9484 12.1846 17.9348C12.512 17.9212 12.8762 18.0044 13.1714 18.1465C13.1993 18.1685 13.2522 18.1875 13.2801 18.2095C13.308 18.2315 13.3359 18.2535 13.3888 18.2725L13.6621 18.4424C13.8516 18.5465 14.0161 18.6534 14.2056 18.7574C14.5816 18.9405 14.9796 19.0956 15.3967 19.1979C16.2278 19.3775 17.11 19.3486 17.9127 19.0761C18.7183 18.8285 19.4533 18.4122 20.0678 17.8331L19.8106 17.5853Z" fill="#FCBF1B"/>
<path d="M3.76397 4.46709L11.6837 2.06974L17.9097 3.24371L17.138 7.03744L8.01926 7.78663L3.76397 4.46709Z" fill="#005F39"/>
<path d="M12.9216 19.4777L8.01909 7.78665L0.347077 10.9505L12.9216 19.4777Z" fill="#00AC81"/>
<path d="M12.914 19.4964L17.1373 7.03733L21.8672 8.34062L12.914 19.4964Z" fill="#00AC81"/>
<path d="M17.1385 7.03749L8.01975 7.78668L12.9152 19.4965L17.1385 7.03749Z" fill="#00C8A7"/>
<path d="M0.346661 10.9506L1.70486 7.37905L3.76339 4.46724L8.01867 7.78677L0.346661 10.9506Z" fill="#008D64"/>
<path d="M21.8673 8.34028L20.4995 5.43923L17.9091 3.24325L17.1374 7.03698L21.8673 8.34028Z" fill="#008D64"/>
<path d="M8.01942 7.78655L11.6839 2.06966L17.1382 7.03737L8.01942 7.78655Z" fill="#00BA93"/>
<path d="M5.8001 6.05622L7.50124 3.3423L9.80417 5.00387L8.01876 7.78673L5.8001 6.05622Z" fill="#00C8A7"/>
<path d="M14.1639 4.33887L14.9637 2.70337L17.568 4.85058L17.138 7.03736L14.1639 4.33887Z" fill="#00C8A7"/>
<path d="M9.8038 5.00382L12.5264 7.45049L14.163 4.33901L11.6829 2.06979L9.8038 5.00382Z" fill="#ABE7D9"/>
<path clip-rule="evenodd" d="M-86.378 -107.901L-78.6041 -110.072L-72.5574 -108.796L-70.0777 -106.6L-68.8049 -103.742L-77.7711 -93.0526L-77.7712 -93.0522L-77.7835 -93.0838L-89.8467 -101.651L-88.4468 -105.105L-86.378 -107.901ZM14.1156 16.9997L12.8985 14.8505C12.8843 14.8317 12.8683 14.8159 12.8511 14.8032C12.8392 14.7944 12.8268 14.7871 12.814 14.7812C12.7682 14.7601 12.7177 14.7573 12.6711 14.7721L12.6708 14.7662L12.6673 14.7665C12.6649 14.7669 12.6625 14.7675 12.66 14.7684C12.6536 14.7705 12.6466 14.774 12.6392 14.7789L12.6313 14.7844L12.6235 14.7906C12.5842 14.8086 12.544 14.8413 12.5458 14.8715L12.5223 14.9278C12.5156 14.9417 12.5096 14.956 12.5045 14.9706L11.5924 17.15C11.5533 17.1941 11.5142 17.2382 11.4728 17.244L11.4674 17.2446L9.56287 17.6339L9.06253 17.7361C9.03912 17.7375 9.02219 17.7416 9.00919 17.7479C8.91061 17.7902 8.86856 17.9392 8.98846 18.0457L10.8716 19.676C10.9176 19.7168 10.9202 19.7602 10.9254 19.847L10.636 22.3038C10.6139 22.3864 10.6756 22.4639 10.7555 22.488L10.755 22.4889L10.7613 22.4902C10.7697 22.4919 10.7783 22.4937 10.7873 22.4949C10.8024 22.4969 10.8188 22.4974 10.8377 22.4937C10.8415 22.4932 10.8453 22.4926 10.8492 22.4917C10.859 22.4895 10.869 22.4861 10.8789 22.4816C10.8852 22.4788 10.8914 22.4754 10.8977 22.4715C10.9026 22.4685 10.9074 22.4651 10.9123 22.4615L13.0155 21.2036L13.0535 21.2014L13.1027 21.1979L13.1887 21.1929L13.1891 21.1933L15.4268 22.1927L15.4298 22.1944C15.4606 22.2198 15.5013 22.2206 15.5345 22.2139C15.6339 22.1993 15.7147 22.0979 15.6769 22.0035L15.0981 19.5985C15.0929 19.5117 15.0903 19.4683 15.1311 19.4223L16.8075 17.58C16.9036 17.4716 16.8644 17.3445 16.7801 17.2986C16.7635 17.2862 16.7415 17.2789 16.7025 17.2812L14.251 17.0787C14.2425 17.0792 14.2339 17.0781 14.2253 17.0756C14.2089 17.0709 14.1923 17.0615 14.1754 17.0495C14.1656 17.0425 14.1557 17.0345 14.1458 17.0262C14.1358 17.0178 14.1259 17.0089 14.1159 17.0001L14.1156 16.9997Z" fill="#FFDE3E" fill-rule="evenodd"/>
<path d="M20.1402 4.77635L20.7349 3.27776L22.1621 2.70687L20.6397 2.0884L19.9737 0.542236L19.5693 2.0884L17.9518 2.70687L19.4504 3.2064L20.1402 4.77635Z" fill="white"/>
<path d="M22.5237 6.45193L22.9188 5.45614L23.8672 5.07679L22.8556 4.66583L22.413 3.63843L22.1443 4.66583L21.0695 5.07679L22.0653 5.40872L22.5237 6.45193Z" fill="white"/>
</g>
<defs>
<clipPath id="clip0_327_138122">
<rect fill="white" height="24" transform="translate(0 0.305908)" width="24"/>
</clipPath>
</defs>
</svg>