<?xml version="1.0" encoding="utf-8"?>
<svg xmlns="http://www.w3.org/2000/svg" fill="none" height="21" viewBox="0 0 20 21" width="20">
<g clip-path="url(#clip0_1867_14743)">
<rect fill="#ABAAFF" height="8.42503" rx="2.00203" transform="rotate(15 12.2303 0.378662)" width="8.42503" x="12.2303" y="0.378662"/>
<path clip-rule="evenodd" d="M14.6548 2.92111C14.8836 3.31732 14.7478 3.82395 14.3516 4.05271C13.9554 4.28146 13.4488 4.14571 13.22 3.7495C12.9912 3.35329 13.127 2.84665 13.5232 2.6179C13.9194 2.38915 14.4261 2.5249 14.6548 2.92111ZM15.9269 5.12393C16.1556 5.52015 16.0199 6.02678 15.6237 6.25553C15.2275 6.48429 14.7208 6.34853 14.4921 5.95232C14.2633 5.55611 14.3991 5.04948 14.7953 4.82072C15.1915 4.59197 15.6981 4.72772 15.9269 5.12393ZM16.8954 8.45878C17.2916 8.23003 17.4274 7.72339 17.1986 7.32718C16.9699 6.93097 16.4632 6.79522 16.067 7.02397C15.6708 7.25272 15.5351 7.75936 15.7638 8.15557C15.9926 8.55178 16.4992 8.68753 16.8954 8.45878Z" fill="#EBEBFF" fill-rule="evenodd"/>
<path d="M12.1024 19.1982C10.3061 20.2353 9.40794 20.7538 8.52772 20.518C7.6475 20.2821 7.12896 19.384 6.09187 17.5877L1.69257 9.96788C0.655485 8.17159 0.136941 7.27344 0.372795 6.39322C0.608649 5.51301 1.50679 4.99446 3.30309 3.95737L5.24098 2.83853C7.03727 1.80144 7.93542 1.28289 8.81564 1.51875C9.69586 1.7546 10.2144 2.65275 11.2515 4.44904L15.6508 12.0688C16.6879 13.8651 17.2064 14.7633 16.9706 15.6435C16.7347 16.5237 15.8366 17.0423 14.0403 18.0794L12.1024 19.1982Z" fill="url(#paint0_linear_1867_14743)" fill-opacity="0.6" opacity="0.6"/>
<path clip-rule="evenodd" d="M1.27964 7.17211C1.09075 6.84494 1.20285 6.42658 1.53002 6.23769C1.85719 6.0488 2.27554 6.1609 2.46443 6.48807L3.03964 7.48436C3.22853 7.81153 3.11644 8.22988 2.78927 8.41877C2.46209 8.60767 2.04374 8.49557 1.85485 8.1684L1.27964 7.17211ZM11.4938 9.37199C9.48218 9.42191 6.8068 7.62746 6.65655 7.52669L6.65203 7.52366C6.66074 7.63053 6.89441 10.904 5.83186 12.6409C7.84343 12.5912 10.5199 14.3862 10.6692 14.4863L10.6736 14.4892L10.6736 14.4892C10.666 14.3836 10.4316 11.1091 11.4938 9.37199ZM14.3828 13.5657C14.0557 13.7546 13.9436 14.1729 14.1325 14.5001L14.7077 15.4964C14.8966 15.8235 15.3149 15.9356 15.6421 15.7467C15.9692 15.5579 16.0813 15.1395 15.8925 14.8123L15.3172 13.816C15.1284 13.4889 14.71 13.3768 14.3828 13.5657Z" fill="#ABAAFF" fill-rule="evenodd"/>
</g>
<defs>
<linearGradient gradientUnits="userSpaceOnUse" id="paint0_linear_1867_14743" x1="22.0428" x2="-13.2699" y1="6.69062" y2="27.7698">
<stop offset="0.0926412" stop-color="#CBC9FF"/>
<stop offset="0.730406" stop-color="#ABAAFF"/>
</linearGradient>
<clipPath id="clip0_1867_14743">
<rect fill="white" height="20" transform="translate(0 0.771973)" width="20"/>
</clipPath>
</defs>
</svg>