<svg xmlns="http://www.w3.org/2000/svg" fill="none" viewBox="0 0 24 24"><g clip-path="url(#providers_svg__a)"><path fill="#292524" d="m8.385 23.308-2.69-2.703.062-1.048a15.14 15.14 0 0 1 3.109-8.32c-.143.013-.276.036-.392.053l-1.55 1.401H2.226V2.706l1.438-.596c.214-.089 2.16-.85 5.345-.85 1.826 0 3.71.25 5.607.743l.04.009.04.013q.376.114.806.112h.508c.659 0 1.162-.255 1.264-.308L18.839.692l1.318 1.427 3.71 3.635-1.1 1.62s-3.305 4.852-4.819 7.072c-.989 1.517-.704 3.272-.285 4.48l.472 1.379-2.988 3.003z"></path><path fill="#292524" d="M18.847.696H16.73v1.732h2.116z"></path><path fill="#1c1917" d="m6.292 23.308-2.69-2.703.063-1.048a15.14 15.14 0 0 1 3.108-8.32c-.142.013-.276.036-.392.053l-1.55 1.401H.133V2.706L1.57 2.11c.214-.089 2.16-.85 5.345-.85 1.826 0 3.71.25 5.607.743l.04.009.04.013q.377.114.806.112h.508c.66 0 1.162-.255 1.265-.308L16.745.692l1.318 1.427 3.71 3.635-1.1 1.62s-3.304 4.852-4.819 7.072c-.988 1.517-.703 3.272-.285 4.48l.472 1.379-2.988 3.003z"></path><path fill="#00dc82" fill-rule="evenodd" d="m.133 8.114 3.822-6.62a18.3 18.3 0 0 1 2.96-.234c1.288 0 2.604.125 3.934.37L4.463 12.693H.133z" clip-rule="evenodd"></path><path fill="#009e5d" d="M5.299 9.138s3.634-1.025 5.736.922L9.583 11.54a12.75 12.75 0 0 0-3.603 8.15l1.27 1.276h4.84l1.284-1.289c-.526-1.521-1.016-4.153.556-6.543 1.506-2.203 4.828-7.077 4.828-7.077l-2.311-2.264s-1.03.68-2.526.68h-.507a5 5 0 0 1-1.47-.21c-5.799-1.513-9.49.004-9.49.004v6.092H3.94z"></path><path fill="#fff" d="M11.944 4.886c.4.12.895.21 1.47.21h.507c1.497 0 2.526-.68 2.526-.68l2.044 2.032.271-.394-2.311-2.265s-1.029.68-2.525.68h-.508a5 5 0 0 1-1.47-.21c-5.803-1.508-9.495.01-9.495.01v.626s3.692-1.518 9.49-.01M11.035 10.485a3 3 0 0 0-.227-.192l-1.225 1.253a12.75 12.75 0 0 0-3.603 8.15l.032.031a12.73 12.73 0 0 1 3.571-7.76zM2.774 3.597c.356 0 .645-.291.645-.65a.647.647 0 0 0-.645-.648.647.647 0 0 0-.646.649c0 .358.29.649.646.649M6.466 3.046c.357 0 .646-.29.646-.649a.647.647 0 0 0-.646-.649.647.647 0 0 0-.646.649c0 .358.29.649.646.649M10.051 3.315c.357 0 .646-.291.646-.65a.647.647 0 0 0-.646-.648.647.647 0 0 0-.646.649c0 .358.29.649.646.649"></path><path fill="#fff" d="M13.547 3.95c.357 0 .646-.29.646-.649a.647.647 0 0 0-.646-.649.647.647 0 0 0-.646.65c0 .358.29.648.646.648M16.624 3.19c.357 0 .646-.291.646-.65a.647.647 0 0 0-.646-.649.647.647 0 0 0-.645.65c0 .358.289.648.645.648M19.052 5.458c.357 0 .646-.29.646-.649a.647.647 0 0 0-.646-.649.647.647 0 0 0-.646.65c0 .358.29.648.646.648M19.155 8.162c.356 0 .645-.29.645-.65a.647.647 0 0 0-.645-.648.647.647 0 0 0-.646.649c0 .358.289.649.646.649M17.2 10.946c.356 0 .645-.29.645-.65a.647.647 0 0 0-.645-.648.647.647 0 0 0-.646.649c0 .358.289.649.646.649M15.328 13.775c.357 0 .646-.291.646-.65a.647.647 0 0 0-.646-.648.647.647 0 0 0-.645.649c0 .358.289.649.645.649M14.06 16.756a.66.66 0 0 0 .659-.663.66.66 0 0 0-.66-.662.66.66 0 0 0-.659.662.66.66 0 0 0 .66.663M14.518 19.911a.66.66 0 0 0 .659-.662.66.66 0 0 0-.66-.663.66.66 0 0 0-.659.663.66.66 0 0 0 .66.662M12.505 22.682c.357 0 .646-.291.646-.65a.647.647 0 0 0-.646-.648.647.647 0 0 0-.646.648c0 .359.29.65.646.65M9.218 22.807c.357 0 .646-.29.646-.65a.647.647 0 0 0-.646-.648.647.647 0 0 0-.646.649c0 .358.29.649.646.649M5.985 21.96c.356 0 .645-.29.645-.648a.647.647 0 0 0-.645-.65.647.647 0 0 0-.646.65c0 .358.289.649.646.649M5.045 18.967c.357 0 .646-.29.646-.65a.647.647 0 0 0-.646-.648.647.647 0 0 0-.646.649c0 .358.29.649.646.649M6.07 15.574c.356 0 .645-.29.645-.65a.647.647 0 0 0-.645-.648.647.647 0 0 0-.646.649c0 .358.289.649.646.649M7.77 12.468c.357 0 .647-.29.647-.65a.647.647 0 0 0-.646-.648.647.647 0 0 0-.646.649c0 .358.29.649.646.649M7.432 10.646c.357 0 .646-.29.646-.649a.647.647 0 0 0-.646-.649.647.647 0 0 0-.646.65c0 .358.29.648.646.648M4.569 12.114c.356 0 .645-.29.645-.649a.647.647 0 0 0-.645-.649.647.647 0 0 0-.646.65c0 .358.289.648.646.648M1.335 12.172c.357 0 .646-.29.646-.649a.647.647 0 0 0-.646-.649.647.647 0 0 0-.646.65c0 .358.29.648.646.648M1.335 8.914c.357 0 .646-.29.646-.65a.647.647 0 0 0-.646-.648.647.647 0 0 0-.646.649c0 .358.29.649.646.649M1.335 5.732c.357 0 .646-.291.646-.65a.647.647 0 0 0-.646-.648.647.647 0 0 0-.646.649c0 .358.29.649.646.649"></path><path fill="#fff" d="m11.03 10.06-1.447 1.486a12.75 12.75 0 0 0-3.603 8.15l1.154 1.16c-.067-.95.08-2.579.646-4.593.565-2 3.67-5.04 4.409-6.177-.12-.093-1.55-.98-2.752-.93.628.26 1.594.904 1.594.904M3.165 4.272h-.717v6.088h.717z"></path></g><defs><clipPath id="providers_svg__a"><path fill="#fff" d="M0 0h24v24H0z"></path></clipPath></defs></svg>