<?xml version="1.0" encoding="utf-8"?>
<svg xmlns="http://www.w3.org/2000/svg" fill="none" height="25" viewBox="0 0 24 25" width="24">
<g clip-path="url(#clip0_548_135367)">
<path d="M19.4124 7.1379C19.4124 7.1379 19.9707 8.64859 19.8842 10.4068C19.7978 12.1649 17.8594 10.797 17.8594 10.797L18.5014 12.8979C18.5014 12.8979 21.2952 13.1317 20.9782 10.2894C20.6613 7.44718 19.8275 6.73242 19.8275 6.73242L19.4124 7.1379Z" fill="#F7BA4A"/>
<path d="M20.3817 7.26189C20.8236 6.70064 20.7345 5.88127 20.1827 5.43178C19.6308 4.98229 18.8252 5.0729 18.3832 5.63415C17.9413 6.1954 18.0304 7.01477 18.5822 7.46426C19.1341 7.91375 19.9397 7.82314 20.3817 7.26189Z" fill="#CB4E74"/>
<path d="M20.4419 6.13898C20.4586 6.28656 20.432 6.43588 20.3653 6.56806C20.2987 6.70024 20.195 6.80934 20.0673 6.88157C19.9397 6.9538 19.7938 6.98591 19.6482 6.97384C19.5027 6.96177 19.3639 6.90607 19.2494 6.81377C19.135 6.72147 19.05 6.59673 19.0052 6.45532C18.9605 6.3139 18.958 6.16217 18.998 6.0193C19.0381 5.87643 19.1189 5.74885 19.2302 5.65269C19.3416 5.55654 19.4784 5.49612 19.6235 5.47908C19.8181 5.45623 20.0136 5.51292 20.1671 5.63667C20.3205 5.76043 20.4194 5.94111 20.4419 6.13898Z" fill="#FFD587"/>
<path d="M3.26108 2.39458C3.26108 2.39458 3.9812 7.01937 3.69508 12.7746C3.40896 18.5299 2.37598 22.276 2.37598 22.276L10.1369 25.139L21.6249 22.4212C21.6249 22.4212 21.6249 17.9075 20.7441 14.6605C19.8633 11.4136 16.7793 5.71218 16.7793 5.71218L19.7049 -0.527344L8.64641 -0.0524351L3.26108 2.39458Z" fill="#CB4E74"/>
<path d="M6.23698 6.5896L8.65112 -0.0532227H8.64599L3.26065 2.39444C3.26065 2.39444 3.96814 6.46576 3.69508 12.6402C3.47487 17.6117 2.37598 22.2761 2.37598 22.2761L10.135 25.138C10.135 25.138 10.135 21.0001 9.61519 16.7692C9.09538 12.5384 6.23698 6.5896 6.23698 6.5896Z" fill="#704761"/>
<path d="M9.84986 1.41184L8.25684 5.59263L15.6155 5.1852L17.3962 1.15088L9.84986 1.41184Z" fill="#704761"/>
<path d="M8.32031 7.9185L10.6728 15.0889L18.9703 13.8213L16.0941 7.21484L8.32031 7.9185Z" fill="#704761"/>
<path d="M11.3143 9.39648L9.26562 9.58693L10.6057 13.3474L12.7823 13.0473L11.3143 9.39648Z" fill="#FFF4E7"/>
<path d="M13.7918 9.10547L11.7432 9.29613L13.2161 13.0118L15.3927 12.7117L13.7918 9.10547Z" fill="#FFF4E7"/>
<path d="M16.273 8.81396L14.2246 9.00462L15.7132 12.6966L17.8896 12.3964L16.273 8.81396Z" fill="#FFF4E7"/>
<path d="M13.5607 17.1959C13.608 17.4788 13.1464 17.7935 12.5295 17.9006C11.9125 18.0077 11.3739 17.8658 11.3266 17.5837C11.2793 17.3016 11.7409 16.9861 12.3578 16.879C12.9748 16.7719 13.5126 16.9138 13.5607 17.1959Z" fill="#EFE1BB"/>
<path d="M13.0354 17.059C13.0624 17.2187 12.8 17.3979 12.4505 17.4586C12.1011 17.5193 11.7955 17.4388 11.7685 17.2788C11.7415 17.1188 12.0039 16.9399 12.3534 16.8792C12.7028 16.8185 13.0086 16.8984 13.0354 17.059Z" fill="#F7BA4A"/>
<path d="M16.6825 16.6353C16.73 16.9183 16.2759 17.3144 15.6512 17.3401C15.1209 17.3618 14.5581 17.2437 14.4483 17.0232C14.3214 16.7677 14.8628 16.4255 15.4798 16.3184C16.0967 16.2114 16.6352 16.3531 16.6825 16.6353Z" fill="#EFE1BB"/>
<path d="M16.1806 16.4889C16.2069 16.645 15.9512 16.8197 15.6094 16.8792C15.2677 16.9386 14.9696 16.86 14.9433 16.7037C14.9169 16.5475 15.1729 16.3727 15.5144 16.3133C15.856 16.2538 16.1545 16.3326 16.1806 16.4889Z" fill="#F7BA4A"/>
<path d="M19.8051 16.076C19.8524 16.359 19.3906 16.6737 18.7736 16.7808C18.1566 16.8879 17.618 16.7462 17.5707 16.4641C17.5234 16.182 17.9852 15.8665 18.6022 15.7594C19.2192 15.6523 19.7576 15.794 19.8051 16.076Z" fill="#EFE1BB"/>
<path d="M19.2875 15.9206C19.3129 16.0716 19.0653 16.241 18.7345 16.2984C18.4036 16.3559 18.1152 16.2797 18.0897 16.1284C18.0642 15.9772 18.3118 15.8081 18.6427 15.7506C18.9735 15.6931 19.2622 15.7693 19.2875 15.9206Z" fill="#F7BA4A"/>
<path d="M10.9375 19.1989L11.0614 20.5013L14.3611 19.9217L14.2132 18.6187L10.9375 19.1989Z" fill="#EFE1BB"/>
<path d="M11.2627 19.141L11.3395 19.987L14.0058 19.4871L13.9281 18.6768L11.2627 19.141Z" fill="#F7BA4A"/>
<path d="M17.2334 18.069L17.3575 19.3714L20.657 18.7918L20.5091 17.4888L17.2334 18.069Z" fill="#EFE1BB"/>
<path d="M17.5674 18.0095L17.6427 18.8418L20.292 18.3771L20.2133 17.5439L17.5674 18.0095Z" fill="#F7BA4A"/>
</g>
<defs>
<clipPath id="clip0_548_135367">
<rect fill="white" height="24" transform="translate(0 0.305664)" width="24"/>
</clipPath>
</defs>
</svg>