<?xml version="1.0" encoding="utf-8"?>
<svg xmlns="http://www.w3.org/2000/svg" fill="none" height="20" viewBox="0 0 20 20" width="20">
<g clip-path="url(#clip0_752_1004)">
<rect fill="url(#paint0_linear_752_1004)" fill-opacity="0.6" height="14.0372" opacity="0.6" rx="2.21538" width="15.5985" x="0.111328" y="4.83984"/>
<path clip-rule="evenodd" d="M6.47653 10.9375C6.47653 10.3847 6.9247 9.93652 7.47754 9.93652H8.34526C8.89811 9.93652 9.34628 10.3847 9.34628 10.9375V15.3298C9.34628 15.8826 8.89811 16.3308 8.34526 16.3308H7.47754C6.9247 16.3308 6.47653 15.8826 6.47653 15.3298V10.9375ZM2.47266 10.9376C2.47266 10.3848 2.92083 9.93662 3.47367 9.93662H4.34519C4.89804 9.93662 5.34621 10.3848 5.34621 10.9376V15.3299C5.34621 15.8827 4.89804 16.3309 4.34519 16.3309H3.47367C2.92083 16.3309 2.47266 15.8827 2.47266 15.3299V10.9376ZM11.4773 9.93652C10.9244 9.93652 10.4762 10.3847 10.4762 10.9375V15.3298C10.4762 15.8826 10.9244 16.3308 11.4773 16.3308H12.3477C12.9006 16.3308 13.3487 15.8826 13.3487 15.3298V10.9375C13.3487 10.3847 12.9006 9.93652 12.3477 9.93652H11.4773Z" fill="#80D474" fill-rule="evenodd"/>
<path clip-rule="evenodd" d="M17.5688 7.44727C17.5688 7.44728 17.5688 7.44728 17.5688 7.44729V10.9815C17.5688 11.0565 17.563 11.1302 17.5517 11.2022C17.5629 11.1303 17.5688 11.0567 17.5688 10.9817V7.44727ZM17.2068 7.29098V10.9817C17.2068 11.5658 16.7333 12.0393 16.1493 12.0393H15.395C14.8953 12.0393 14.4902 12.4444 14.4902 12.9441C14.4902 13.4438 14.8953 13.8489 15.395 13.8489H16.1493C17.7328 13.8489 19.0164 12.5652 19.0164 10.9817V7.29069C19.573 6.97501 19.9484 6.37718 19.9484 5.69165C19.9484 4.76538 19.2629 3.99923 18.3716 3.87285C18.2892 3.8482 18.202 3.83496 18.1116 3.83496C18.0215 3.83496 17.9344 3.84815 17.8522 3.87271C16.9603 3.99866 16.2743 4.76504 16.2743 5.69165C16.2743 6.37739 16.65 6.97538 17.2068 7.29098ZM14.8521 12.9441C14.8521 12.9148 14.8545 12.886 14.8589 12.8579C14.8545 12.8859 14.8522 12.9146 14.8522 12.9438C14.8522 13.2437 15.0952 13.4867 15.3951 13.4867H16.1493C17.4018 13.4867 18.4396 12.5676 18.6251 11.367C18.4397 12.5677 17.4019 13.487 16.1493 13.487H15.395C15.0952 13.487 14.8521 13.2439 14.8521 12.9441Z" fill="#80D474" fill-rule="evenodd"/>
<path d="M7.71059 0.589232C7.77497 0.441293 7.98479 0.441293 8.04916 0.589232L9.09917 3.00229C9.12593 3.06379 9.18394 3.10594 9.25071 3.11239L11.8701 3.36533C12.0307 3.38084 12.0956 3.58039 11.9748 3.68733L10.0043 5.43162C9.95405 5.47608 9.93189 5.54428 9.94639 5.60976L10.5153 8.17915C10.5502 8.33667 10.3804 8.46 10.2414 8.37815L7.97353 7.04313C7.91573 7.0091 7.84402 7.0091 7.78622 7.04313L5.51839 8.37815C5.37935 8.46 5.2096 8.33667 5.24448 8.17915L5.81337 5.60976C5.82787 5.54428 5.80571 5.47608 5.75548 5.43162L3.785 3.68733C3.66419 3.58039 3.72903 3.38084 3.88962 3.36533L6.50905 3.11239C6.57581 3.10594 6.63382 3.06379 6.66059 3.00229L7.71059 0.589232Z" fill="#80D474"/>
</g>
<defs>
<linearGradient gradientUnits="userSpaceOnUse" id="paint0_linear_752_1004" x1="-8.95587" x2="20.9085" y1="-2.86797" y2="29.8519">
<stop stop-color="#C9ECC4"/>
<stop offset="0.997776" stop-color="#A6E09E"/>
</linearGradient>
<clipPath id="clip0_752_1004">
<rect fill="white" height="20" width="20"/>
</clipPath>
</defs>
</svg>