<svg width="114" height="40" viewBox="0 0 114 40" fill="none" xmlns="http://www.w3.org/2000/svg">
<g clip-path="url(#clip0_231_14378)">
<path d="M26.2534 15.8176H22.0286V12.5347C22.0286 10.3519 21.1766 8.25847 19.6602 6.71498C18.1437 5.17149 16.087 4.30436 13.9424 4.30436C11.7978 4.30436 9.741 5.17149 8.22454 6.71498C6.70808 8.25847 5.85614 10.3519 5.85614 12.5347V15.8176H1.62719V12.5347C1.59723 10.8696 1.89357 9.21511 2.49891 7.66788C3.10424 6.12065 4.00644 4.71169 5.15279 3.52335C6.29913 2.335 7.66665 1.39109 9.17544 0.746737C10.6842 0.102381 12.3041 -0.229492 13.9403 -0.229492C15.5765 -0.229492 17.1964 0.102381 18.7051 0.746737C20.2139 1.39109 21.5815 2.335 22.7278 3.52335C23.8742 4.71169 24.7763 6.12065 25.3817 7.66788C25.987 9.21511 26.2834 10.8696 26.2534 12.5347V15.8176Z" fill="#D7D7D7"/>
<path d="M1.4455 15.7505H26.431C26.6219 15.7505 26.8108 15.7889 26.987 15.8637C27.1632 15.9384 27.3231 16.0479 27.4575 16.1858C27.5919 16.3238 27.6981 16.4875 27.77 16.6674C27.8419 16.8474 27.8781 17.04 27.8764 17.2343V25.8135C27.8764 29.5761 26.408 33.1845 23.794 35.845C21.1801 38.5055 17.6349 40.0002 13.9383 40.0002C10.2416 40.0002 6.69638 38.5055 4.08246 35.845C1.46854 33.1845 5.31033e-05 29.5761 5.31033e-05 25.8135V17.2343C-0.00158288 17.04 0.0345969 16.8474 0.106504 16.6674C0.178412 16.4875 0.284623 16.3238 0.419008 16.1858C0.553393 16.0479 0.713291 15.9384 0.889472 15.8637C1.06565 15.7889 1.25463 15.7505 1.4455 15.7505Z" fill="#D7D7D7"/>
<path d="M12.6992 32.6942L6.15344 26.4479L8.94521 23.7829L12.6992 27.3685L20.2403 20.168L23.0321 22.833L12.6992 32.6942Z" fill="#2E2E2E"/>
<path d="M40.0305 15.7042C39.5543 15.5235 39.0931 15.3042 38.6512 15.0485C38.2623 14.8267 37.911 14.5429 37.6105 14.2078C37.3159 13.86 37.0901 13.4575 36.9456 13.0225C36.5791 11.7977 36.6345 10.4823 37.1025 9.29398C37.355 8.70914 37.7383 8.19241 38.2217 7.78495C38.7349 7.36043 39.328 7.04716 39.9645 6.86439C40.7069 6.64849 41.4762 6.54371 42.2483 6.55334C42.9732 6.54852 43.6968 6.61751 44.4082 6.75931C45.1252 6.91211 45.8316 7.11292 46.5227 7.36041C46.4255 8.26981 46.1798 9.15631 45.7958 9.98336L45.1061 9.70593C44.8641 9.61079 44.6157 9.53354 44.3627 9.47474C44.0668 9.40981 43.7676 9.3607 43.4666 9.32762C43.0921 9.28671 42.7157 9.26706 42.3391 9.26876C42.0774 9.26999 41.8163 9.2939 41.5586 9.34023C41.3078 9.38139 41.0661 9.46674 40.8441 9.59244C40.6269 9.72172 40.4473 9.90739 40.3238 10.1305C40.1791 10.4188 40.1095 10.7401 40.1214 11.0636C40.1076 11.313 40.1537 11.5621 40.2559 11.7892C40.3581 12.0163 40.5133 12.2145 40.7078 12.3667C40.8955 12.5145 41.1009 12.6374 41.3191 12.7324C41.5476 12.8333 41.7747 12.93 42.0005 13.0225L43.3551 13.5521C43.8871 13.7613 44.4082 13.9984 44.9161 14.2625C45.3613 14.4925 45.7626 14.8014 46.1014 15.1746C46.4384 15.5556 46.6968 16.0016 46.8613 16.4861C47.058 17.0989 47.1502 17.7415 47.1339 18.386C47.1454 19.1208 47.0047 19.8499 46.7209 20.5256C46.4474 21.1647 46.0334 21.7313 45.5108 22.1818C44.936 22.6693 44.2721 23.0365 43.5574 23.262C42.69 23.5362 41.7853 23.6681 40.8772 23.653C40.3775 23.653 39.9356 23.653 39.5432 23.6109C39.1679 23.5798 38.7943 23.5293 38.424 23.4596C38.0687 23.3902 37.7172 23.3018 37.3709 23.1948C37.024 23.0855 36.6606 22.9552 36.2848 22.8039C36.3345 22.3346 36.4173 21.8697 36.5326 21.4125C36.6565 20.9291 36.7969 20.4415 36.9456 19.9497C37.525 20.1936 38.1231 20.389 38.7338 20.534C39.3203 20.6705 39.9204 20.7368 40.522 20.7316C41.3039 20.7743 42.0812 20.586 42.7604 20.1893C43.0289 20.0146 43.247 19.7703 43.3921 19.4814C43.5373 19.1926 43.6043 18.8697 43.5863 18.5458C43.597 18.2273 43.5303 17.9112 43.3922 17.6252C43.2704 17.3856 43.1018 17.174 42.8967 17.0031C42.6867 16.8316 42.4546 16.6902 42.207 16.5828C41.9509 16.4651 41.6866 16.3558 41.414 16.2465L40.0305 15.7042Z" fill="#D7D7D7"/>
<path d="M49.5044 6.82227H58.7346C58.8223 7.28492 58.8665 7.75502 58.8667 8.22622C58.8677 8.71277 58.8234 9.19832 58.7346 9.6764H52.8083V13.2661H57.5121C57.6009 13.7358 57.6465 14.2129 57.6484 14.6911C57.6489 15.1779 57.6033 15.6635 57.5121 16.1413H52.8083V20.5171H58.8915C58.9826 20.9793 59.0283 21.4496 59.0278 21.921C59.0295 22.4078 58.9838 22.8936 58.8915 23.3712H49.5044V6.82227Z" fill="#D7D7D7"/>
<path d="M72.2556 20.2395C72.4509 20.6677 72.6138 21.1103 72.7429 21.5636C72.8709 22.0124 72.9647 22.4705 73.0237 22.9339C72.3398 23.198 71.6314 23.3909 70.9093 23.5098C70.2388 23.604 69.5625 23.6489 68.8857 23.6443C67.732 23.6686 66.5855 23.4541 65.5157 23.0138C64.5848 22.6173 63.7544 22.0107 63.0874 21.24C62.4143 20.4535 61.9093 19.533 61.6048 18.5371C61.2639 17.4344 61.0953 16.2841 61.105 15.1281C61.0947 13.9678 61.2705 12.8135 61.6254 11.7107C61.9462 10.7091 62.4585 9.78196 63.1328 8.98271C63.7958 8.21131 64.6179 7.59843 65.5405 7.18784C66.5748 6.74378 67.6889 6.52471 68.8113 6.54471C69.48 6.54097 70.1481 6.58733 70.8102 6.68342C71.4899 6.79398 72.154 6.98732 72.7883 7.25929C72.7588 7.71792 72.6685 8.17038 72.5199 8.6044C72.3671 9.02474 72.2019 9.48292 72.0202 9.92848C71.5636 9.76342 71.0956 9.63276 70.6202 9.53756C70.1414 9.45459 69.6563 9.41521 69.1706 9.41987C67.7252 9.41987 66.6142 9.90326 65.8378 10.8616C65.0614 11.82 64.6732 13.2408 64.6732 15.1281C64.6732 18.872 66.2329 20.7453 69.3523 20.7482C69.8448 20.7522 70.3367 20.7128 70.8226 20.6305C71.3095 20.5381 71.7886 20.4074 72.2556 20.2395Z" fill="#D7D7D7"/>
<path d="M75.3984 6.82229C75.6719 6.776 75.9476 6.74513 76.2244 6.72981C76.4929 6.72981 76.7737 6.70459 77.0504 6.70459C77.3271 6.70459 77.5707 6.70459 77.8433 6.72981C78.1201 6.74535 78.3958 6.77622 78.6693 6.82229V15.4057C78.6693 16.3431 78.7023 17.1459 78.7684 17.8101C78.8135 18.3832 78.9531 18.9445 79.1814 19.4705C79.3581 19.8784 79.6593 20.2174 80.0404 20.4372C80.4863 20.6618 80.9805 20.7688 81.4776 20.7483C81.9694 20.7694 82.4584 20.6624 82.8982 20.4372C83.2749 20.2144 83.5727 19.876 83.749 19.4705C83.9771 18.9445 84.1167 18.3832 84.162 17.8101C84.2375 17.011 84.272 16.2085 84.2652 15.4057V6.82229C84.5498 6.77638 84.8365 6.74552 85.1242 6.72981C85.3995 6.713 85.6638 6.70459 85.9171 6.70459C86.1856 6.70459 86.4623 6.70459 86.7431 6.72981C87.0268 6.74443 87.3095 6.77531 87.5897 6.82229V16.1203C87.5977 17.1512 87.5064 18.1803 87.3172 19.193C87.1661 20.0493 86.835 20.8623 86.3466 21.5764C85.865 22.2473 85.2164 22.7755 84.4676 23.1064C82.541 23.8249 80.4265 23.8249 78.5 23.1064C77.7511 22.7755 77.1025 22.2473 76.6209 21.5764C76.1325 20.8623 75.8015 20.0493 75.6504 19.193C75.4611 18.1803 75.3698 17.1512 75.3778 16.1203L75.3984 6.82229Z" fill="#D7D7D7"/>
<path d="M90.8193 6.82237C91.4842 6.7425 92.1078 6.67945 92.686 6.62481C93.2641 6.57016 93.9249 6.54494 94.6187 6.54494C95.4417 6.54357 96.2631 6.62097 97.0718 6.77612C97.8419 6.91366 98.5817 7.1898 99.2565 7.59159C99.9022 7.97903 100.442 8.52539 100.826 9.1805C101.253 9.95535 101.462 10.8355 101.429 11.7236C101.437 12.2732 101.36 12.8207 101.202 13.3461C101.065 13.7817 100.871 14.1961 100.624 14.5777C100.224 15.1849 99.7048 15.7015 99.0996 16.0952L98.7114 16.3516L102.672 23.3461C102.37 23.3797 102.052 23.4092 101.722 23.4386C101.392 23.468 101.049 23.4848 100.702 23.4848C100.135 23.4851 99.5686 23.4387 99.0087 23.3461L94.755 15.658L95.3001 15.3848C95.5094 15.2755 95.7654 15.1354 96.0683 14.9644C96.3808 14.7878 96.6731 14.5763 96.9397 14.3339C97.2245 14.0689 97.4645 13.7578 97.65 13.4134C97.8495 13.0245 97.9503 12.591 97.9432 12.1523C97.9432 11.1855 97.6748 10.471 97.1173 10.0212C96.5176 9.549 95.7726 9.30915 95.0152 9.34444C94.7124 9.34163 94.4099 9.36413 94.1108 9.41169V23.3713L93.2848 23.4512C93.0122 23.4512 92.7479 23.4848 92.4919 23.4848C92.2358 23.4848 91.9632 23.4848 91.6659 23.4638C91.3685 23.4428 91.0836 23.4176 90.7821 23.3713L90.8193 6.82237Z" fill="#D7D7D7"/>
<path d="M104.481 6.82227H113.707C113.798 7.28448 113.844 7.75479 113.843 8.22622C113.845 8.713 113.799 9.19876 113.707 9.6764H107.78V13.2661H112.484C112.574 13.7427 112.62 14.2268 112.621 14.7121C112.621 15.1989 112.575 15.6845 112.484 16.1623H107.78V20.5381H113.86C113.951 21.0003 113.996 21.4706 113.996 21.9421C113.998 22.4289 113.952 22.9146 113.86 23.3922H104.481V6.82227Z" fill="#D7D7D7"/>
<path d="M36.962 28.1377C37.2883 28.1125 37.6187 28.0873 37.9491 28.0704C38.2795 28.0536 38.6222 28.041 38.9609 28.041C39.3228 28.0424 39.6837 28.079 40.0388 28.1503C40.3926 28.2202 40.7285 28.3633 41.0258 28.5707C41.3317 28.7841 41.579 29.0735 41.7444 29.4113C41.927 29.845 42.0211 30.3119 42.0211 30.7838C42.0211 31.2556 41.927 31.7225 41.7444 32.1562C41.5795 32.4919 41.3355 32.7807 41.0341 32.9969C40.7417 33.2049 40.4096 33.3481 40.0594 33.4172C39.7113 33.4885 39.3572 33.5251 39.0022 33.5265H38.742H38.5149V36.0234C38.385 36.045 38.254 36.0591 38.1225 36.0654H37.7508H37.375C37.2367 36.0593 37.0988 36.0453 36.962 36.0234V28.1377ZM38.5149 32.1394C38.5937 32.1557 38.6739 32.1641 38.7544 32.1646H39.0228C39.1986 32.1641 39.3736 32.1401 39.5432 32.0931C39.7087 32.0488 39.8633 31.9701 39.9975 31.8619C40.1316 31.7474 40.2388 31.6038 40.3113 31.4416C40.3949 31.2338 40.4343 31.0103 40.427 30.7859C40.4338 30.5546 40.3944 30.3244 40.3113 30.1091C40.2396 29.9405 40.1324 29.7898 39.9975 29.6677C39.8648 29.5554 39.7098 29.4737 39.5432 29.4282C39.3734 29.3826 39.1984 29.36 39.0228 29.3609H38.8081L38.5149 29.3861V32.1394Z" fill="#D7D7D7"/>
<path d="M45.358 28.1632C45.5067 28.1632 45.6471 28.1254 45.771 28.117C45.8949 28.1086 46.0518 28.117 46.217 28.117C46.3822 28.117 46.4978 28.117 46.63 28.117C46.7621 28.117 46.9149 28.1422 47.076 28.1632L49.4672 35.9396C49.1855 35.9824 48.9012 36.0049 48.6164 36.0069C48.3535 36.0059 48.0911 35.9834 47.8318 35.9396L47.4188 34.3843H44.8913L44.4536 35.9396C44.212 35.9817 43.9676 36.0042 43.7226 36.0069C43.4624 36.0057 43.2028 35.9832 42.9462 35.9396L45.358 28.1632ZM47.0595 33.0729L46.1757 29.8068L45.2506 33.0729H47.0595Z" fill="#D7D7D7"/>
<path d="M52.5108 33.1695L50.1279 28.1632C50.4235 28.1213 50.7216 28.1002 51.02 28.1001C51.2965 28.0992 51.5727 28.1203 51.8459 28.1632L53.3533 31.6899L54.8442 28.1632C55.1106 28.1206 55.3799 28.0996 55.6495 28.1001C55.926 28.101 56.202 28.1221 56.4755 28.1632L54.0967 33.1611V35.9522C53.9563 35.9732 53.82 35.9858 53.6837 35.9942C53.5474 36.0026 53.4277 35.9942 53.2996 35.9942H52.9238C52.7917 35.9942 52.6595 35.9942 52.5108 35.9522V33.1695Z" fill="#D7D7D7"/>
<path d="M58.5776 28.1633C58.851 28.1216 59.1271 28.1006 59.4036 28.1003C59.6801 28.0996 59.9562 28.1207 60.2296 28.1633L61.9847 32.619L63.7895 28.1633C64.0321 28.1191 64.2782 28.098 64.5246 28.1003C64.7846 28.0997 65.0443 28.1208 65.301 28.1633L65.6603 35.9397C65.4077 35.9817 65.1522 36.0042 64.8963 36.0069C64.6566 36.0058 64.4176 35.9833 64.1818 35.9397L63.9753 30.6854L62.4225 34.3382C62.3234 34.3382 62.2201 34.3676 62.1169 34.376C62.0096 34.3823 61.902 34.3823 61.7948 34.376H61.5222C61.425 34.3664 61.3285 34.351 61.2331 34.3298L59.7877 30.6013L59.639 35.9523C59.4225 35.9946 59.2028 36.0171 58.9823 36.0195C58.7469 36.0174 58.512 35.9949 58.2803 35.9523L58.5776 28.1633Z" fill="#D7D7D7"/>
<path d="M68.1093 28.1631H72.4456C72.4868 28.3806 72.5076 28.6015 72.5075 28.823C72.5085 29.0515 72.4878 29.2796 72.4456 29.504H69.6703V31.1854H71.8798C71.9201 31.4058 71.9408 31.6295 71.9417 31.8537C71.942 32.0822 71.9212 32.3101 71.8798 32.5347H69.6703V34.5902H72.5282C72.5694 34.8076 72.5902 35.0286 72.5901 35.2501C72.5911 35.4786 72.5704 35.7066 72.5282 35.9311H68.1093V28.1631Z" fill="#D7D7D7"/>
<path d="M74.8161 28.1631C75.0216 28.1224 75.2303 28.1013 75.4397 28.1001C75.6614 28.1008 75.8825 28.1219 76.1005 28.1631L79.0533 33.119V28.1631C79.2963 28.1222 79.5421 28.1011 79.7884 28.1001C79.9964 28.1007 80.2039 28.1218 80.4079 28.1631V35.9395C80.2051 35.9805 79.9992 36.003 79.7925 36.0068C79.5749 36.0033 79.358 35.9808 79.1441 35.9395L76.1665 30.9963V35.9395C75.9391 35.9833 75.7083 36.0058 75.4768 36.0068C75.2495 36.0058 75.0228 35.9833 74.7996 35.9395L74.8161 28.1631Z" fill="#D7D7D7"/>
<path d="M84.4634 29.5123H82.5595C82.5173 29.2879 82.4966 29.0598 82.4976 28.8313C82.4975 28.6098 82.5183 28.3889 82.5595 28.1714H87.9283C87.9696 28.3889 87.9903 28.6098 87.9903 28.8313C87.9913 29.0598 87.9705 29.2879 87.9283 29.5123H86.0245V35.9478L85.6404 35.9856C85.5165 35.9856 85.3926 35.9856 85.2687 35.9856H84.8805C84.7422 35.9796 84.6043 35.9655 84.4675 35.9436L84.4634 29.5123Z" fill="#D7D7D7"/>
</g>
<defs>
<clipPath id="clip0_231_14378">
<rect width="114" height="40" fill="white"/>
</clipPath>
</defs>
</svg>
