<?xml version="1.0" encoding="utf-8"?>
<svg xmlns="http://www.w3.org/2000/svg" fill="none" height="128" viewBox="0 0 128 128" width="128">
<path d="M126.48 93.3655C126.48 112.398 98.5212 127.887 64 127.887C29.4788 127.887 1.52051 112.464 1.52051 93.3655C1.52051 93.103 1.52051 75.9736 1.52051 75.9736H126.48C126.48 75.9736 126.48 93.3655 126.48 93.3655Z" fill="#234461"/>
<path clip-rule="evenodd" d="M63.691 127.886V75.9735H126.31V95.9209C123.941 113.765 96.9618 127.887 63.9993 127.887C63.8965 127.887 63.7937 127.887 63.691 127.886Z" fill="#1E3A53" fill-rule="evenodd"/>
<path d="M126.48 83.2581C126.48 102.291 98.5213 117.779 64 117.779C29.4788 117.779 1.52051 102.356 1.52051 83.2581C1.52051 82.9956 1.52051 65.8662 1.52051 65.8662H126.48C126.48 65.8662 126.48 83.1925 126.48 83.2581Z" fill="#426B8F"/>
<path clip-rule="evenodd" d="M63.6846 117.779V65.8662H126.311V85.8136C123.942 103.658 96.9634 117.779 64.001 117.779C63.8955 117.779 63.79 117.779 63.6846 117.779Z" fill="#325778" fill-rule="evenodd"/>
<path d="M64 101.305C98.5065 101.305 126.48 85.8495 126.48 66.7839C126.48 47.7184 98.5065 32.2627 64 32.2627C29.4935 32.2627 1.52051 47.7184 1.52051 66.7839C1.52051 85.8495 29.4935 101.305 64 101.305Z" fill="#704760"/>
<path d="M68.9755 92.5775C97.7188 92.5775 121.02 80.2364 121.02 65.013C121.02 49.7895 97.7188 37.4485 68.9755 37.4485C40.2322 37.4485 16.9312 49.7895 16.9312 65.013C16.9312 80.2364 40.2322 92.5775 68.9755 92.5775Z" fill="#49303D"/>
<path d="M59.7978 92.5775C88.5411 92.5775 111.842 80.2364 111.842 65.013C111.842 49.7895 88.5411 37.4485 59.7978 37.4485C31.0545 37.4485 7.75342 49.7895 7.75342 65.013C7.75342 80.2364 31.0545 92.5775 59.7978 92.5775Z" fill="#F7E8F1"/>
<path d="M64.0024 92.5775C92.7457 92.5775 116.047 80.2364 116.047 65.013C116.047 49.7895 92.7457 37.4485 64.0024 37.4485C35.259 37.4485 11.958 49.7895 11.958 65.013C11.958 80.2364 35.259 92.5775 64.0024 92.5775Z" fill="#E9E7ED"/>
<path d="M112.987 55.3544L84.7739 55.4205L101.16 45.6416C96.7332 43.263 91.5134 41.3468 85.765 39.9593L72.286 48.0203V37.7789C69.5769 37.5806 66.8019 37.4485 63.9607 37.4485C60.7892 37.4485 57.6837 37.5806 54.6443 37.911V48.0863L41.3635 40.1575C35.6151 41.6111 30.4614 43.5933 26.1005 45.972L42.0903 55.4866L14.7358 55.5527C12.6215 58.526 11.4982 61.7636 11.4982 65.1333C11.4982 65.4637 11.4982 65.7941 11.5643 66.0584L42.0903 65.9923L19.2949 79.6695C22.5986 82.5107 26.8934 85.0215 31.915 87.0698L54.5782 73.4586V92.3557C57.6176 92.62 60.657 92.8182 63.8285 92.8182C66.6697 92.8182 69.5109 92.686 72.2199 92.4878V73.4586L95.4117 87.268C100.433 85.2858 104.794 82.775 108.164 79.9338L84.7739 65.9923L116.291 65.9262C116.291 65.6619 116.291 65.3976 116.291 65.1333C116.357 61.6314 115.168 58.3938 112.987 55.3544Z" fill="#F23461"/>
<path d="M63.5422 79.2535C85.145 79.2535 102.658 71.3494 102.658 61.5991C102.658 51.8488 85.145 43.9447 63.5422 43.9447C41.9394 43.9447 24.4269 51.8488 24.4269 61.5991C24.4269 71.3494 41.9394 79.2535 63.5422 79.2535Z" fill="#234461"/>
<path d="M63.5421 74.4632C81.7378 74.4632 96.4882 68.2927 96.4882 60.6809C96.4882 53.0692 81.7378 46.8987 63.5421 46.8987C45.3465 46.8987 30.596 53.0692 30.596 60.6809C30.596 68.2927 45.3465 74.4632 63.5421 74.4632Z" fill="white"/>
<path d="M63.5428 52.9355H121.271C121.271 52.9355 123.253 55.4563 124.503 58.0349C125.753 60.6135 126.222 63.0425 126.222 63.0425H63.5428V52.9355Z" fill="#704760"/>
<path d="M63.5407 63.0425C70.21 63.0425 75.6166 60.78 75.6166 57.989C75.6166 55.1981 70.21 52.9355 63.5407 52.9355C56.8714 52.9355 51.4649 55.1981 51.4649 57.989C51.4649 60.78 56.8714 63.0425 63.5407 63.0425Z" fill="#234461"/>
<path d="M65.6519 30.6084L72.0556 22.7989C72.0556 22.7989 64.3456 15.9 55.2387 11.2929C46.1318 6.6858 38.4443 6.68572 38.4443 6.68572L37.6091 9.22836C37.6091 9.22836 45.5551 9.99083 52.8962 15.5619C60.2373 21.133 65.6519 30.6084 65.6519 30.6084Z" fill="#A8AB1F"/>
<path d="M62.8451 30.6084L56.4414 22.7989C56.4414 22.7989 64.1514 15.9 73.2583 11.2929C82.3652 6.6858 90.0527 6.68572 90.0527 6.68572L90.8879 9.22836C90.8879 9.22836 82.9419 9.99083 75.6008 15.5619C68.2597 21.133 62.8451 30.6084 62.8451 30.6084Z" fill="#D8EC38"/>
<path d="M34.375 12.2357C36.81 13.6415 39.9236 12.8072 41.3294 10.3723C42.7352 7.93731 41.9009 4.82374 39.466 3.41791C37.031 2.01209 33.9174 2.84636 32.5116 5.28133C31.1058 7.71629 31.9401 10.8299 34.375 12.2357Z" fill="#D8EC38"/>
<path d="M94.122 12.2357C91.687 13.6415 88.5734 12.8072 87.1676 10.3723C85.7618 7.93731 86.5961 4.82374 89.031 3.41791C91.466 2.01209 94.5796 2.84636 95.9854 5.28133C97.3912 7.71629 96.5569 10.8299 94.122 12.2357Z" fill="#D8EC38"/>
<path d="M66.722 35.1396H60.6411V57.4126L63.6815 59.098L66.722 57.4126V35.1396Z" fill="#D8EC38"/>
<path d="M72.6594 23.1888L63.6795 14.0675V13.9968L63.6088 14.0675L54.6289 23.1888V38.9566L63.6088 48.6436L63.6795 48.7143V48.6436L72.6594 38.9566V23.1888Z" fill="#D8EC38"/>
<path clip-rule="evenodd" d="M63.6904 48.6303V14.0807L72.6577 23.1891V38.9569L63.6904 48.6303Z" fill="#A8AB1F" fill-rule="evenodd"/>
<path d="M63.7519 17.7701C68.6712 17.7701 72.6592 13.8175 72.6592 8.94172C72.6592 4.06591 68.6712 0.113281 63.7519 0.113281C58.8326 0.113281 54.8446 4.06591 54.8446 8.94172C54.8446 13.8175 58.8326 17.7701 63.7519 17.7701Z" fill="#A8AB1F"/>
<path d="M86.8465 39.2969C90.1658 41.2132 94.4101 40.076 96.3265 36.7567C98.2428 33.4375 97.1056 29.1932 93.7863 27.2768C90.4671 25.3604 86.2227 26.4977 84.3064 29.8169C82.39 33.1362 83.5273 37.3805 86.8465 39.2969Z" fill="#D8EC38"/>
<path clip-rule="evenodd" d="M68.6328 23.6968L85.3599 38.1272L90.9339 26.3551C90.9339 26.3551 83.9511 26.2268 78.7846 24.0647C73.9405 22.0376 68.5448 18.2573 68.5448 18.2573V23.5497L68.6328 23.6968Z" fill="#D8EC38" fill-rule="evenodd"/>
<path clip-rule="evenodd" d="M58.606 23.6968C58.606 23.6968 51.535 33.5513 41.003 39.5457C30.4709 45.54 27.0384 26.5458 35.4786 25.9592C50.5086 24.9146 58.694 18.2573 58.694 18.2573V23.5497L58.606 23.6968Z" fill="#A8AB1F" fill-rule="evenodd"/>
<path d="M40.6695 39.777C37.0847 41.8467 32.5008 40.6185 30.4311 37.0336C28.3614 33.4488 29.5897 28.8649 33.1745 26.7952C36.7593 24.7256 41.3432 25.9538 43.4129 29.5386C45.4826 33.1234 44.2543 37.7073 40.6695 39.777Z" fill="#D8EC38"/>
</svg>