<?xml version="1.0" encoding="utf-8"?>
<svg xmlns="http://www.w3.org/2000/svg" fill="none" viewBox="0 0 20 20">
<mask height="20" id="mask0" mask-type="alpha" maskUnits="userSpaceOnUse" width="20" x="0" y="0">
<rect fill="#C4C4C4" height="20" width="20"/>
</mask>
<g mask="url(#mask0)">
<path clip-rule="evenodd" d="M3.66181 1.08545L0.0149929 8.7456C0.0011157 8.7741 -0.0032819 8.80628 0.00244321 8.83745C0.00816833 8.86862 0.0237158 8.89714 0.046812 8.91884L9.896 18.3567C9.92397 18.3836 9.96124 18.3985 10 18.3985C10.0388 18.3985 10.076 18.3836 10.104 18.3567L19.9532 8.91943C19.9763 8.89773 19.9918 8.86921 19.9976 8.83804C20.0033 8.80687 19.9989 8.77468 19.985 8.74619L16.3382 1.08604C16.3264 1.06031 16.3075 1.03852 16.2837 1.02327C16.2598 1.00801 16.2321 0.999937 16.2038 1.00001H3.79734C3.76891 0.999658 3.74099 1.00754 3.71695 1.0227C3.6929 1.03786 3.67375 1.05965 3.66181 1.08545Z" fill="#50AF95" fill-rule="evenodd"/>
<path clip-rule="evenodd" d="M11.2654 9.53225C11.1947 9.53756 10.8294 9.55936 10.0145 9.55936C9.36631 9.55936 8.90611 9.53991 8.74466 9.53225C6.23979 9.42206 4.37012 8.98602 4.37012 8.46396C4.37012 7.94189 6.23979 7.50644 8.74466 7.39448V9.09798C8.90847 9.10977 9.3775 9.13746 10.0257 9.13746C10.8035 9.13746 11.193 9.10505 11.2631 9.09857V7.39566C13.7626 7.50703 15.6282 7.94307 15.6282 8.46396C15.6282 8.98485 13.7632 9.42089 11.2631 9.53166L11.2654 9.53225ZM11.2654 7.21948V5.69511H14.7538V3.37054H5.25634V5.69511H8.74407V7.21889C5.90922 7.34911 3.77734 7.91066 3.77734 8.58357C3.77734 9.25649 5.90922 9.81745 8.74407 9.94826V14.8331H11.2648V9.94649C14.0932 9.81627 16.2216 9.25531 16.2216 8.58298C16.2216 7.91066 14.095 7.3497 11.2648 7.21889L11.2654 7.21948Z" fill="white" fill-rule="evenodd"/>
</g>
</svg>