<?xml version="1.0" encoding="utf-8"?>
<svg xmlns="http://www.w3.org/2000/svg" fill="none" viewBox="0 0 32 32">
  <path d="M16.054 28.426h-.19c-5.117 0-8.016-2.28-9.553-4.182-2.772-3.437-3.025-7.936-2.408-10.74 1.093-5.022 4.31-7.462 4.563-7.7L5.456.895l2.471.095 5.798 3.422s-4.309 6.653-5.07 10.138c-.411 1.901-.126 4.69 1.442 6.638 1.268 1.568 3.2 2.376 5.75 2.376h.191c2.471 0 4.372-.808 5.671-2.408 1.616-1.996 1.933-4.832 1.537-6.606-.76-3.485-5.339-9.71-5.339-9.71l6.321-3.66 2.218-.27c.142.127-2.915 3.026-2.677 5.799.222 2.392 3.723 4.483 4.23 6.812.601 2.756.3 7.207-2.504 10.692-1.52 1.917-4.42 4.214-9.441 4.214Z" fill="#B26D22"/>
  <path d="m13.734 4.408-1.466.418L5.461.903l2.463.062 5.81 3.443Z" fill="#EFE1BB"/>
  <path d="M29.694 12.98c-.95-3.326-3.295-5.718-4.753-6.906l3.691-1.442-2.17-3.754-6.828 3.944s3.77 5.387 4.626 9.347c.444 2.028.08 5.228-1.743 7.509-1.473 1.822-3.627 2.74-6.447 2.74h-.222c-2.899 0-5.1-.902-6.542-2.693-1.79-2.217-2.123-5.402-1.648-7.556.871-3.96 4.626-9.347 4.626-9.347L5.456.878 3.302 4.632l2.915.903c-.935 1.3-3.185 3.85-3.977 7.446-.697 3.2-.396 8.317 2.74 12.214 1.743 2.17 5.054 4.768 10.868 4.768h.222c5.687 0 8.998-2.614 10.772-4.816 3.2-3.96 3.723-9.077 2.852-12.166Z" fill="#FEAB1D"/>
  <path clip-rule="evenodd" d="m5.324 25.604 3.072-5.32c.248.509.549.995.91 1.441 1.441 1.79 3.643 2.694 6.542 2.694h.222c.837 0 1.616-.082 2.336-.243l-3.333 5.771c-4.988-.204-8.016-2.369-9.749-4.343Zm22.08-17.013a16.02 16.02 0 0 0-2.463-2.517l3.691-1.442-2.17-3.754-6.828 3.944s3.71 5.3 4.605 9.25l3.165-5.481Z" fill="#F49A26" fill-rule="evenodd"/>
  <path d="M5.678 25.195C2.54 21.298 2.24 16.18 2.938 12.98c.775-3.58 3.025-6.13 3.975-7.446L4 4.632 5.995 1.18 5.472.878l-2.17 3.754 2.914.903c-.934 1.3-3.184 3.85-3.976 7.446-.697 3.2-.396 8.317 2.74 12.214 1.743 2.17 5.054 4.768 10.868 4.768H16.307c-5.67-.08-8.903-2.614-10.63-4.768Z" fill="#EFE1BB"/>
  <path d="M7.243 9.797a1.206 1.206 0 1 0 0-2.412 1.206 1.206 0 0 0 0 2.412Z" fill="#E2721D"/>
  <path d="M24.52 9.797a1.206 1.206 0 1 0 0-2.412 1.206 1.206 0 0 0 0 2.412Z" fill="#FDBF1C"/>
  <path d="M5.344 15.281a1.206 1.206 0 1 0 0-2.411 1.206 1.206 0 0 0 0 2.412ZM5.646 20.972a1.206 1.206 0 1 0 0-2.411 1.206 1.206 0 0 0 0 2.411Z" fill="#E2721D"/>
  <path d="M8.831 25.604a1.206 1.206 0 1 0 0-2.412 1.206 1.206 0 0 0 0 2.412Z" fill="#FDBF1C"/>
  <path d="M26.931 15.285a1.206 1.206 0 1 0 0-2.412 1.206 1.206 0 0 0 0 2.412ZM26.383 20.972a1.206 1.206 0 1 0 0-2.411 1.206 1.206 0 0 0 0 2.411ZM23.527 25.604a1.206 1.206 0 1 0 0-2.412 1.206 1.206 0 0 0 0 2.412Z" fill="#E2721D"/>
  <path d="M23.342 31.103c0 .016-14.464.032-14.511 0 2.012-1.172 2.725-4.752 2.725-4.752h8.966s.602 3.12 2.82 4.752Z" fill="#F7BA4A"/>
  <path d="m20.633 26.604-.032-.079-2.978-.174h-6.084s-.174 1.188-.902 2.582c-.65 1.267-1.252 1.758-1.252 1.758s2.265-.412 2.947-2.914c.174-.555 8.3-1.173 8.3-1.173Z" fill="#EFE1BB"/>
  <path d="m16.64 9.382-.696.656-.039.607.721-.009.015-1.254Z" fill="#B26D22"/>
  <path d="m16.64 9.38 1.565 3.291 3.614.472-2.647 2.505.669 3.583-3.201-1.743-3.2 1.743.667-3.583-2.646-2.505 3.614-.472L16.64 9.38Z" fill="#B26D22"/>
  <path d="m19.838 19.226-.691.661-.455-.565-.066-.391.195-.355.353.09.664.56ZM11.47 13.143l-.697.664 1.652-.039.57-.825-1.525.2Z" fill="#B26D22"/>
  <path d="m15.945 10.035 1.566 3.291 3.614.472-2.647 2.506.668 3.582-3.2-1.742-3.201 1.742.668-3.582-2.646-2.506 3.613-.472 1.565-3.29Z" fill="#FDBF1C"/>
  <path clip-rule="evenodd" d="m17.698 13.35 3.426.448-2.646 2.506.668 3.582-3.2-1.742-1.481.806 3.233-5.6Z" fill="#D8EC38" fill-rule="evenodd"/>
</svg>