<?xml version="1.0" encoding="utf-8"?>
<svg xmlns="http://www.w3.org/2000/svg" fill="none" height="20" viewBox="0 0 20 20" width="20">
<g clip-path="url(#clip0_752_1093)">
<path clip-rule="evenodd" d="M16.8177 8.89309L17.113 6.40934C17.1717 5.91589 16.4755 5.57535 16.0847 5.88231C15.3459 6.46262 14.2924 7.13902 12.9765 7.58969C11.9081 6.42935 11.0385 4.62735 10.5161 3.37833C10.3304 2.9343 9.62609 2.93448 9.44057 3.37861C8.9184 4.62869 8.0488 6.43252 6.97959 7.59267C5.66381 7.14302 4.61084 6.46697 3.8722 5.88627C3.48127 5.57892 2.78344 5.91971 2.84206 6.41353L3.13632 8.89248C2.63148 8.81583 2.16121 8.67834 1.7611 8.5307C1.31871 8.36747 0.790115 8.81996 0.942913 9.26606L4.14178 18.6053C4.28028 19.0096 4.66043 19.2812 5.08783 19.2812H9.94823H10.0107H14.8711C15.2985 19.2812 15.6786 19.0096 15.8171 18.6053L19.0211 9.25102C19.2434 8.60201 18.8556 8.28593 18.2125 8.5248C17.8079 8.67506 17.3306 8.81555 16.8177 8.89309Z" fill="url(#paint0_linear_752_1093)" fill-opacity="0.6" fill-rule="evenodd" opacity="0.6"/>
<path d="M9.81701 8.98493C9.88675 8.82466 10.1141 8.82467 10.1838 8.98493L11.2154 11.3557C11.2444 11.4223 11.3072 11.468 11.3796 11.475L13.9531 11.7235C14.127 11.7403 14.1973 11.9564 14.0664 12.0723L12.1305 13.786C12.0761 13.8342 12.052 13.9081 12.0678 13.979L12.6267 16.5033C12.6645 16.674 12.4806 16.8076 12.3299 16.7189L10.1019 15.4073C10.0392 15.3704 9.96156 15.3704 9.89894 15.4073L7.67086 16.7189C7.52024 16.8076 7.33635 16.674 7.37413 16.5033L7.93304 13.979C7.94875 13.9081 7.92475 13.8342 7.87034 13.786L5.9344 12.0723C5.80352 11.9564 5.87376 11.7403 6.04774 11.7235L8.62124 11.475C8.69357 11.468 8.75642 11.4223 8.78541 11.3557L9.81701 8.98493Z" fill="#FFD583"/>
<circle cx="9.99972" cy="2.44455" fill="#FFD583" r="1.61789"/>
<circle cx="17.0766" cy="5.21286" fill="#FFD583" r="1.00241"/>
<circle cx="3.03269" cy="5.21286" fill="#FFD583" r="1.00241"/>
</g>
<defs>
<linearGradient gradientUnits="userSpaceOnUse" id="paint0_linear_752_1093" x1="19.0842" x2="-8.64155" y1="21.3481" y2="-9.85222">
<stop offset="0.0558355" stop-color="#FBE0B6"/>
<stop offset="1" stop-color="#F9CC87"/>
</linearGradient>
<clipPath id="clip0_752_1093">
<rect fill="white" height="20" width="20"/>
</clipPath>
</defs>
</svg>